<svg id="Layer_1" data-name="Layer 1" xmlns="http://www.w3.org/2000/svg" xmlns:xlink="http://www.w3.org/1999/xlink" viewBox="0 0 401.26 115.93"><defs><style>.cls-1{fill:url(#Unbenannter_Verlauf);}.cls-2{fill:url(#Unbenannter_Verlauf_2);}.cls-3{fill:url(#Unbenannter_Verlauf_3);}.cls-4{fill:url(#Unbenannter_Verlauf_4);}.cls-5{fill:#454853;}</style><linearGradient id="Unbenannter_Verlauf" x1="-28.78" y1="150.08" x2="25.96" y2="149.76" gradientTransform="matrix(0.94, -0.34, -0.34, -0.94, 123.42, 192.51)" gradientUnits="userSpaceOnUse"><stop offset="0" stop-color="#dc0f47"/><stop offset="1" stop-color="#6e1d53"/></linearGradient><linearGradient id="Unbenannter_Verlauf_2" x1="-69.44" y1="184.47" x2="-17.29" y2="150.53" gradientTransform="matrix(0.94, -0.34, -0.34, -0.94, 123.42, 192.51)" gradientUnits="userSpaceOnUse"><stop offset="0" stop-color="#3ea1da"/><stop offset="1" stop-color="#0a4b7c"/></linearGradient><linearGradient id="Unbenannter_Verlauf_3" x1="1.09" y1="193.86" x2="17.09" y2="159.11" gradientTransform="matrix(0.94, -0.34, -0.34, -0.94, 123.42, 192.51)" gradientUnits="userSpaceOnUse"><stop offset="0" stop-color="#fbbf00"/><stop offset="1" stop-color="#eb611a"/></linearGradient><linearGradient id="Unbenannter_Verlauf_4" x1="-38.38" y1="201.98" x2="0.29" y2="172.01" gradientTransform="matrix(0.94, -0.34, -0.34, -0.94, 123.42, 192.51)" gradientUnits="userSpaceOnUse"><stop offset="0" stop-color="#c4cd00"/><stop offset="1" stop-color="#209f7b"/></linearGradient></defs><title>kanbanize_logo_CMYK</title><path class="cls-1" d="M74,39.63A72.87,72.87,0,0,1,61.38,43,55.12,55.12,0,0,1,48.47,65.14l.48,1.3c2.45,6.75,8.59,7,13.7.46L91.08,30.73A72,72,0,0,1,74,39.63Z" transform="translate(-1.78 -2.18)"/><path class="cls-2" d="M54,43.85c-16.33,1-31.54-3.85-41.8-13.41C4.41,33.68.06,41.28,2.43,47.8l2.94,8.09c2.46,6.75,11.18,9.77,19.5,6.74l20-7.29,1.73,4.75,1.84,5.05A55.12,55.12,0,0,0,61.38,43,69.86,69.86,0,0,1,54,43.85Z" transform="translate(-1.78 -2.18)"/><path class="cls-3" d="M88.12,12.79,54.37,5.73A39.93,39.93,0,0,1,60.75,17a41.29,41.29,0,0,1,1,24.64c-.11.43-.23.87-.35,1.29A72.87,72.87,0,0,0,74,39.63a72,72,0,0,0,17-8.9l2.43-3.1a15.66,15.66,0,0,0,1-1.41C98.24,20.19,95.62,14.36,88.12,12.79Z" transform="translate(-1.78 -2.18)"/><path class="cls-4" d="M54.37,5.73,39.23,2.56C31.13.86,26.56,5,29,11.71l4,11.1L13,30.1c-.28.1-.55.23-.83.34C22.46,40,37.67,44.87,54,43.85A69.86,69.86,0,0,0,61.4,43c.13-.42.24-.86.35-1.29a41.29,41.29,0,0,0-1-24.64A39.93,39.93,0,0,0,54.37,5.73Z" transform="translate(-1.78 -2.18)"/><path class="cls-5" d="M112.88,113a4.51,4.51,0,0,1-4.27,4.74h-.38a4.15,4.15,0,0,1-3.41-1.91l-11-14.8-4.24,3.33v8.4a5,5,0,0,1-10,0V71.46a5,5,0,0,1,10,0V93.08L104.8,81.35a4.51,4.51,0,0,1,2.83-1,4.57,4.57,0,0,1,4.75,4.39q0,.13,0,.26c0,1.33-1,2.42-2.17,3.33L101,95.49l11.06,15A4.17,4.17,0,0,1,112.88,113Z" transform="translate(-1.78 -2.18)"/><path class="cls-5" d="M152.15,112.7c0,2.66-1.58,5.07-4.82,5.07s-4.82-2.41-4.82-5.07v-.16c-1.91,3.24-5.57,5.57-10.81,5.57-11.31,0-18-8.56-18-19,0-11.4,8.06-19,19.29-19,11.73,0,19.21,7.64,19.21,19Zm-19.21-24c-5.74,0-9.48,4.57-9.48,10.4,0,5.57,3.24,10.39,9.48,10.39,6,0,9.4-4.82,9.4-10.39,0-6.1-3.49-10.43-9.4-10.43Z" transform="translate(-1.78 -2.18)"/><path class="cls-5" d="M175.13,80c10.06,0,17.63,7.23,17.63,17.21v15.55a5,5,0,0,1-10,0V96.48a7.65,7.65,0,0,0-15.31,0v16.3a5,5,0,0,1-10,0V97.23C157.5,87.26,165.07,80,175.13,80Z" transform="translate(-1.78 -2.18)"/><path class="cls-5" d="M198.69,71.37a5,5,0,0,1,10,0V85.93a12.59,12.59,0,0,1,11-5.93c11,0,16.88,9.23,16.88,19s-5.82,19-16.88,19a13.28,13.28,0,0,1-11.39-5.91v.5a4.83,4.83,0,0,1-4.58,5.06h-.24a4.76,4.76,0,0,1-4.83-4.69q0-.15,0-.31ZM217.56,88.5c-5.65,0-8.9,5-8.9,10.56s3.16,10.57,8.9,10.57,9.06-4.74,9.06-10.57S223.3,88.5,217.56,88.5Z" transform="translate(-1.78 -2.18)"/><path class="cls-5" d="M279.29,112.7c0,2.66-1.58,5.07-4.82,5.07s-4.82-2.41-4.82-5.07v-.16c-1.91,3.24-5.57,5.57-10.81,5.57-11.31,0-18-8.56-18-19,0-11.4,8.06-19,19.29-19,11.72,0,19.21,7.64,19.21,19Zm-19.21-24c-5.74,0-9.48,4.57-9.48,10.4,0,5.57,3.24,10.39,9.48,10.39,6,0,9.4-4.82,9.4-10.39,0-6.1-3.48-10.43-9.4-10.43Z" transform="translate(-1.78 -2.18)"/><path class="cls-5" d="M302.27,80c10.06,0,17.63,7.23,17.63,17.21v15.55a5,5,0,0,1-10,0V96.48a7.65,7.65,0,0,0-15.3,0v16.3a5,5,0,0,1-10,0V97.23C284.64,87.26,292.21,80,302.27,80Z" transform="translate(-1.78 -2.18)"/><path class="cls-5" d="M328.57,68.21a1.09,1.09,0,0,1,1.08,1.08v3.08a1.08,1.08,0,0,1-2.16,0V69.29A1.09,1.09,0,0,1,328.57,68.21Zm0,12.14a1.1,1.1,0,0,1,1.08,1.08V116.7a1.08,1.08,0,0,1-2.16,0V81.43A1.1,1.1,0,0,1,328.57,80.35Z" transform="translate(-1.78 -2.18)"/><path class="cls-5" d="M365.42,117.11h-27a.92.92,0,0,1-.91-.91,1.26,1.26,0,0,1,.33-.75l25.37-32.6H338.56a.92.92,0,0,1-.19-1.83h26.88a.85.85,0,0,1,.91.79v0a1.32,1.32,0,0,1-.25.74l-25.53,32.69h25a.92.92,0,1,1,0,1.83Z" transform="translate(-1.78 -2.18)"/><path class="cls-5" d="M402,99.4H368.9a16.8,16.8,0,0,0,31.1,8.82.86.86,0,0,1,.83-.5,1,1,0,0,1,1.08.92s0,.06,0,.08a1.33,1.33,0,0,1-.25.74,19,19,0,0,1-35-10.39c0-10.73,7.82-19,18.38-19a18.1,18.1,0,0,1,18,18.2q0,.09,0,.17C403.11,99.06,402.69,99.4,402,99.4ZM385,81.86c-8.81,0-15.55,6.9-16,15.64h32a16.24,16.24,0,0,0-15.94-15.65Z" transform="translate(-1.78 -2.18)"/></svg>