<svg id="Ebene_1" data-name="Ebene 1" xmlns="http://www.w3.org/2000/svg" viewBox="0 0 179.45 102.5"><defs><style>.cls-1{fill:#87888a;}.cls-2{fill:#0095d8;}</style></defs><title>LEA_Logo_RGB_120531</title><path class="cls-1" d="M71.57,110.54c-1.47.53-2.92,1.08-4.34,1.68a40.91,40.91,0,0,0-11.77,7.2,21.16,21.16,0,0,0-4.34,5.45,14.21,14.21,0,0,0-1.77,6.75,13.64,13.64,0,0,0,1.85,6.74,17.94,17.94,0,0,0,4.63,5.22,27,27,0,0,0,12.8,5.12,34.25,34.25,0,0,0,4.69.32,39,39,0,0,0,9.09-1.11,48,48,0,0,0,12.79-5.21,63.2,63.2,0,0,0,11.07-8.25c1.66-1.53,3.25-3.18,4.79-4.78l.09-.09c1.72-1.79,3.26-3.42,4.72-5,3.35-3.65,5.88-6.63,8.11-9.52l-1.59-1c-2.13,2.83-4.62,5.83-7.79,9.38-1.42,1.58-2.93,3.23-4.63,5l-.16.17c-1.48,1.58-3,3.2-4.59,4.7a61.79,61.79,0,0,1-10.71,8.2,46.8,46.8,0,0,1-12.39,5.24,35.3,35.3,0,0,1-13.37.91,26,26,0,0,1-12.36-4.85A17,17,0,0,1,52,137.9a12.76,12.76,0,0,1-1.77-6.29,13.37,13.37,0,0,1,1.64-6.36A20.37,20.37,0,0,1,56,120a40.08,40.08,0,0,1,11.51-7.12c1.37-.57,2.77-1.1,4.18-1.6ZM224.18,68.9a27.28,27.28,0,0,0-7.5-12.62,35.81,35.81,0,0,0-25-9.77c-.59,0-1.19,0-1.78,0a42.64,42.64,0,0,0-14.05,3.22A53,53,0,0,0,163.58,57a69.58,69.58,0,0,0-10.19,9.8c-1.51,1.76-2.93,3.57-4.35,5.54s-2.71,3.86-4,5.67c-2.52,3.64-5,7.54-7.63,11.73l1.93,1.18c2.52-4,5.09-7.83,7.68-11.54l.48-.68a116.75,116.75,0,0,1,7.74-10.27A67.23,67.23,0,0,1,165.13,59a50.48,50.48,0,0,1,11.75-6.8,40.25,40.25,0,0,1,13.2-3c.61,0,1.23,0,1.84,0a33.16,33.16,0,0,1,23,8.91,24.76,24.76,0,0,1,6.88,11.42A21.41,21.41,0,0,1,221,82.75a29.46,29.46,0,0,1-7.72,11,51,51,0,0,1-11.18,7.72,77.36,77.36,0,0,1-12.61,5.22c-1.33.41-2.72.76-4.13,1.09l.14,1.84c1.55-.33,3.07-.7,4.54-1.13a78.59,78.59,0,0,0,13-5.19,53.22,53.22,0,0,0,11.75-7.9,31.22,31.22,0,0,0,8.43-11.77,23.77,23.77,0,0,0,.89-14.71" transform="translate(-49.35 -46.51)"/><path class="cls-1" d="M228.79,118.13a.23.23,0,0,0-.24-.28h-1.82l.3-1.67a.23.23,0,0,0-.24-.28h-.74a.31.31,0,0,0-.3.28l-.3,1.67h-.79a.31.31,0,0,0-.3.28l-.09.48a.23.23,0,0,0,.24.29h.76l-.78,4.43a3,3,0,0,0-.06.6A1.42,1.42,0,0,0,226,125.5a5.66,5.66,0,0,0,1.25-.16c.2,0,.3-.12.33-.29l.12-.6c0-.16-.06-.27-.24-.22a6.84,6.84,0,0,1-1.09.15.57.57,0,0,1-.63-.63,1.43,1.43,0,0,1,0-.24l.81-4.61h1.84a.31.31,0,0,0,.3-.29Zm-5.34.09a.27.27,0,0,0-.24-.33,5.76,5.76,0,0,0-1.4-.19,2.71,2.71,0,0,0-2.92,2.55l-.42,2.4a3.68,3.68,0,0,0-.06.69,2,2,0,0,0,2.25,2.16,6.42,6.42,0,0,0,1.29-.13.32.32,0,0,0,.3-.32l.1-.6c0-.16-.06-.25-.24-.24a11.56,11.56,0,0,1-1.32.09,1,1,0,0,1-1.12-1.07,2.23,2.23,0,0,1,0-.44l.42-2.4a1.56,1.56,0,0,1,1.62-1.5A6.43,6.43,0,0,1,223,119c.19,0,.3,0,.33-.21Zm-6.21-.09a.23.23,0,0,0-.24-.29h-.74a.31.31,0,0,0-.3.29l-1,5.58a3.81,3.81,0,0,1-1.75.58c-.71,0-.93-.34-.93-.87a2.7,2.7,0,0,1,0-.48l.85-4.82a.23.23,0,0,0-.24-.29h-.73a.31.31,0,0,0-.3.29l-.82,4.66a5.27,5.27,0,0,0-.08.81,1.67,1.67,0,0,0,1.87,1.89,3.19,3.19,0,0,0,1.89-.67l0,.24a.23.23,0,0,0,.24.28h.74a.31.31,0,0,0,.3-.28Zm-8.89,1.09-.83,4.71a4.47,4.47,0,0,1-1.67.44.88.88,0,0,1-1-1,2.3,2.3,0,0,1,0-.43l.48-2.7c.13-.79.54-1.42,1.46-1.42A3.67,3.67,0,0,1,208.34,119.23Zm2-4.24a.23.23,0,0,0-.24-.29h-.74a.31.31,0,0,0-.3.29l-.59,3.25a2.92,2.92,0,0,0-1.7-.54c-1.6,0-2.38.82-2.67,2.4l-.48,2.7a3.85,3.85,0,0,0-.06.71,1.83,1.83,0,0,0,2.05,2,3.3,3.3,0,0,0,1.67-.51v.09a.22.22,0,0,0,.24.27h.73a.31.31,0,0,0,.3-.28Zm-9.46,5a2.25,2.25,0,0,1,0,.44l-.42,2.4c-.15.86-.56,1.58-1.59,1.58a1.07,1.07,0,0,1-1.23-1.16,2.09,2.09,0,0,1,0-.42l.42-2.4c.15-.86.57-1.58,1.61-1.58A1.06,1.06,0,0,1,200.9,120m1.26-.08a2.09,2.09,0,0,0-2.37-2.19,2.76,2.76,0,0,0-3,2.55l-.42,2.4a3.37,3.37,0,0,0-.06.66,2.09,2.09,0,0,0,2.37,2.19,2.73,2.73,0,0,0,3-2.55l.42-2.4a3.38,3.38,0,0,0,.06-.66M196.25,118c0-.16,0-.27-.2-.3a2.1,2.1,0,0,0-.33,0,2,2,0,0,0-1.71,1.11l.12-.67a.23.23,0,0,0-.24-.28h-.73a.31.31,0,0,0-.3.28l-1.23,6.93a.23.23,0,0,0,.24.28h.73a.31.31,0,0,0,.3-.28l.84-4.78a2.56,2.56,0,0,1,1.86-1.2h.21a.26.26,0,0,0,.3-.24Zm-7,1.77a2.4,2.4,0,0,1,0,.45l-.48,2.7a1.38,1.38,0,0,1-1.58,1.27h-1.42l.87-4.95a4.47,4.47,0,0,1,1.66-.45.87.87,0,0,1,1,1Zm1.26-.09a1.84,1.84,0,0,0-2.05-2,3.43,3.43,0,0,0-1.67.49l0-.06a.22.22,0,0,0-.24-.28h-.74a.31.31,0,0,0-.3.29l-1.74,9.78a.23.23,0,0,0,.24.29h.74a.31.31,0,0,0,.3-.29l.48-2.67c.59.06,1.23.1,1.54.1,1.67,0,2.59-.61,2.88-2.25l.48-2.7a3.7,3.7,0,0,0,.06-.69Zm-12.75-.48-.83,4.71a4.48,4.48,0,0,1-1.67.44.88.88,0,0,1-1-1,2.23,2.23,0,0,1,0-.43l.48-2.7c.13-.79.54-1.42,1.46-1.42A3.67,3.67,0,0,1,177.74,119.23Zm2-4.24a.23.23,0,0,0-.24-.29h-.73a.31.31,0,0,0-.3.29l-.59,3.25a2.91,2.91,0,0,0-1.69-.54c-1.61,0-2.38.82-2.67,2.4l-.48,2.7a3.84,3.84,0,0,0-.06.71,1.83,1.83,0,0,0,2.05,2,3.3,3.3,0,0,0,1.67-.51v.09a.22.22,0,0,0,.24.27h.74a.31.31,0,0,0,.3-.28Zm-8.24,4.6a1.67,1.67,0,0,0-1.87-1.89,3.19,3.19,0,0,0-1.89.67l0-.24a.23.23,0,0,0-.24-.28h-.73a.31.31,0,0,0-.3.28l-1.23,6.93a.23.23,0,0,0,.24.28h.74a.31.31,0,0,0,.3-.28l1-5.59a3.6,3.6,0,0,1,1.71-.56c.72,0,1,.34,1,.9a2.23,2.23,0,0,1,0,.43l-.86,4.82a.23.23,0,0,0,.24.28h.74a.31.31,0,0,0,.3-.28l.82-4.67a5.27,5.27,0,0,0,.07-.81m-8.65.38a2.32,2.32,0,0,1,0,.44l-.42,2.4c-.15.86-.56,1.58-1.59,1.58a1.07,1.07,0,0,1-1.23-1.16,2.09,2.09,0,0,1,0-.42l.42-2.4c.15-.86.57-1.58,1.61-1.58a1.06,1.06,0,0,1,1.22,1.14m1.26-.08a2.09,2.09,0,0,0-2.37-2.19,2.76,2.76,0,0,0-3,2.55l-.42,2.4a3.37,3.37,0,0,0-.06.66,2.09,2.09,0,0,0,2.37,2.19,2.73,2.73,0,0,0,3-2.55l.42-2.4a3.38,3.38,0,0,0,.06-.66m-6-1.74a.19.19,0,0,0-.18-.3h-.84a.44.44,0,0,0-.36.29L154,123.5l-.84-5.37a.32.32,0,0,0-.3-.29h-.75a.24.24,0,0,0-.24.3l1.17,7.2-1.33,2.57a.19.19,0,0,0,.18.29h.83a.44.44,0,0,0,.38-.27Zm-8.52,1.63c0,.93-.62,1.38-1.85,1.4l-1.11,0v-.08c.27-1.35.69-2.34,1.89-2.34a.92.92,0,0,1,1.05,1m1.2-.11c0-1.21-.67-2-2.14-2-1.88,0-2.91,1.2-3.27,3.39l-.11.63a6.07,6.07,0,0,0-.09,1c0,1.49.64,2.75,2.59,2.75a7.07,7.07,0,0,0,1.67-.27.32.32,0,0,0,.29-.3l.11-.63c0-.17-.06-.27-.23-.24a10.23,10.23,0,0,1-1.73.27c-1.14,0-1.46-.77-1.46-1.62,0-.17,0-.34,0-.51l1.29,0c2.2,0,3-.88,3-2.5m-8.44.12a2.51,2.51,0,0,1,0,.45l-.48,2.7a1.38,1.38,0,0,1-1.58,1.28h-1.42l.87-5a4.51,4.51,0,0,1,1.66-.45.87.87,0,0,1,1,1m1.26-.09a1.84,1.84,0,0,0-2.05-2,3.43,3.43,0,0,0-1.66.49l.57-3.21a.23.23,0,0,0-.24-.29h-.75c-.16,0-.26.12-.29.29l-1.79,10.08a.23.23,0,0,0,.24.28h2.64a2.43,2.43,0,0,0,2.79-2.25l.48-2.7a3.7,3.7,0,0,0,.06-.69" transform="translate(-49.35 -46.51)"/><path class="cls-2" d="M184.49,99.62c0-2.36-1.31-3.85-4.17-3.85-3.65,0-5.66,2.33-6.36,6.6l-.21,1.22a11.9,11.9,0,0,0-.17,2c0,2.89,1.25,5.34,5,5.34a13.77,13.77,0,0,0,3.24-.52.62.62,0,0,0,.55-.58l.2-1.23c.06-.32-.12-.53-.44-.47a20,20,0,0,1-3.36.53c-2.22,0-2.83-1.49-2.83-3.15,0-.32,0-.67.06-1l2.51,0c4.29-.06,5.92-1.72,5.92-4.87m-2.33.2c0,1.81-1.2,2.68-3.59,2.71l-2.16,0,0-.15c.53-2.63,1.34-4.55,3.68-4.55a1.79,1.79,0,0,1,2,2m-9.11-2.28.17-.93a.45.45,0,0,0-.47-.56h-3.53l.58-3.24a.45.45,0,0,0-.47-.56h-1.43a.6.6,0,0,0-.58.56l-.58,3.24H165.2a.6.6,0,0,0-.58.56l-.18.93a.45.45,0,0,0,.47.55h1.49l-1.52,8.61a5.81,5.81,0,0,0-.12,1.17,2.76,2.76,0,0,0,3,3.06,11,11,0,0,0,2.42-.32c.38-.09.58-.23.64-.55l.23-1.17c.06-.32-.12-.53-.47-.44a13.35,13.35,0,0,1-2.13.29,1.11,1.11,0,0,1-1.23-1.22,2.8,2.8,0,0,1,.06-.47l1.58-9h3.59a.6.6,0,0,0,.58-.55M159.77,110l2.31-13.13c.06-.32-.15-.5-.5-.56a26.25,26.25,0,0,0-4.7-.58c-3.3,0-4.93,1.61-5.49,4.67l-.93,5.25a7.45,7.45,0,0,0-.12,1.37c0,2.33,1.25,3.88,4,3.88a5.59,5.59,0,0,0,2.95-.93l0,.15c-.06.32.17.5.5.5h1.46c.32,0,.5-.29.55-.61m-.41-11.79-1.69,9.6a6.92,6.92,0,0,1-2.95.9,1.71,1.71,0,0,1-1.93-1.93,4.38,4.38,0,0,1,.09-.85l.93-5.25A3,3,0,0,1,156.94,98a12.39,12.39,0,0,1,2.42.29M150,96.64a.38.38,0,0,0-.35-.58H148a.85.85,0,0,0-.7.56L142,107.09l-1.6-10.48a.63.63,0,0,0-.58-.56h-1.49a.47.47,0,0,0-.47.58l2.25,13.48a.63.63,0,0,0,.61.52h1.58a.94.94,0,0,0,.79-.52Zm-14.65,4.67a6.54,6.54,0,0,0,.12-1.28c0-2.57-1.58-4.26-4.61-4.26-3.21,0-5.17,1.69-5.75,5l-.82,4.67a6.55,6.55,0,0,0-.12,1.29c0,2.6,1.6,4.26,4.61,4.26,3.33,0,5.17-1.69,5.75-5ZM133,100.17a4.5,4.5,0,0,1-.09.85l-.82,4.67c-.29,1.66-1.08,3.06-3.09,3.06a2.09,2.09,0,0,1-2.39-2.25,4.07,4.07,0,0,1,.09-.82l.82-4.67c.29-1.66,1.11-3.06,3.12-3.06a2.06,2.06,0,0,1,2.37,2.22M121.8,101a10.18,10.18,0,0,0,.14-1.58c0-2.22-1-3.68-3.65-3.68a6.19,6.19,0,0,0-3.68,1.31l.09-.47a.45.45,0,0,0-.47-.56h-1.43a.6.6,0,0,0-.58.56l-2.39,13.48a.44.44,0,0,0,.47.55h1.43a.6.6,0,0,0,.58-.55l1.93-10.89a7,7,0,0,1,3.33-1.08c1.4,0,1.9.67,1.9,1.75a4.49,4.49,0,0,1-.09.85l-1.66,9.37a.44.44,0,0,0,.47.55h1.43a.6.6,0,0,0,.58-.55Zm-16,9,2.31-13.13c.06-.32-.15-.5-.5-.56a26.23,26.23,0,0,0-4.7-.58c-3.3,0-4.93,1.61-5.49,4.67l-.93,5.25a7.53,7.53,0,0,0-.12,1.37c0,2.33,1.26,3.88,4,3.88a5.59,5.59,0,0,0,2.95-.93l0,.15c-.06.32.17.5.5.5h1.46c.32,0,.5-.29.55-.61m-.41-11.79-1.69,9.6a6.92,6.92,0,0,1-2.95.9,1.71,1.71,0,0,1-1.93-1.93,4.41,4.41,0,0,1,.09-.85l.93-5.25A3,3,0,0,1,103,98a12.39,12.39,0,0,1,2.42.29M94.43,99.62c0-2.36-1.31-3.85-4.17-3.85-3.65,0-5.66,2.33-6.36,6.6l-.21,1.22a11.89,11.89,0,0,0-.17,2c0,2.89,1.26,5.34,5,5.34a13.78,13.78,0,0,0,3.24-.52.62.62,0,0,0,.55-.58l.21-1.23c.06-.32-.12-.53-.44-.47a20,20,0,0,1-3.36.53c-2.22,0-2.83-1.49-2.83-3.15,0-.32,0-.67.06-1l2.51,0c4.29-.06,5.92-1.72,5.92-4.87m-2.33.2c0,1.81-1.2,2.68-3.59,2.71l-2.16,0,0-.15c.52-2.63,1.34-4.55,3.68-4.55a1.79,1.79,0,0,1,2,2M81.46,108.9c.06-.32-.12-.53-.47-.44a13.33,13.33,0,0,1-2.13.29,1.11,1.11,0,0,1-1.23-1.22,1.78,1.78,0,0,1,0-.27l3-16.77a.45.45,0,0,0-.47-.56H78.74a.6.6,0,0,0-.58.56l-2.89,16.23a5.85,5.85,0,0,0-.12,1.17,2.76,2.76,0,0,0,3,3.06,11,11,0,0,0,2.42-.32c.38-.09.58-.23.64-.55Z" transform="translate(-49.35 -46.51)"/></svg>