<?xml version="1.0" encoding="UTF-8" standalone="no"?>
<svg width="70px" height="18px" viewBox="0 0 70 18" version="1.1" xmlns="http://www.w3.org/2000/svg" xmlns:xlink="http://www.w3.org/1999/xlink">
    <!-- Generator: Sketch 48.1 (47250) - http://www.bohemiancoding.com/sketch -->
    <title>nave</title>
    <desc>Created with Sketch.</desc>
    <defs></defs>
    <g id="nave" stroke="none" stroke-width="1" fill="none" fill-rule="evenodd" transform="translate(-2.000000, -11.000000)">
        <path d="M2.364,28 L2.364,12.122 L5.254,11.986 L6.138,13.72 L9.266,12.496 C10.66,11.952 11.748,11.85 12.734,11.85 C15.692,11.85 17.664,13.414 17.664,15.794 L17.664,28 L13.686,28 L13.686,16.406 C13.686,14.672 13.074,13.72 11.918,13.72 C11.238,13.72 10.524,13.89 9.946,14.06 L6.308,15.216 L6.308,28 L2.364,28 Z M28.884,11.85 C33.44,11.85 35.922,13.448 35.922,16.44 L35.922,24.158 C35.922,25.076 36.228,26.47 36.432,27.15 L36.636,27.762 L33.134,28.17 L32.284,26.266 L29.326,27.558 C28.068,28.102 27.218,28.272 26.606,28.272 C23.206,28.272 20.758,26.3 20.758,23.58 C20.758,20.622 23.376,18.922 26.912,18.922 L31.944,18.922 L31.944,16.542 C31.944,14.604 30.856,13.55 28.884,13.55 C27.796,13.55 26.708,13.856 25.858,14.23 L22.9,15.556 L22.118,13.448 C23.41,12.802 25.926,11.85 28.884,11.85 Z M31.944,25.178 L31.944,20.622 L27.898,20.622 C25.858,20.622 24.702,21.71 24.702,23.682 C24.702,25.416 25.552,26.368 27.116,26.368 C27.388,26.368 28,26.266 28.374,26.164 L31.944,25.178 Z M38.472,12.122 L42.552,11.85 L47.618,24.566 L47.822,24.566 L48.57,22.628 C50.678,17.086 51.63,13.244 51.63,11.85 L54.622,12.122 L48.23,28.17 C47.822,28.102 47.074,28 46.19,28 L44.728,28 L38.472,12.122 Z M59.858,18.072 L67.712,18.004 C67.644,15.114 66.284,13.55 63.836,13.55 C61.626,13.55 60.232,15.114 59.858,18.072 Z M59.756,19.772 L59.756,19.908 C59.756,24.6 61.014,26.572 64.448,26.572 C65.264,26.572 66.522,26.164 67.27,25.79 L70.432,24.226 L71.316,26.334 C70.398,26.776 66.896,28.272 64.176,28.272 C59.076,28.272 55.642,24.974 55.642,20.01 C55.642,15.114 59.008,11.85 64.04,11.85 C68.63,11.85 71.69,14.468 71.69,18.412 L71.69,20.01 L59.756,19.772 Z" fill="#F26954"></path>
    </g>
</svg>