<svg id="Layer_1" data-name="Layer 1" xmlns="http://www.w3.org/2000/svg" xmlns:xlink="http://www.w3.org/1999/xlink" viewBox="0 0 175.01 191.1"><defs><style>.cls-1{fill:none;}.cls-2{fill:url(#Unbenannter_Verlauf_2);}.cls-3{fill:url(#Unbenannter_Verlauf_3);}.cls-4{fill:url(#Unbenannter_Verlauf_4);}.cls-5{fill:url(#Unbenannter_Verlauf_5);}.cls-6{fill:url(#Unbenannter_Verlauf_6);}.cls-7{fill:url(#Unbenannter_Verlauf_7);}.cls-11,.cls-13,.cls-27,.cls-28,.cls-29,.cls-8,.cls-9{isolation:isolate;}.cls-11,.cls-27,.cls-28,.cls-9{font-size:23.53px;}.cls-11,.cls-13,.cls-9{fill:#1a171b;}.cls-27,.cls-9{font-family:PTSans-Regular, PT Sans;letter-spacing:-0.06em;}.cls-10{letter-spacing:0em;}.cls-11,.cls-28{font-family:PTSans-Bold, PT Sans;font-weight:700;}.cls-12{letter-spacing:-0.02em;}.cls-13,.cls-29{font-size:13.17px;font-family:PTSans-Narrow, PT Sans Narrow;}.cls-14{letter-spacing:-0.03em;}.cls-15{fill:url(#Unbenannter_Verlauf_28);}.cls-16{fill:url(#Unbenannter_Verlauf_27);}.cls-17{fill:url(#Unbenannter_Verlauf_26);}.cls-18{fill:url(#Unbenannter_Verlauf_25);}.cls-19{fill:url(#Unbenannter_Verlauf_24);}.cls-20{fill:url(#Unbenannter_Verlauf_23);}.cls-21{fill:url(#Unbenannter_Verlauf_2-2);}.cls-22{fill:url(#Unbenannter_Verlauf_3-2);}.cls-23{fill:url(#Unbenannter_Verlauf_4-2);}.cls-24{fill:url(#Unbenannter_Verlauf_5-2);}.cls-25{fill:url(#Unbenannter_Verlauf_6-2);}.cls-26{fill:url(#Unbenannter_Verlauf_7-2);}.cls-27,.cls-28,.cls-29{fill:#d5d5d5;}</style><linearGradient id="Unbenannter_Verlauf_2" x1="36.53" y1="631.74" x2="4.61" y2="627.34" gradientTransform="matrix(1, 0, 0, -1, 0, 663.61)" gradientUnits="userSpaceOnUse"><stop offset="0" stop-color="#e85f2e"/><stop offset="1" stop-color="#fac81e"/></linearGradient><linearGradient id="Unbenannter_Verlauf_3" x1="227.54" y1="287.35" x2="227.08" y2="269.43" gradientTransform="matrix(-0.5, -0.87, -0.87, 0.5, 365.1, 94.65)" gradientUnits="userSpaceOnUse"><stop offset="0" stop-color="#fff" stop-opacity="0.5"/><stop offset="1" stop-color="#fff" stop-opacity="0"/></linearGradient><linearGradient id="Unbenannter_Verlauf_4" x1="20.05" y1="7.28" x2="-11.89" y2="2.88" gradientTransform="matrix(-0.5, -0.87, -0.87, 0.5, 37.38, 20.24)" xlink:href="#Unbenannter_Verlauf_2"/><linearGradient id="Unbenannter_Verlauf_5" x1="-304.47" y1="613.97" x2="-304.93" y2="596.07" gradientTransform="matrix(-0.5, 0.87, 0.87, 0.5, -637.76, -11.96)" xlink:href="#Unbenannter_Verlauf_3"/><linearGradient id="Unbenannter_Verlauf_6" x1="-512" y1="333.9" x2="-543.94" y2="329.5" gradientTransform="matrix(-0.5, 0.87, 0.87, 0.5, -538.35, 309.07)" xlink:href="#Unbenannter_Verlauf_2"/><linearGradient id="Unbenannter_Verlauf_7" x1="244.08" y1="911.76" x2="243.61" y2="893.84" gradientTransform="matrix(1, 0, 0, -1, -228.31, 910.22)" xlink:href="#Unbenannter_Verlauf_3"/><linearGradient id="Unbenannter_Verlauf_28" x1="36.53" y1="556.75" x2="4.61" y2="552.35" gradientTransform="matrix(1, 0, 0, -1, 0, 663.61)" gradientUnits="userSpaceOnUse"><stop offset="0" stop-color="#838383"/><stop offset="1" stop-color="#c4c4c4"/></linearGradient><linearGradient id="Unbenannter_Verlauf_27" x1="162.6" y1="324.85" x2="162.13" y2="306.92" xlink:href="#Unbenannter_Verlauf_3"/><linearGradient id="Unbenannter_Verlauf_26" x1="-44.9" y1="44.78" x2="-76.84" y2="40.38" gradientTransform="matrix(-0.5, -0.87, -0.87, 0.5, 37.38, 20.24)" xlink:href="#Unbenannter_Verlauf_28"/><linearGradient id="Unbenannter_Verlauf_25" x1="-239.52" y1="651.47" x2="-239.98" y2="633.57" gradientTransform="matrix(-0.5, 0.87, 0.87, 0.5, -637.76, -11.96)" xlink:href="#Unbenannter_Verlauf_3"/><linearGradient id="Unbenannter_Verlauf_24" x1="-447.05" y1="371.4" x2="-478.99" y2="367" gradientTransform="matrix(-0.5, 0.87, 0.87, 0.5, -538.35, 309.07)" xlink:href="#Unbenannter_Verlauf_28"/><linearGradient id="Unbenannter_Verlauf_23" x1="244.08" y1="836.76" x2="243.61" y2="818.85" gradientTransform="matrix(1, 0, 0, -1, -228.31, 910.22)" xlink:href="#Unbenannter_Verlauf_3"/><linearGradient id="Unbenannter_Verlauf_2-2" x1="36.53" y1="481.75" x2="4.61" y2="477.35" xlink:href="#Unbenannter_Verlauf_2"/><linearGradient id="Unbenannter_Verlauf_3-2" x1="97.65" y1="362.35" x2="97.19" y2="344.42" xlink:href="#Unbenannter_Verlauf_3"/><linearGradient id="Unbenannter_Verlauf_4-2" x1="-109.85" y1="82.28" x2="-141.78" y2="77.88" gradientTransform="matrix(-0.5, -0.87, -0.87, 0.5, 37.38, 20.24)" xlink:href="#Unbenannter_Verlauf_2"/><linearGradient id="Unbenannter_Verlauf_5-2" x1="-174.57" y1="688.97" x2="-175.04" y2="671.06" gradientTransform="matrix(-0.5, 0.87, 0.87, 0.5, -637.76, -11.96)" xlink:href="#Unbenannter_Verlauf_3"/><linearGradient id="Unbenannter_Verlauf_6-2" x1="-382.1" y1="408.9" x2="-414.04" y2="404.5" gradientTransform="matrix(-0.5, 0.87, 0.87, 0.5, -538.35, 309.07)" xlink:href="#Unbenannter_Verlauf_2"/><linearGradient id="Unbenannter_Verlauf_7-2" x1="244.08" y1="761.77" x2="243.61" y2="743.86" gradientTransform="matrix(1, 0, 0, -1, -228.31, 910.22)" xlink:href="#Unbenannter_Verlauf_3"/></defs><title>logos_klein</title><path class="cls-1" d="M30.38,25a142.49,142.49,0,0,1-12.24-9.57A152.1,152.1,0,0,1,16,30.81,141,141,0,0,1,30.38,25Z"/><path class="cls-2" d="M30.35,24.9c-4.51,1.38-9.62,3.78-14.4,5.82C8.53,33.91,2,36.28,0,32.6A6.38,6.38,0,0,0,.34,34c0,.05,0,.13.05.18a6.83,6.83,0,0,0,3.17,3.9,3.28,3.28,0,0,1,.38.25c.05,0,.08.05.13.05a11.18,11.18,0,0,0,3.22,1.26c.6.13,1.21.25,1.81.35h0a70,70,0,0,0,26.59-.35,11.54,11.54,0,0,0,4.41-2.06C42,34.11,36.75,29.66,30.35,24.9Z"/><path class="cls-3" d="M16,31C8.58,34.14,2.06,36.48.12,32.83l0,0a3.91,3.91,0,0,0,.1.53.59.59,0,0,0,.05.2.47.47,0,0,0,.05.18.74.74,0,0,1,.05.23c4.91,3.55,12.86,5.19,21.48,3.93a33.91,33.91,0,0,0,16-6.47,59.82,59.82,0,0,0-7.45-6.27C25.87,26.53,20.74,28.93,16,31Z"/><path class="cls-4" d="M18.07,15.36c3.45,3.2,8.08,6.45,12.24,9.54,6.47,4.83,11.78,9.37,9.57,12.86a8.5,8.5,0,0,0,1.11-1c.05-.05.08-.1.13-.13a6.91,6.91,0,0,0,1.79-4.68c0-.15,0-.3,0-.45v-.15a11.23,11.23,0,0,0-.53-3.42c-.2-.58-.4-1.16-.6-1.76v0A69.48,69.48,0,0,0,28.19,3.3a11.17,11.17,0,0,0-4-2.77C20.21.68,19,7.45,18.07,15.36Z"/><path class="cls-5" d="M30.55,24.82C37,29.63,42.31,34,40.1,37.56c0,0-.1.15-.1.13l.5-.43c.05,0,.08-.08.13-.13s.05-.05.1-.1l.2-.2c.6-6-1.94-13.67-7.33-20.52A33.9,33.9,0,0,0,20,5.66a59.89,59.89,0,0,0-1.69,9.59C21.74,18.48,26.4,21.7,30.55,24.82Z"/><path class="cls-6" d="M16,30.76a152.1,152.1,0,0,0,2.14-15.38C19,7.35,20.28.5,24.44.65A7.41,7.41,0,0,0,23.05.2c-.05,0-.13,0-.18-.05a7,7,0,0,0-5,.78c-.13.08-.28.13-.4.2l-.13.08a11.81,11.81,0,0,0-2.72,2.17L13.46,4.76h0A70.59,70.59,0,0,0,.49,28a11.75,11.75,0,0,0-.4,4.86C2.18,36.28,8.65,33.91,16,30.76Z"/><path class="cls-7" d="M18,15.28C18.92,7.27,20.16.45,24.29.6c0,0-.3-.13-.48-.18a.47.47,0,0,0-.18-.05.64.64,0,0,0-.18-.05A.89.89,0,0,0,23.2.28C17.69,2.77,12.3,8.81,9.08,16.89A34,34,0,0,0,6.66,34a61,61,0,0,0,9.16-3.32C16.88,26.08,17.36,20.44,18,15.28Z"/><g class="cls-8"><text class="cls-9" transform="translate(50.62 20.36)">L<tspan class="cls-10" x="10.78" y="0">ean</tspan></text><text class="cls-11" transform="translate(99.28 20.36)"><tspan class="cls-12">K</tspan><tspan x="14.12" y="0">anban</tspan></text></g><text class="cls-13" transform="translate(51.59 37.04)"><tspan class="cls-14">C</tspan><tspan x="5.66" y="0">entral Europe</tspan></text><path class="cls-1" d="M30.38,100a142.49,142.49,0,0,1-12.24-9.57A152.1,152.1,0,0,1,16,105.81,141,141,0,0,1,30.38,100Z"/><path class="cls-15" d="M30.35,99.89c-4.51,1.38-9.62,3.78-14.4,5.82C8.53,108.9,2,111.27,0,107.59A6.38,6.38,0,0,0,.34,109c0,.05,0,.13.05.18a6.83,6.83,0,0,0,3.17,3.9,3.28,3.28,0,0,1,.38.25c.05,0,.08.05.13.05a11.18,11.18,0,0,0,3.22,1.26c.6.13,1.21.25,1.81.35h0a70,70,0,0,0,26.59-.35,11.54,11.54,0,0,0,4.41-2.06C42,109.11,36.75,104.65,30.35,99.89Z"/><path class="cls-16" d="M16,106c-7.4,3.17-13.92,5.51-15.86,1.86l0,0a3.91,3.91,0,0,0,.1.53.59.59,0,0,0,.05.2.47.47,0,0,0,.05.18.74.74,0,0,1,.05.23c4.91,3.55,12.86,5.19,21.48,3.93a33.91,33.91,0,0,0,16-6.47,59.82,59.82,0,0,0-7.45-6.27C25.87,101.53,20.74,103.92,16,106Z"/><path class="cls-17" d="M18.07,90.35c3.45,3.2,8.08,6.45,12.24,9.54,6.47,4.83,11.78,9.37,9.57,12.86a8.5,8.5,0,0,0,1.11-1c.05-.05.08-.1.13-.13a6.91,6.91,0,0,0,1.79-4.68c0-.15,0-.3,0-.45v-.15a11.23,11.23,0,0,0-.53-3.42c-.2-.58-.4-1.16-.6-1.76v0a69.48,69.48,0,0,0-13.6-22.83,11.17,11.17,0,0,0-4-2.77C20.21,75.67,19,82.44,18.07,90.35Z"/><path class="cls-18" d="M30.55,99.82C37,104.62,42.31,109,40.1,112.55c0,0-.1.15-.1.13l.5-.43c.05,0,.08-.08.13-.13s.05-.05.1-.1l.2-.2c.6-6-1.94-13.67-7.33-20.52A33.9,33.9,0,0,0,20,80.66a59.89,59.89,0,0,0-1.69,9.59C21.74,93.47,26.4,96.69,30.55,99.82Z"/><path class="cls-19" d="M16,105.76a152.1,152.1,0,0,0,2.14-15.38c1-8,2.19-14.88,6.34-14.73a7.41,7.41,0,0,0-1.38-.45c-.05,0-.13,0-.18-.05a7,7,0,0,0-5,.78c-.13.08-.28.13-.4.2l-.13.08a11.81,11.81,0,0,0-2.72,2.17l-1.21,1.38h0A70.59,70.59,0,0,0,.49,103a11.75,11.75,0,0,0-.4,4.86C2.18,111.27,8.65,108.9,16,105.76Z"/><path class="cls-20" d="M18,90.27c.93-8,2.17-14.83,6.29-14.68,0,0-.3-.13-.48-.18a.47.47,0,0,0-.18-.05.64.64,0,0,0-.18-.05.89.89,0,0,0-.25-.05C17.69,77.76,12.3,83.8,9.08,91.89A34,34,0,0,0,6.66,109a61,61,0,0,0,9.16-3.32C16.88,101.07,17.36,95.43,18,90.27Z"/><g class="cls-8"><text class="cls-9" transform="translate(50.62 95.35)">L<tspan class="cls-10" x="10.78" y="0">ean</tspan></text><text class="cls-11" transform="translate(99.28 95.35)"><tspan class="cls-12">K</tspan><tspan x="14.12" y="0">anban</tspan></text></g><text class="cls-13" transform="translate(51.59 112.04)"><tspan class="cls-14">C</tspan><tspan x="5.66" y="0">entral Europe</tspan></text><path class="cls-1" d="M30.38,175a142.49,142.49,0,0,1-12.24-9.57A152.1,152.1,0,0,1,16,180.8,141,141,0,0,1,30.38,175Z"/><path class="cls-21" d="M30.35,174.89c-4.51,1.38-9.62,3.78-14.4,5.82C8.53,183.9,2,186.26,0,182.59A6.38,6.38,0,0,0,.34,184c0,.05,0,.13.05.18a6.83,6.83,0,0,0,3.17,3.9,3.28,3.28,0,0,1,.38.25c.05,0,.08.05.13.05a11.18,11.18,0,0,0,3.22,1.26c.6.13,1.21.25,1.81.35h0a70,70,0,0,0,26.59-.35,11.54,11.54,0,0,0,4.41-2.06C42,184.1,36.75,179.64,30.35,174.89Z"/><path class="cls-22" d="M16,181c-7.4,3.17-13.92,5.51-15.86,1.86l0,0a3.91,3.91,0,0,0,.1.53.59.59,0,0,0,.05.2.47.47,0,0,0,.05.18.74.74,0,0,1,.05.23c4.91,3.55,12.86,5.19,21.48,3.93a33.91,33.91,0,0,0,16-6.47,59.82,59.82,0,0,0-7.45-6.27C25.87,176.52,20.74,178.91,16,181Z"/><path class="cls-23" d="M18.07,165.34c3.45,3.2,8.08,6.45,12.24,9.54,6.47,4.83,11.78,9.37,9.57,12.86a8.5,8.5,0,0,0,1.11-1c.05-.05.08-.1.13-.13a6.91,6.91,0,0,0,1.79-4.68c0-.15,0-.3,0-.45v-.15a11.23,11.23,0,0,0-.53-3.42c-.2-.58-.4-1.16-.6-1.76v0a69.48,69.48,0,0,0-13.6-22.83,11.17,11.17,0,0,0-4-2.77C20.21,150.67,19,157.44,18.07,165.34Z"/><path class="cls-24" d="M30.55,174.81C37,179.62,42.31,184,40.1,187.55c0,0-.1.15-.1.13l.5-.43c.05,0,.08-.08.13-.13s.05-.05.1-.1l.2-.2c.6-6-1.94-13.67-7.33-20.52A33.9,33.9,0,0,0,20,155.65a59.89,59.89,0,0,0-1.69,9.59C21.74,168.47,26.4,171.69,30.55,174.81Z"/><path class="cls-25" d="M16,180.75a152.1,152.1,0,0,0,2.14-15.38c1-8,2.19-14.88,6.34-14.73a7.41,7.41,0,0,0-1.38-.45c-.05,0-.13,0-.18-.05a7,7,0,0,0-5,.78c-.13.08-.28.13-.4.2l-.13.08a11.81,11.81,0,0,0-2.72,2.17l-1.21,1.38h0A70.59,70.59,0,0,0,.49,178a11.75,11.75,0,0,0-.4,4.86C2.18,186.26,8.65,183.9,16,180.75Z"/><path class="cls-26" d="M18,165.27c.93-8,2.17-14.83,6.29-14.68,0,0-.3-.13-.48-.18a.47.47,0,0,0-.18-.05.64.64,0,0,0-.18-.05.89.89,0,0,0-.25-.05c-5.51,2.49-10.9,8.53-14.12,16.62A34,34,0,0,0,6.66,184a61,61,0,0,0,9.16-3.32C16.88,176.07,17.36,170.43,18,165.27Z"/><g class="cls-8"><text class="cls-27" transform="translate(50.62 170.34)">L<tspan class="cls-10" x="10.78" y="0">ean</tspan></text><text class="cls-28" transform="translate(99.28 170.34)"><tspan class="cls-12">K</tspan><tspan x="14.12" y="0">anban</tspan></text></g><text class="cls-29" transform="translate(51.59 187.03)"><tspan class="cls-14">C</tspan><tspan x="5.66" y="0">entral Europe</tspan></text></svg>