<?xml version="1.0" encoding="utf-8"?>
<!-- Generator: Adobe Illustrator 21.1.0, SVG Export Plug-In . SVG Version: 6.00 Build 0)  -->
<svg version="1.1" id="Layer_1" xmlns="http://www.w3.org/2000/svg" xmlns:xlink="http://www.w3.org/1999/xlink" x="0px" y="0px"
	 viewBox="0 0 700 736" style="enable-background:new 0 0 700 736;" xml:space="preserve">
<style type="text/css">
	.st0{fill:none;}
	.st1{fill:url(#SVGID_1_);}
	.st2{fill:url(#SVGID_2_);}
	.st3{fill:url(#SVGID_3_);}
	.st4{fill:url(#SVGID_4_);}
	.st5{fill:url(#SVGID_5_);}
	.st6{fill:url(#SVGID_6_);}
	.st7{fill:url(#SVGID_7_);}
	.st8{fill:url(#SVGID_8_);}
	.st9{fill:url(#SVGID_9_);}
	.st10{fill:url(#SVGID_10_);}
	.st11{fill:url(#SVGID_11_);}
	.st12{fill:url(#SVGID_12_);}
	.st13{fill:url(#SVGID_13_);}
	.st14{fill:url(#SVGID_14_);}
	.st15{fill:#CCCCCC;}
	.st16{fill:url(#SVGID_15_);}
	.st17{fill:url(#SVGID_16_);}
	.st18{fill:url(#SVGID_17_);}
	.st19{fill:url(#SVGID_18_);}
	.st20{fill:url(#SVGID_19_);}
	.st21{fill:url(#SVGID_20_);}
	.st22{fill:url(#SVGID_21_);}
</style>
<g>
	<path d="M361.1,186.6c-0.7,0.8-1.7,1.2-3.1,1.2h-4.9c-0.1,1.2-0.1,2.5-0.1,3.8c0,1.3,0,2.5,0,3.8c-0.1,1.5-0.1,2.9-0.1,4.4
		c0,1.4-0.1,2.8-0.2,4c-0.4,3.2-1.7,4.8-3.9,5c-0.9,0-1.7-0.4-2.7-1.1c-0.9-0.7-1.7-1.8-2.3-3.3c-0.2-0.6-0.3-1.3-0.3-2.4
		c0-0.7,0-1.3,0.1-1.9c0.1-0.6,0.3-1.2,0.6-1.7c0-1.8,0-3.5,0-5.1c0-1.6,0.1-3.4,0.2-5.5c-2,0-3.9,0-5.9,0s-3.8,0.1-5.7,0.1
		c-1.6,0.1-3.1,0.1-4.7,0.1c-1.5,0-2.9,0-4.3,0h-2.6c-0.1,0.9-0.1,1.6-0.2,2.2s-0.1,1.3-0.2,1.9c-0.1,1.2-0.2,2.2-0.3,3.2
		s-0.1,2.1-0.1,3.4v0.1c0.2,0.5,0.5,1,0.7,1.5c0.2,0.5,0.4,1.1,0.5,1.7v0.8c0,1-0.3,1.9-0.8,2.6c-0.5,0.7-1.1,1.2-1.8,1.5
		c-0.7,0.3-1.4,0.5-2.1,0.5c-0.9,0-1.8-0.3-2.6-0.9c-0.8-0.6-1.4-1.5-1.8-2.7v0.1c-0.3-0.7-0.5-1.5-0.6-2.4
		c-0.1-0.9-0.2-1.9-0.2-2.8c0-1.2,0.1-2.5,0.2-3.9c0.1-1.4,0.3-2.9,0.5-4.4c0-0.3,0-0.7,0.1-1.1c0.1-0.4,0.1-0.8,0.2-1.3h-2.2
		c-0.7,0-1.3,0-1.8,0c-0.5,0-0.9-0.1-1.2-0.1c-1.5-0.1-2.7-0.5-3.4-1.2c-0.7-0.7-1.1-1.6-1.1-2.6c0-0.9,0.3-1.8,1-2.7
		c0.7-0.9,1.7-1.5,3-2c0.6-0.2,1.2-0.4,1.9-0.4c0.8,0,1.5,0.1,2,0.4l-0.1-0.1c0.9,0.1,1.8,0.2,2.6,0.3c0.2-1.8,0.4-3.8,0.6-6.1
		c0.2-2.3,0.5-4.6,0.7-7.1c0.2-2.4,0.4-4.8,0.6-7.1c0.2-2.4,0.2-4.5,0.2-6.5v-2.1c0-1.5,0.4-2.7,1.3-3.4c0.9-0.8,1.9-1.1,3-1.1h0.2
		c0.9,0,1.7,0.3,2.5,1c0.8,0.6,1.5,1.6,2,2.8c0.1,0.2,0.1,0.3,0.1,0.2c0,0,0,0.4,0,1.4c0,0.4,0,0.8-0.1,1.2
		c-0.1,0.4-0.3,0.8-0.6,1.2v0.9c0,2.1-0.1,4.7-0.4,8c-0.3,3.2-0.6,6.5-0.9,9.8c-0.1,1.3-0.2,2.5-0.4,3.8c-0.1,1.2-0.2,2.4-0.4,3.5
		c1.5,0,3.1,0,4.9,0c1.7,0,3.5,0,5.3-0.1c2.1-0.1,4.2-0.1,6.2-0.1c2.1,0,4.1,0,6.1,0c0.1-2,0.2-4.2,0.3-6.6c0.1-2.4,0.2-4.8,0.3-7.1
		c0.1-2.4,0.1-4.7,0.2-6.9c0.1-2.2,0.1-4.2,0.1-5.8c0-0.7,0-1.3,0-1.9c0-0.7,0-1.3-0.1-1.7c-0.1-0.1-0.1-0.2-0.1-0.2
		c0,0-0.1-0.1-0.1-0.2c-0.2-0.2-0.4-0.5-0.6-1v0.1c-0.2-0.4-0.3-0.9-0.4-1.4c-0.1-0.5-0.1-1-0.1-1.5c0-0.3,0-0.6,0-0.8
		c0-0.3,0-0.6,0.1-0.8c0.3-1,0.9-1.8,1.8-2.4c0.9-0.6,1.9-0.9,2.9-0.9c1.4,0,2.6,0.7,3.6,2c0.5,0.9,0.8,1.8,1,2.8
		c0.2,1,0.3,2,0.3,3.1c0.1,0.5,0.1,1.1,0.1,1.7c0,0.7,0,1.5,0,2.4c0,1.8,0,3.8-0.1,6.1c-0.1,2.3-0.1,4.6-0.2,7s-0.1,4.8-0.2,7.1
		c-0.1,2.3-0.1,4.4-0.2,6.2c0,0.5,0,0.8-0.1,1h4.8c1.4,0,2.4,0.4,3.1,1.2c0.7,0.8,1,1.8,1,2.8C362.1,184.9,361.8,185.8,361.1,186.6z
		"/>
	<path d="M417.5,195.8c0,0.7-0.2,1.4-0.6,2.1c-0.4,0.7-0.9,1.2-1.6,1.6c-2.1,1.1-4.4,2.1-7.1,3.1c-2.6,0.9-5.1,1.5-7.3,1.8
		c-0.4,0.1-0.9,0.1-1.3,0.1c-0.4,0-0.8,0-1.1,0c-2,0-3.6-0.3-4.8-1c-1.2-0.6-2.3-1.7-3.3-3.1v0.1c-0.4-0.6-0.8-1.5-1.2-2.6
		c-0.4-1.1-0.5-2.2-0.5-3.1c-0.2,0-0.4,0.1-0.6,0.3c-0.8,0.5-1.8,1.2-3,2.2c-1.2,1-2.5,2.1-3.8,3.3c-0.9,0.7-1.7,1.3-2.4,2
		s-1.5,1.3-2.2,1.9c-2.6,1.9-5.1,2.8-7.3,2.8c-1.9,0-3.5-0.6-4.9-1.7c-1.7-1.5-2.6-3.7-2.6-6.7c0.1-2.8,0.8-5.3,2.1-7.8
		c0.9-1.8,2-3.6,3.3-5.3c1.3-1.7,2.7-3.3,4.2-4.8s2.9-2.9,4.4-4.1c1.5-1.2,2.9-2.3,4.2-3.1c1.5-0.9,3.2-1.9,5.2-3
		c2-1.1,4.2-1.6,6.4-1.6c1.2,0,2.5,0.2,3.7,0.7c1.3,0.5,2.5,1.2,3.8,2.2c0.6,0.5,1,1,1.3,1.6c0.2,0.6,0.4,1.1,0.4,1.6
		c0,0.8-0.2,1.5-0.5,2.1c-0.4,0.7-1,1.2-1.7,1.6c-0.7,0.4-1.5,0.6-2.3,0.6c-0.9,0-1.8-0.3-2.6-0.8c-0.4-0.4-0.9-0.6-1.4-0.8
		c-0.5-0.2-1.1-0.2-1.6-0.2c-1.7,0-3.7,0.8-6.1,2.4c-1.1,0.7-2.3,1.6-3.6,2.8c-1.3,1.1-2.6,2.3-3.8,3.6c-1.3,1.3-2.4,2.7-3.5,4.1
		c-1.1,1.4-1.9,2.8-2.5,4.1c-0.2,0.3-0.3,0.7-0.4,1.2c-0.1,0.5-0.1,1-0.1,1.4c0,0.4,0,0.7,0.1,0.7c0,0.1,0.1,0.2,0.2,0.2
		c0.4,0,0.9-0.3,1.6-0.8l1.1-0.8c1-0.8,2.1-1.7,3.3-2.8c1.2-1.1,2.5-2.1,3.8-3.2c1.3-1,2.6-2,3.8-3c1.3-0.9,2.4-1.7,3.3-2.3v0.1
		c1.6-1,3.1-1.5,4.6-1.5c1.2,0,2.2,0.4,3,1.1c0.8,0.7,1.2,1.9,1.2,3.4v1.4c0,0.9,0,1.6,0.1,2.3c0.1,0.7,0.2,1.2,0.4,1.6
		c0.3,0.9,0.7,1.4,1.1,1.7c0.4,0.3,1,0.5,1.7,0.5h0.4c0.7-0.1,1.6-0.3,2.6-0.6c1-0.2,2-0.5,3-0.9c1-0.3,2-0.7,2.9-1.1
		c0.9-0.4,1.8-0.7,2.4-1.1c0.7-0.4,1.4-0.6,2-0.6c1.2,0,2.2,0.5,3,1.5v0.1C417.2,194.1,417.5,194.9,417.5,195.8z"/>
	<path d="M496,198.5c-0.7,0.6-1.4,0.9-2.3,0.9c-0.3,0-0.6-0.1-0.8-0.2c0.1,0.1,0.1,0.2,0,0.1c-0.2-0.1-0.4-0.1-0.6-0.2
		c-0.4,0.1-1,0.3-1.7,0.4c-0.7,0.2-1.5,0.3-2.4,0.5c-0.9,0.2-1.7,0.4-2.7,0.6c-0.9,0.2-1.8,0.5-2.7,0.7c-2.2,0.9-4.3,1.3-6.2,1.3
		c-1.6,0-3.1-0.3-4.5-0.8c-1.4-0.5-2.7-1.5-3.8-2.8c-1.5-1.6-2.6-3.6-3.4-5.8c-0.8-2.2-1.6-4.6-2.2-7.2c-0.3-0.9-0.6-1.4-1-1.4
		c-0.9,0-2.4,0.8-4.5,2.3c-0.4,0.2-1,0.7-1.8,1.4c-0.8,0.7-1.7,1.5-2.7,2.5c-1,1-2,2-3,3.1c-1,1.1-2,2.2-2.9,3.3
		c-0.5,0.7-1.1,1.2-1.9,1.6c-0.8,0.4-1.6,0.6-2.4,0.6c-0.9,0-1.7-0.2-2.5-0.6c-0.8-0.4-1.4-1-1.8-1.8c-0.5-0.9-0.9-1.9-1.2-2.9
		c-0.3-1-0.7-2-1-2.9h0.1c-0.3-0.9-0.6-1.7-0.9-2.5c-0.3-0.8-0.6-1.6-1-2.5v0.1c-0.2-0.3-0.4-0.5-0.6-0.5c-0.1,0-0.2,0-0.3,0
		s-0.2,0-0.3,0c-0.8,0.2-1.6,0.8-2.6,1.9c-0.7,1-1.4,1.9-2.3,2.8c-0.9,0.9-1.7,1.9-2.7,2.9c-0.7,0.7-1.4,1.5-2,2.3
		c-1.2,1.3-2.2,2.6-3.2,3.9c-0.9,1.3-1.7,2.5-2.3,3.5c-0.5,0.8-1.1,1.4-1.9,1.7c-0.8,0.4-1.5,0.6-2.2,0.6c-0.4,0-0.7,0-1.1-0.1
		c-0.4-0.1-0.7-0.2-1-0.4h0.1c-1.8-0.9-2.7-2.3-2.8-4.4c-0.1-1.6-0.2-3.5-0.2-5.4c0-2,0-3.9,0-5.9c0-2.5,0-4.9,0-7.1
		c0-2.2,0.1-4,0.2-5.4c0.2-1.4,0.7-2.4,1.5-3.1c0.8-0.6,1.8-1,2.9-1h0.2c1,0,2,0.4,2.8,1.1c0.9,0.7,1.3,1.7,1.3,2.9v0.3
		c-0.1,1.7-0.2,3.5-0.3,5.4c-0.1,1.9-0.1,3.7-0.1,5.5v2c0.2-0.3,0.5-0.6,0.7-0.9s0.5-0.6,0.8-0.9c0.6-0.7,1.2-1.4,1.9-2.1
		c0.6-0.7,1.3-1.5,2-2.3l1.3-1.6c1.1-1.3,2.5-2.6,4.1-3.8c1.6-1.2,3.3-1.9,5-2.2c0.2-0.1,0.5-0.1,0.7-0.1c0.2,0,0.5,0,0.8,0
		c1.3,0,2.5,0.4,3.6,1.1c1.1,0.7,2.1,1.9,3,3.7c0.3,0.9,0.6,1.7,1,2.7c0.4,0.9,0.7,1.8,1,2.6c0.2,0.7,0.4,1.3,0.6,1.6
		c0.1,0.1,0.1,0.2,0,0.2l0.4-0.2c0.6-0.6,1.2-1.2,1.9-1.9c0.7-0.7,1.4-1.4,2.2-2.1c0.7-0.7,1.4-1.4,2.2-2c0.7-0.6,1.3-1.2,1.9-1.7
		c4.3-3.6,8.1-5.4,11.2-5.4h0.2c3.6,0,6,2.4,7.1,7.3c0.4,2.1,1,4.3,1.8,6.4c0.8,2.1,1.6,3.7,2.5,4.8c0.7,0.7,1.5,1.1,2.4,1.1
		c0.8,0,1.6-0.2,2.4-0.5c1.1-0.4,2.2-0.7,3.4-1.1c1.2-0.3,2.4-0.7,3.6-1c1.2-0.3,2.3-0.6,3.4-0.8c1.1-0.2,2-0.4,2.7-0.4h0.6
		c0.9,0,1.6,0.1,2.2,0.3c0.6,0.2,1.1,0.5,1.6,1V192c0.9,0.7,1.3,1.6,1.3,2.7c0,0.8-0.3,1.6-0.8,2.3v-0.1
		C497.2,197.4,496.6,198,496,198.5z"/>
	<path d="M526.8,180.5c0,2.8-0.8,5.6-2.5,8.6V189c-0.7,1.5-1.6,3.1-2.7,4.8c-1.1,1.6-2.3,3.2-3.7,4.7c-2.1,2.3-4.4,4.4-6.8,6.1
		c-2.5,1.7-5,3.5-7.7,5.2h0.1c-0.7,0.5-1.5,0.7-2.4,0.7c-1.3,0-2.4-0.8-3.5-2.4c-0.3-0.6-0.5-1.2-0.5-1.7c0-1.5,0.6-2.7,1.7-3.6
		c2.7-1.8,5.2-3.4,7.4-5c2.2-1.5,4-3.3,5.6-5.2c1-1.2,2-2.4,2.9-3.8c0.9-1.4,1.6-2.6,2.1-3.6c0.7-1.3,1-2.4,1-3.1
		c0-0.4-0.1-0.7-0.3-1.1c-0.4-0.4-1-0.5-1.9-0.5c-0.1,0-0.3,0-0.5,0c-0.2,0-0.4,0-0.7,0.1c-1.4,0.1-3.1,0.5-5.2,1.2
		c-2,0.7-4,1.6-6,2.8c-1,0.6-1.9,1.3-2.7,2.1c-0.8,0.8-1.5,1.6-1.9,2.4c-0.1,0.2-0.2,0.4-0.2,0.6c0,0.1-0.1,0.2-0.1,0.4l-0.3,0.7
		l0.1-0.1c-0.1,0.3-0.1,0.6-0.1,0.9c0,0.3,0,0.5,0,0.7c0,0.4,0,0.8,0,1.2c0,0.4,0.1,0.7,0.1,1.1v0.8c-0.1,1.4-0.6,2.5-1.3,3.2
		c-0.8,0.7-1.7,1.1-2.7,1.1c-0.9,0-1.7-0.3-2.6-0.9c-0.9-0.6-1.4-1.6-1.7-3c-0.3-1.3-0.5-2.8-0.6-4.5c-0.1-1.7-0.1-3.6-0.1-5.5
		c0-2.8,0.1-5.8,0.3-9c0.2-3.2,0.5-6.3,0.8-9.3c0.3-3,0.7-5.9,1.1-8.5c0.4-2.7,0.8-4.9,1.2-6.7c0.2-1,0.4-1.9,0.6-2.7
		c0.2-0.8,0.6-1.6,1.2-2.3c0.8-1.3,2-2,3.8-2h0.4c1,0,1.9,0.3,2.7,0.9c0.7,0.6,1.1,1.4,1.1,2.5v0.6c-0.1,0.6-0.2,1.1-0.5,1.6
		c-0.2,0.6-0.5,1-0.6,1.5c-0.2,0.5-0.4,0.8-0.4,0.8l0.1-0.1c-0.2,1.6-0.5,3.4-0.8,5.4s-0.6,4.1-0.9,6.4c-0.3,2.2-0.5,4.5-0.8,6.9
		c-0.2,2.4-0.5,4.8-0.6,7.1c0.6-0.5,1.1-0.9,1.8-1.3c0.6-0.4,1.3-0.8,1.9-1.1c1.7-0.9,3.7-1.8,6-2.6s4.7-1.3,7-1.6h-0.1
		c0.5-0.1,0.9-0.2,1.4-0.2c0.5,0,1,0,1.5,0c1.8,0,3.3,0.3,4.5,0.8c1.2,0.6,2.3,1.3,3.2,2.1h0.1C526.2,176.1,526.8,178.1,526.8,180.5
		z"/>
	<path d="M587.8,196c0,0.7-0.2,1.3-0.5,1.9c-0.3,0.6-0.9,1.2-1.6,1.6c-1.4,0.9-3.2,1.6-5.2,2.3s-4.3,1.3-6.6,1.7
		c-0.4,0.1-0.7,0.1-1.1,0.1c-0.4,0-0.7,0-1.1,0c-1.9,0-3.7-0.4-5.5-1.1c-1.7-0.7-3.1-1.8-4.1-3.3c-0.4-0.7-0.8-1.3-1.1-2
		c-0.3-0.6-0.5-1.4-0.6-2.2c-1.2,1.4-2.5,2.8-3.9,4c-1.4,1.3-2.8,2.4-4.2,3.2c-3.8,2.4-7.4,3.6-10.9,3.6c-1.3,0-2.4-0.1-3.4-0.3h0.1
		c-3.8-0.9-6.4-3.3-7.8-7.1c-0.4-1-0.7-2.2-0.9-3.5c-0.2-1.3-0.2-2.6-0.2-3.8c0-2.7,0.2-5.3,0.7-7.9c0.5-2.6,1-4.6,1.5-6
		c0.5-1.1,1.2-1.9,2-2.4c0.9-0.5,1.7-0.8,2.7-0.8c1,0,1.8,0.3,2.6,1c0.8,0.6,1.1,1.5,1.1,2.5c0,0.2,0,0.5,0,0.7
		c0,0.2-0.1,0.4-0.2,0.7l0.1-0.1c-0.6,1.8-1.1,3.7-1.5,5.9c-0.4,2.2-0.6,4.2-0.6,6.1c0,1.7,0.2,3.1,0.6,4.2c0.4,1.2,1.1,2,2.2,2.4
		c0.5,0.1,1,0.2,1.6,0.2c0.8,0,1.7-0.2,2.6-0.5c0.9-0.3,1.9-0.8,2.9-1.5c3.5-2.4,6.3-5,8.5-7.9c2.2-2.9,3.7-5.7,4.7-8.5
		c0.4-0.9,1-1.6,1.7-1.9c0.7-0.4,1.5-0.6,2.3-0.6c0.1,0,0.3,0,0.5,0c0.2,0,0.4,0.1,0.7,0.2l-0.1-0.1c0.9,0.2,1.6,0.6,2.2,1.2
		c0.6,0.6,1,1.4,1,2.3c0,0.1,0,0.2,0,0.4s0,0.3-0.1,0.6v-0.1c-0.7,2.9-1,5.3-1,7.3c0,0.9,0.1,1.7,0.2,2.5s0.3,1.4,0.5,1.9v-0.1
		c0.3,0.9,0.8,1.4,1.3,1.7c0.6,0.3,1.2,0.5,2,0.5c0.1,0,0.2,0,0.4,0c0.1,0,0.3,0,0.5,0c1.7-0.2,3.3-0.6,4.8-1.1
		c1.6-0.6,2.9-1.2,4.1-1.8c0.8-0.4,1.6-0.6,2.3-0.6c1.6,0,2.7,0.8,3.3,2.3C587.7,194.7,587.8,195.4,587.8,196z"/>
	<path d="M614.2,185.8c-0.3,0-0.6,0-1-0.1c-0.4-0.1-0.7-0.2-1-0.5h0.1c-0.9-0.4-1.5-0.6-1.9-0.6c-0.1,0-0.3,0-0.5,0
		c-0.2,0-0.3,0-0.5,0.1c-0.9,0.1-1.9,0.4-3.1,0.7c-1.2,0.4-2.5,0.8-3.8,1.4c-1.3,0.6-2.7,1.2-4,2c-1.4,0.7-2.6,1.5-3.8,2.2
		c-1.8,1.1-3,2.2-3.7,3.3c-0.5,0.8-0.8,1.5-0.9,2.2c-0.1,0.6-0.2,1.4-0.4,2.2v-0.1c-0.1,1.3-0.6,2.3-1.4,3c-0.8,0.6-1.7,1-2.8,1
		c-1,0-2-0.4-2.8-1.1c-0.8-0.7-1.3-1.8-1.3-3.2c-0.1-0.6-0.1-1.2-0.1-1.8c0-0.7,0-1.4,0-2.1v-4.2c0-1.4,0-2.7,0.1-4
		c0.1-1.2,0.2-2.4,0.3-3.3c-0.5-0.3-0.7-0.8-0.7-1.5c0-0.4,0.2-0.9,0.5-1.3c0.6-0.9,1-1.9,1.5-3v0.1c0.3-0.9,0.8-1.5,1.4-1.8
		c0.6-0.3,1.3-0.5,2.1-0.5c0.1,0,0.3,0,0.6,0.1s0.6,0.1,1,0.1c0.7,0.2,1.3,0.7,1.8,1.2c0.5,0.6,0.8,1.3,0.8,2.2c0,0.1,0,0.2,0,0.4
		c0,0.1,0,0.2,0,0.4c-0.2,0.7-0.3,1.6-0.5,2.7c-0.1,1.1-0.2,2.1-0.3,3c0.1-0.1,0.2-0.1,0.3-0.1c0.1,0,0.2-0.1,0.3-0.2
		c0.1-0.1,0.3-0.2,0.5-0.3c1.3-0.9,2.8-1.8,4.5-2.7c1.7-0.9,3.5-1.7,5.3-2.4c1.8-0.7,3.6-1.3,5.3-1.8c1.7-0.5,3.3-0.8,4.7-0.8h0.4
		c1.2,0,2.3,0.2,3.3,0.5c1,0.4,1.7,0.7,2.2,1.1c1,0.8,1.6,1.8,1.6,3c0,1-0.3,2-0.8,2.8h0.1C616.6,185.2,615.5,185.8,614.2,185.8z"/>
	<path d="M650.8,172.6c0.4,0.7,0.5,1.4,0.5,2.1c0,1.2-0.4,2.3-1.2,3.2c-0.8,0.9-1.8,1.3-2.8,1.3c-0.7,0-1.3-0.2-2-0.6h0.1
		c-0.4-0.2-1.1-0.4-1.9-0.4c-1,0-2.2,0.2-3.5,0.7c-1.3,0.5-2.7,1.1-4,1.8c-1.4,0.7-2.7,1.6-4.1,2.6c-1.3,1-2.6,2.1-3.7,3.2h0.1
		c-0.9,1-1.6,2.2-2.4,3.4c-0.7,1.2-1.2,2.3-1.3,3.2v0.5c0,0.3,0.1,0.5,0.3,0.5c0.4,0,0.9-0.2,1.6-0.6c0.9-0.5,1.8-1,2.8-1.6
		c1-0.6,2-1.2,3.1-1.7c1-0.5,2.1-1.1,3.1-1.5c1-0.5,2-0.8,2.9-1.1c0.3-0.1,0.6-0.2,1-0.2c0.4,0,0.8,0,1.2,0c1,0,2,0.2,2.8,0.6
		c0.9,0.4,1.5,1.2,2,2.2c0.2,0.5,0.5,1.3,0.8,2.3c0.3,1,0.5,2.2,0.7,3.6c0.2,1.4,0.4,2.9,0.5,4.5c0.2,1.7,0.2,3.3,0.2,5
		c0,1.7-0.1,3.4-0.2,5.1c-0.2,1.7-0.4,3.3-0.8,4.7c-0.9,3.9-2.4,7.5-4.5,10.9c-2.2,3.4-5.2,6.4-9,8.8l0.1-0.1
		c-0.8,0.5-1.6,0.7-2.3,0.7c-0.8,0-1.5-0.2-2.2-0.6c-0.7-0.4-1.2-0.9-1.6-1.4c-0.2-0.3-0.4-0.7-0.6-1.1c-0.2-0.4-0.2-0.8-0.2-1.2
		c0-1.3,0.7-2.5,2.1-3.6c3.1-1.9,5.3-4,6.8-6.5c1.5-2.4,2.5-5,3.1-7.8c0.3-1.4,0.5-2.7,0.6-3.8c0.1-1.1,0.1-2.2,0.1-3.3
		c0-1.4-0.1-2.8-0.2-4.1c-0.1-1.3-0.3-2.7-0.6-3.9c0-0.1,0-0.2,0-0.4c0-0.1,0-0.2,0-0.4c-0.1-0.5-0.2-0.7-0.6-0.7
		c-0.2,0-0.4,0.1-0.6,0.2c-0.9,0.4-1.9,0.9-3.2,1.6c-1.3,0.7-2.6,1.4-3.9,2.1c-0.6,0.4-1.1,0.7-1.7,1h0.1c-1.1,0.7-2.2,1.2-3.3,1.5
		c-1.1,0.3-2.1,0.4-3.1,0.4c-2.1,0-3.8-0.7-5-2c-1.2-1.3-1.8-3.2-1.8-5.7c0-2.9,0.7-5.6,2.2-8.3c1.5-2.6,3.2-5,5.1-7.2
		c1.3-1.3,2.7-2.7,4.4-4c1.6-1.3,3.4-2.5,5.2-3.5c1.9-1,3.8-1.8,5.7-2.4c2-0.6,3.9-0.9,5.8-0.9c1,0,1.9,0,2.9,0.1
		c0.9,0.1,1.8,0.4,2.7,1v-0.1C649.9,171.2,650.5,171.8,650.8,172.6z"/>
	<path d="M326.7,105.4c0,1-0.2,2-0.7,2.9c-0.4,1-1.3,1.8-2.5,2.5c-3.1,1.9-6.7,3.5-10.7,5c-4,1.4-8.2,2.6-12.5,3.6
		c-4.4,0.9-8.8,1.6-13.4,2.1s-8.9,0.7-13.1,0.7c-3.2-0.1-5.9-0.4-8.2-1.1c-2.2-0.6-4-1.7-5.4-3.2c-2.2-2.1-3.4-5.2-3.4-9.2
		c0-3.6,0.8-8,2.4-13.3c3.7-12.5,6.3-23.8,8-34c1.7-10.1,3-19,4-26.5c0.2-2,0.9-3.4,2.2-4.3s2.7-1.3,4.2-1.3c1.6,0,3,0.4,4.2,1.3
		c1.2,0.9,1.8,2.3,1.8,4.3v0.8c-0.8,9.4-2.2,19.4-4.2,30c-2,10.6-4.7,21.7-8,33.1c-0.4,1.5-0.8,2.8-1,4c-0.2,1.1-0.3,2.1-0.3,2.9
		c0,1.2,0.2,2.1,0.7,2.7c0.7,0.8,2.5,1.2,5.2,1.2c3.8-0.1,7.7-0.4,11.7-0.9c3.9-0.5,7.7-1.2,11.3-2.1c3.6-0.8,7-1.8,10-2.9
		c3.1-1.1,5.7-2.3,7.8-3.6c0.6-0.4,1.2-0.6,1.9-0.7c0.6-0.1,1.2-0.1,1.7-0.1c2.1,0,3.7,0.9,4.8,2.5l0.1,0.1
		C326.3,103.1,326.7,104.3,326.7,105.4z"/>
	<path d="M402,119.4c0,0.9-0.2,1.7-0.5,2.3c-0.3,0.7-0.7,1.3-1.1,1.8c-0.5,0.7-1.2,1.3-1.9,1.7c-0.8,0.4-1.6,0.7-2.6,0.7
		c-1.7,0-3.2-0.7-4.6-2.1c-1.2-1.5-3.7-3.2-7.2-5c-3.6-1.8-7.6-3.8-12.1-6c-3.7-1.8-7.5-3.6-11.3-5.6c-3.8-1.9-7.3-3.8-10.4-5.7
		c0,1,0,1.9-0.1,2.6c0,0.8-0.1,1.5-0.1,2.2c0,0.7,0,1.5-0.1,2.3c0,0.9-0.1,1.7-0.1,2.5c0.4,0.4,0.9,0.9,1.3,1.3
		c0.4,0.4,0.6,0.7,0.7,0.9h-0.1c0.2,0.5,0.3,0.8,0.3,1.1c0,0.2,0,0.4,0,0.5c0,1.7-0.5,3.1-1.6,4.3c-0.5,0.7-1.1,1.3-1.8,1.7
		c-0.7,0.4-1.5,0.6-2.5,0.6c-1.2,0-2.2-0.3-3.2-0.9c-1-0.5-2.1-1.4-3.2-2.7c-1.2-1.3-1.7-3-1.7-5.4V91.1c-1.2-2.2-1.9-4.9-1.9-7.9
		c0-2.9,0.8-5.4,2.5-7.6c0.1-2,0.2-4,0.3-6.2c0.1-2.1,0.2-4.3,0.4-6.6c0.2-3.7,0.3-7.2,0.5-10.5c0.1-3.4,0.2-6.4,0.2-9
		c0-2.3,0.7-4,2.1-4.9c1.4-0.9,3-1.4,4.7-1.4c1.9,0,3.3,0.6,4.3,1.7c1,1.1,1.6,2.6,1.9,4.4v0.9c0,1.3-0.3,2.9-0.9,4.7
		c0,1.5,0,3.2-0.1,5c-0.1,1.8-0.2,3.7-0.4,5.6c-0.2,1.5-0.3,3-0.4,4.6c-0.1,1.5-0.1,3-0.1,4.4c1.8-0.9,3.8-1.8,6.1-2.7
		c2.3-0.9,4.6-1.8,6.9-2.8c2.3-0.9,4.6-1.8,6.8-2.7c2.2-0.9,4.2-1.8,5.9-2.6c1.7-0.8,3.2-1.5,4.2-2.1s1.7-1.2,1.9-1.6
		c0.6-1.2,1.6-2.1,2.8-2.6c1.2-0.5,2.5-0.7,3.8-0.7c2,0,3.3,0.6,4.2,1.7c0.8,1.2,1.2,2.5,1.2,3.9c0,0.2,0,0.4-0.1,0.7
		c0,0.3-0.1,0.5-0.1,0.7c-0.3,1.7-0.9,3.1-2,4.1c-1.1,1-2,1.9-2.8,2.5c-0.2,0.1-0.4,0.3-0.7,0.5c-2.3,1.3-5.3,2.8-8.9,4.4
		c-3.6,1.6-7.3,3.1-11.1,4.6c-3.9,1.6-7.6,3.1-10.9,4.6c-3.4,1.4-5.8,2.8-7.4,4l-0.3,4.6c1.5,1.4,3.3,2.8,5.4,4.2
		c2.1,1.4,4.4,2.7,6.8,4c2.4,1.3,4.9,2.6,7.4,3.8c2.5,1.3,5.1,2.5,7.7,3.8c2.5,1.2,4.9,2.4,7.2,3.6c2.3,1.1,4.5,2.2,6.5,3.4
		c2,1.1,3.8,2.2,5.4,3.3s2.8,2.1,3.7,3.2v0.1C401.5,117,402,118.2,402,119.4z"/>
	<path d="M475.7,116.6c0,0.3,0.1,0.7,0.1,1.1c0,1.4-0.4,2.7-1.3,3.7c-0.9,1.1-2.2,1.8-4,2.3c-5.5,1.3-10.6,2.3-15.4,2.9
		c-4.8,0.6-9.4,0.9-13.7,0.9c-5.5,0-10.4-0.4-14.5-1.2c-5.8-1.2-10.3-2.9-13.3-5.2c-3.1-2.3-5.3-5.2-6.8-8.7
		c-0.8-1.7-1.4-3.5-1.7-5.4c-0.4-1.9-0.5-3.8-0.5-5.8c0-3.5,0.4-7.1,1.3-10.7c0.9-3.7,2.1-7.3,3.6-10.9c2-4.6,4.6-9.3,7.9-13.9
		c3.3-4.6,7-9,11-13.2c4-4.2,8.2-7.9,12.7-11.3c4.4-3.4,8.6-6.2,12.7-8.3c1.7-1,3.4-1.5,5-1.5c1.4,0,2.6,0.4,3.5,1.3
		c1.2,1.3,1.9,2.8,1.9,4.7c0,1.8-0.5,3.5-1.6,5.2h0.1c-1.5,2.6-3.6,3.9-6.2,3.9c-0.4,0-0.8,0-0.9-0.1c-3,1.8-6.3,4-9.8,6.8
		c-3.5,2.7-6.8,5.8-10,9.2c-3.2,3.4-6.2,7-8.8,10.9c-2.7,3.8-4.7,7.7-6,11.5c-0.9,2.6-1.7,5.2-2.3,8c-0.7,2.7-1,5.4-1,8
		c0,2.4,0.3,4.4,0.9,6c0.8,1.8,2.1,3.3,3.8,4.6c1.7,1.3,4.2,2.2,7.5,2.6c1.9,0.4,3.8,0.6,5.8,0.8c2,0.2,4,0.3,6.2,0.3
		c3.5,0,7.4-0.3,11.7-0.9c4.3-0.6,9.1-1.6,14.5-3c0.3-0.1,0.6-0.2,0.9-0.2c0.4,0,0.8-0.1,1.3-0.1c2.8,0,4.6,1.5,5.4,4.4l0.1,0.1
		C475.6,116,475.7,116.3,475.7,116.6z"/>
	<path d="M543.1,116.5c-2.6,1.5-5.5,2.8-8.6,4c-2.2,0.8-4.9,1.6-7.9,2.4c-3,0.8-6.2,1.5-9.4,2.2c-3.3,0.7-6.5,1.2-9.8,1.6
		c-3.3,0.4-6.3,0.6-9,0.6h-0.5c-2.3,0-4.4-0.5-6.4-1.4c-1.9-0.9-3.6-2.5-5-4.6v0.1c-1.2-1.8-2.1-3.9-2.7-6.4c-0.7-2.5-1-5.2-1-8.4
		c0-1.1,0.1-2.4,0.3-3.9c0.2-1.5,0.5-3.1,0.8-4.7c0.3-1.6,0.6-3.2,1-4.8c0.4-1.6,0.7-3,0.9-4.2c-0.5,0.1-1.1,0.1-1.7,0.1
		c-0.5,0-1.1,0-1.6,0c-0.6,0-1.2,0-1.6-0.1h-0.4c-2.1,0-3.6-0.5-4.8-1.6c-1.1-1.1-1.7-2.4-1.8-3.9c0-2.1,1.1-4.1,3.3-5.9H477
		c1.2-1.1,2.9-1.6,4.8-1.6c0.9,0,1.9,0.2,2.9,0.7c0.7-0.1,1.5-0.2,2.3-0.3c0.8-0.1,1.6-0.2,2.4-0.4c1.3-3.7,2.5-7.3,3.4-10.9
		c0.9-3.6,1.5-6.5,1.8-8.8c0-0.3,0-0.6,0.1-0.9c0-0.3,0.1-0.6,0.1-1v-0.9c-0.4,0.2-0.7,0.3-1,0.3c-0.3,0-0.6,0.1-0.7,0.2
		c-2.3,0.6-4.9,1.4-7.6,2.3l0.1-0.1c-0.6,0.4-1.4,0.5-2.4,0.5c-1.7,0-3-0.6-4-1.8c-1-1.2-1.5-2.6-1.5-4.1c0-1.2,0.3-2.3,1-3.5
		c0.7-1.2,1.8-2.1,3.3-2.7c4.3-1.7,8.7-3.1,13.3-4.1s9.2-1.8,13.7-2.4c4.5-0.6,8.9-1,13.3-1.1c4.3-0.2,8.4-0.3,12.1-0.3
		c1.7,0,3.3,0,4.8,0c1.5,0,3,0,4.4,0.1c2.1,0,3.6,0.6,4.7,1.8c1.1,1.2,1.6,2.5,1.6,3.8v0.8c-0.1,1.5-0.6,2.8-1.5,4
		c-0.9,1.1-2.3,1.7-4.1,1.7h-0.7c-1.5-0.1-3-0.1-4.4-0.1c-1.4,0-2.9,0-4.4,0c-4.7,0-9.4,0.2-14.1,0.5c-4.6,0.3-9.1,0.8-13.4,1.5
		c0.1,0.4,0.2,0.8,0.2,1.1c0,0.3,0.1,0.7,0.1,1.1c0,0.3,0,0.6-0.1,0.9c0,0.3-0.1,0.6-0.1,0.9c-0.2,2.9-0.7,5.9-1.5,9.2
		c-0.9,3.3-1.8,6.7-2.7,10c3.1-0.5,6.4-1.1,9.7-1.6c3.4-0.5,6.6-1.1,9.8-1.7s6.2-1.1,9-1.7c2.8-0.5,5.2-1,7.3-1.5l-0.1,0.1
		c0.4-0.2,0.7-0.3,0.8-0.3c0.2,0,0.4,0,0.5,0c1.4,0,2.6,0.5,3.5,1.4c0.9,0.9,1.5,2.1,1.7,3.4c0,0.1,0,0.2,0.1,0.5
		c0,0.2,0.1,0.4,0.1,0.6c0,1.2-0.4,2.5-1.1,3.7c-0.7,1.2-2,2.1-3.7,2.6c-2.1,0.5-4.8,1.1-8.3,1.8c-3.5,0.7-7.2,1.3-11.2,2
		c-4,0.7-7.9,1.3-11.9,2c-3.9,0.7-7.4,1.2-10.3,1.5c-1.2,3.4-2.1,6.7-2.7,10c-0.6,3.3-1,6.4-1.1,9.4v0.9c0,1.3,0.1,2.4,0.3,3.5
		c0.2,1.1,0.6,1.9,1.1,2.4c0.6,0.7,1.6,1.1,3.1,1.1h0.7c3.9-0.2,8.6-0.7,14-1.6c5.4-0.9,10.7-2.2,15.7-4c2.1-0.7,4-1.5,5.7-2.4
		c1.7-0.9,3.1-2.1,4.4-3.6c1.5-1.5,3-2.3,4.6-2.3c1.8,0,3.2,0.5,4.3,1.5h-0.1c1.4,1.2,2.1,2.8,2.1,4.8c0,0.7-0.1,1.4-0.2,2.1
		c-0.1,0.7-0.5,1.4-1.1,2.1v-0.1C548,113.1,545.8,115,543.1,116.5z"/>
	<path d="M586,55.6c0,0.8-0.2,1.5-0.6,2.2c-0.4,0.7-0.9,1.2-1.4,1.7c-0.4,0.2-0.9,0.4-1.3,0.5c-0.4,0.2-0.8,0.3-1.3,0.3
		c-1.4,0-2.6-0.8-3.6-2.3c-0.9-1.4-1.7-3.4-2.3-5.8c-0.6-2.5-0.9-4.9-0.9-7.3c0-1.2,0.1-2.5,0.3-3.7c0.2-1.2,0.5-2.2,0.9-3
		c1.2-1.9,2.5-2.8,4.2-2.8c0.7,0,1.3,0.1,1.9,0.4c0.8,0.5,1.5,1.1,2.1,1.9c0.6,0.8,0.9,1.8,0.9,3.1c0,1.2-0.1,2-0.4,2.6
		c-0.3,0.6-0.6,1.1-1.1,1.7v0.7c0,1.3,0.2,2.6,0.5,4s0.7,2.6,1.3,3.6V53C585.7,53.7,586,54.5,586,55.6z"/>
	<path d="M623,113.7c-0.9,1.2-2.3,1.9-4.2,2.1c-0.4,0.1-0.9,0.1-1.3,0.1c-0.4,0-0.8,0-1.2,0h-2.1c-0.8,1.2-2,1.7-3.5,1.7
		c-1.3,0-2.3-0.4-3.1-1.2c-0.1,0.1-0.3,0.1-0.7,0.1c-0.4,0-0.9,0-1.2,0.1c-1.1,0.8-2.2,1.2-3.5,1.2h-0.7c-3-0.4-5-2-5.9-4.8l0.1,0.1
		c-0.4-0.7-0.5-1.6-0.5-2.5c0-1.2,0.3-2.2,0.9-3.1c0.6-0.9,1.7-1.6,3.1-2.1c0.8-0.4,1.7-0.6,2.7-0.8s2-0.3,2.9-0.4
		c0-2.8,0.1-5.9,0.3-9.5c0.2-3.6,0.5-7.1,0.7-10.7c0.3-3.6,0.6-7,0.9-10.2c0.4-3.2,0.7-5.9,0.9-8c-0.6,0.4-1.3,0.7-2,1.1
		c-0.7,0.4-1.4,0.7-2.1,0.9c-0.2,0-0.3,0-0.3,0.1c0,0-0.2,0.1-0.3,0.1c-1,0-1.9-0.3-2.7-0.9c-0.8-0.6-1.4-1.3-1.9-2.1
		c-0.5-0.9-0.8-2-0.8-3.2c0-2.1,1.1-3.7,3.2-4.8h-0.1c0.5-0.4,1.3-0.8,2.3-1.3c1-0.5,2-1.2,3.1-1.9c0.8-0.5,1.6-1,2.3-1.5
		c0.8-0.4,1.4-0.9,1.8-1.2c1.1-0.8,2.3-1.2,3.6-1.2c1.8,0,3.4,0.7,4.7,2c1.3,1.3,2,2.9,2,4.7v0.7c-0.4,3-0.7,6.6-1.1,10.7
		c-0.4,4.1-0.8,8.3-1.2,12.6c-0.4,4.3-0.8,8.5-1.1,12.5c-0.4,4.1-0.6,7.6-0.8,10.5c1.2,0,2.3,0.1,3.2,0.3c0.9,0.2,1.7,0.6,2.4,1
		h-0.1c1.7,0.9,2.5,2.5,2.5,4.7C624.3,111.2,623.9,112.6,623,113.7z"/>
	<path d="M700,59.7c0,2-0.8,3.9-2.4,5.9v-0.1c-3.6,4.4-7.4,9.6-11.5,15.6c-4.1,6-8,12.3-11.7,18.7c-3.7,6.4-7,12.8-10,19
		c-2.9,6.2-5.1,11.7-6.4,16.5c0.2,0.6,0.3,1.2,0.4,1.7c0.1,0.5,0.1,1,0.1,1.4c0,1.4-0.3,2.8-0.9,4c-0.7,1.2-1.7,2.2-2.8,2.7
		c-1.2,0.6-2.3,0.9-3.5,0.9c-0.7,0-1.4-0.1-2.1-0.3c-1.2-0.4-2.3-1.3-3.3-2.5c-0.9-1.3-1.4-2.8-1.4-4.6c0-0.4,0-0.9,0.1-1.5
		c0-0.5,0.1-1,0.2-1.5c1.7-6.1,4-12.3,6.9-18.8s6.1-12.7,9.5-18.9c3.4-6.2,7-12,10.7-17.6c3.7-5.5,7.1-10.5,10.3-14.7l-0.1,0.1
		c0.2-0.3,0.4-0.6,0.7-1.1h-3.4c-2.3-0.1-4.6-0.2-6.7-0.2c-2.1,0-4.4-0.1-6.7-0.1c-2.6,0-5.3,0.1-8.2,0.2c-2.9,0.1-6.1,0.3-9.8,0.6
		c-1,0.6-1.9,1.1-2.9,1.3c-0.9,0.2-1.9,0.3-2.9,0.3h-0.8c-1.7,0-3.2-0.5-4.6-1.5c-1.4-1-2.4-2.3-3-3.7c-0.2-0.3-0.3-0.6-0.4-1
		c-0.1-0.4-0.1-0.8-0.1-1.3c0-1.3,0.5-2.6,1.5-3.7c1-1.1,2.7-1.9,5.1-2.3c2.9-0.4,6.5-0.6,10.9-0.8c4.4-0.2,9-0.3,13.9-0.3
		c4.8,0,9.6,0,14.3,0.1c4.7,0,8.9,0.2,12.6,0.5c2.2,0.1,4,0.5,5.2,1.3c1.2,0.8,2.2,1.8,2.8,2.9C699.8,57.9,700,58.7,700,59.7z"/>
	<path class="st0" d="M174.3,143.3c-23.9-17.8-50.6-36.5-70.3-54.9c-3.5,29.6-6.3,62-12.3,88.3C119,164.9,148.5,151.2,174.3,143.3z"
		/>
	<linearGradient id="SVGID_1_" gradientUnits="userSpaceOnUse" x1="-44.2724" y1="188.2793" x2="148.7711" y2="188.2793">
		<stop  offset="0.2848" style="stop-color:#E85F2E"/>
		<stop  offset="1" style="stop-color:#FAC81E"/>
	</linearGradient>
	<path class="st1" d="M53.3,188.3C53.3,188.3,53.3,188.3,53.3,188.3C53.3,188.3,53.3,188.3,53.3,188.3
		C53.3,188.3,53.3,188.3,53.3,188.3z"/>
	<linearGradient id="SVGID_2_" gradientUnits="userSpaceOnUse" x1="209.6838" y1="182.9282" x2="26.4577" y2="208.1767">
		<stop  offset="0" style="stop-color:#E85F2E"/>
		<stop  offset="1" style="stop-color:#FAC81E"/>
	</linearGradient>
	<path class="st2" d="M174.2,142.8c-25.8,7.9-55.2,21.7-82.6,33.4c-42.6,18.3-80.1,32-91.3,10.9c0.4,2.9,0.9,5.5,1.7,8.1
		c0.1,0.3,0.2,0.7,0.3,1c3.3,9.8,9.6,17.6,18.1,22.3c0.7,0.5,1.5,0.9,2.2,1.4c0.2,0.1,0.5,0.2,0.7,0.3c5.3,3.1,11.5,5.6,18.5,7.3
		c3.5,0.7,6.9,1.4,10.4,2c0,0,0,0,0.1,0c50.5,9.1,102.3,8.4,152.5-2.1c10.2-2.4,18.7-6.6,25.2-11.9
		C241.1,195.6,210.9,170.2,174.2,142.8z"/>
	
		<linearGradient id="SVGID_3_" gradientUnits="userSpaceOnUse" x1="130.5601" y1="-123.0833" x2="127.907" y2="-20.218" gradientTransform="matrix(-0.5 -0.866 0.866 -0.5 186.1409 288.3196)">
		<stop  offset="0" style="stop-color:#FFFFFF;stop-opacity:0.5"/>
		<stop  offset="1" style="stop-color:#FFFFFF;stop-opacity:0"/>
	</linearGradient>
	<path class="st3" d="M91.7,177.6c-42.5,18.3-79.9,31.7-91.1,10.7c0-0.1-0.1-0.1-0.1-0.2c0.1,1.2,0.3,1.9,0.5,3
		c0,0.3,0.2,0.9,0.3,1.2c0.1,0.3,0.2,0.8,0.3,1.1c0.1,0.4,0.2,0.9,0.3,1.3c28.2,20.3,73.8,29.8,123.3,22.6
		c36.9-5.4,69.2-19.1,92-37.2c-10.7-11.4-26.1-23.5-42.8-36C148.5,152.1,119,165.9,91.7,177.6z"/>
	
		<linearGradient id="SVGID_4_" gradientUnits="userSpaceOnUse" x1="21.7474" y1="315.4809" x2="-161.5605" y2="340.7406" gradientTransform="matrix(-0.5 -0.866 0.866 -0.5 -141.5818 213.9055)">
		<stop  offset="0" style="stop-color:#E85F2E"/>
		<stop  offset="1" style="stop-color:#FAC81E"/>
	</linearGradient>
	<path class="st4" d="M103.8,88.1c19.8,18.4,46.4,37,70.3,54.8c37.2,27.7,67.6,53.7,54.9,73.9c2.3-1.7,4.5-3.8,6.4-5.8
		c0.2-0.3,0.5-0.5,0.7-0.8c6.8-7.8,10.4-17.1,10.3-26.9c0-0.9,0.1-1.7,0.1-2.6c0-0.3,0-0.5-0.1-0.8c0-6.2-0.9-12.8-3-19.7
		c-1.1-3.4-2.3-6.7-3.5-10c0,0,0,0,0-0.1c-17.3-48.3-43.8-92.8-78.1-131.1c-7.2-7.6-15-12.9-22.9-15.9
		C116,3.7,109.1,42.7,103.8,88.1z"/>
	
		<linearGradient id="SVGID_5_" gradientUnits="userSpaceOnUse" x1="110.4051" y1="-352.2713" x2="107.7542" y2="-249.4888" gradientTransform="matrix(-0.5 0.866 -0.866 -0.5 15.1648 -91.928)">
		<stop  offset="0" style="stop-color:#FFFFFF;stop-opacity:0.5"/>
		<stop  offset="1" style="stop-color:#FFFFFF;stop-opacity:0"/>
	</linearGradient>
	<path class="st5" d="M175.3,142.3c37.1,27.7,67.4,52.9,54.8,73.1c-0.1,0.2-0.6,0.8-0.5,0.8c0.9-0.7,2-1.7,2.9-2.4
		c0.2-0.2,0.5-0.5,0.7-0.7c0.2-0.2,0.3-0.3,0.6-0.6c0.3-0.3,0.9-0.9,1.2-1.2c3.5-34.6-11.1-78.5-42.1-117.8
		c-23.1-29.3-51.1-50.4-78.2-61.1c-4.5,14.9-7.3,34.3-9.7,55.1C124.8,105.9,151.5,124.5,175.3,142.3z"/>
	
		<linearGradient id="SVGID_6_" gradientUnits="userSpaceOnUse" x1="1.4107" y1="86.32" x2="-181.9139" y2="111.582" gradientTransform="matrix(-0.5 0.866 -0.866 -0.5 114.5828 229.0954)">
		<stop  offset="0" style="stop-color:#E85F2E"/>
		<stop  offset="1" style="stop-color:#FAC81E"/>
	</linearGradient>
	<path class="st6" d="M91.6,176.4c6.1-26.3,8.9-58.7,12.4-88.3c5.4-46.1,12.4-85.4,36.3-84.5c-2.7-1.1-5.2-2-7.9-2.6
		c-0.3-0.1-0.7-0.2-1-0.2c-10.1-2-20-0.5-28.4,4.5c-0.8,0.4-1.5,0.8-2.3,1.2c-0.2,0.1-0.4,0.3-0.7,0.4c-5.4,3.1-10.6,7.2-15.6,12.4
		c-2.4,2.6-4.7,5.3-7,8c0,0,0,0-0.1,0.1C44.2,66.7,18.8,111.9,2.8,160.7c-4.8,16.2-2,29.7-2.3,27.9
		C12.5,208.1,49.6,194.5,91.6,176.4z"/>
	
		<linearGradient id="SVGID_7_" gradientUnits="userSpaceOnUse" x1="318.7842" y1="-255.5476" x2="316.1323" y2="-152.7232" gradientTransform="matrix(1 0 0 1 -228.3056 246.61)">
		<stop  offset="0" style="stop-color:#FFFFFF;stop-opacity:0.5"/>
		<stop  offset="1" style="stop-color:#FFFFFF;stop-opacity:0"/>
	</linearGradient>
	<path class="st7" d="M103.2,87.6c5.4-45.9,12.4-85.1,36.1-84.2c0.1,0-1.7-0.7-2.8-1.1c-0.3-0.1-0.7-0.2-1-0.3
		c-0.3-0.1-0.6-0.2-0.9-0.3c-0.4-0.1-1-0.2-1.4-0.3c-31.7,14.3-62.5,49-81,95.4c-13.8,34.7-18,69.5-13.8,98.3
		c15.2-3.6,33.4-10.8,52.6-19.1C96.9,149.6,99.7,117.2,103.2,87.6z"/>
</g>
<g>
	<path d="M361.1,434.3c-0.7,0.8-1.7,1.2-3.1,1.2h-4.9c-0.1,1.2-0.1,2.5-0.1,3.8c0,1.3,0,2.5,0,3.8c-0.1,1.5-0.1,2.9-0.1,4.4
		c0,1.4-0.1,2.8-0.2,4c-0.4,3.2-1.7,4.8-3.9,5c-0.9,0-1.7-0.4-2.7-1.1c-0.9-0.7-1.7-1.8-2.3-3.3c-0.2-0.6-0.3-1.3-0.3-2.4
		c0-0.7,0-1.3,0.1-1.9c0.1-0.6,0.3-1.2,0.6-1.7c0-1.8,0-3.5,0-5.1c0-1.6,0.1-3.4,0.2-5.5c-2,0-3.9,0-5.9,0c-2,0-3.8,0.1-5.7,0.1
		c-1.6,0.1-3.1,0.1-4.7,0.1c-1.5,0-2.9,0-4.3,0h-2.6c-0.1,0.9-0.1,1.6-0.2,2.2s-0.1,1.3-0.2,1.9c-0.1,1.2-0.2,2.2-0.3,3.2
		c-0.1,1-0.1,2.1-0.1,3.4v0.1c0.2,0.5,0.5,1,0.7,1.5c0.2,0.5,0.4,1.1,0.5,1.7v0.8c0,1-0.3,1.9-0.8,2.6c-0.5,0.7-1.1,1.2-1.8,1.5
		c-0.7,0.3-1.4,0.5-2.1,0.5c-0.9,0-1.8-0.3-2.6-0.9c-0.8-0.6-1.4-1.5-1.8-2.7v0.1c-0.3-0.7-0.5-1.5-0.6-2.4
		c-0.1-0.9-0.2-1.9-0.2-2.8c0-1.2,0.1-2.5,0.2-3.9c0.1-1.4,0.3-2.9,0.5-4.4c0-0.3,0-0.7,0.1-1.1c0.1-0.4,0.1-0.8,0.2-1.3h-2.2
		c-0.7,0-1.3,0-1.8,0c-0.5,0-0.9-0.1-1.2-0.1c-1.5-0.1-2.7-0.5-3.4-1.2c-0.7-0.7-1.1-1.6-1.1-2.6c0-0.9,0.3-1.8,1-2.7
		c0.7-0.9,1.7-1.5,3-2c0.6-0.2,1.2-0.4,1.9-0.4c0.8,0,1.5,0.1,2,0.4l-0.1-0.1c0.9,0.1,1.8,0.2,2.6,0.3c0.2-1.8,0.4-3.8,0.6-6.1
		c0.2-2.3,0.5-4.6,0.7-7.1c0.2-2.4,0.4-4.8,0.6-7.1c0.2-2.4,0.2-4.5,0.2-6.5v-2.1c0-1.5,0.4-2.7,1.3-3.4c0.9-0.8,1.9-1.1,3-1.1h0.2
		c0.9,0,1.7,0.3,2.5,1c0.8,0.6,1.5,1.6,2,2.8c0.1,0.2,0.1,0.3,0.1,0.2c0,0,0,0.4,0,1.4c0,0.4,0,0.8-0.1,1.2
		c-0.1,0.4-0.3,0.8-0.6,1.2v0.9c0,2.1-0.1,4.7-0.4,8c-0.3,3.2-0.6,6.5-0.9,9.8c-0.1,1.3-0.2,2.5-0.4,3.8c-0.1,1.2-0.2,2.4-0.4,3.5
		c1.5,0,3.1,0,4.9,0c1.7,0,3.5,0,5.3-0.1c2.1-0.1,4.2-0.1,6.2-0.1c2.1,0,4.1,0,6.1,0c0.1-2,0.2-4.2,0.3-6.6c0.1-2.4,0.2-4.8,0.3-7.1
		c0.1-2.4,0.1-4.7,0.2-6.9c0.1-2.2,0.1-4.2,0.1-5.8c0-0.7,0-1.3,0-1.9c0-0.7,0-1.3-0.1-1.7c-0.1-0.1-0.1-0.2-0.1-0.2
		c0,0-0.1-0.1-0.1-0.2c-0.2-0.2-0.4-0.5-0.6-1v0.1c-0.2-0.4-0.3-0.9-0.4-1.4c-0.1-0.5-0.1-1-0.1-1.5c0-0.3,0-0.6,0-0.8
		c0-0.3,0-0.6,0.1-0.8c0.3-1,0.9-1.8,1.8-2.4c0.9-0.6,1.9-0.9,2.9-0.9c1.4,0,2.6,0.7,3.6,2c0.5,0.9,0.8,1.8,1,2.8
		c0.2,1,0.3,2,0.3,3.1c0.1,0.5,0.1,1.1,0.1,1.7c0,0.7,0,1.5,0,2.4c0,1.8,0,3.8-0.1,6.1c-0.1,2.3-0.1,4.6-0.2,7s-0.1,4.8-0.2,7.1
		c-0.1,2.3-0.1,4.4-0.2,6.2c0,0.5,0,0.8-0.1,1h4.8c1.4,0,2.4,0.4,3.1,1.2c0.7,0.8,1,1.8,1,2.8C362.1,432.6,361.8,433.5,361.1,434.3z
		"/>
	<path d="M417.5,443.5c0,0.7-0.2,1.4-0.6,2.1c-0.4,0.7-0.9,1.2-1.6,1.6c-2.1,1.1-4.4,2.1-7.1,3.1c-2.6,0.9-5.1,1.5-7.3,1.8
		c-0.4,0.1-0.9,0.1-1.3,0.1c-0.4,0-0.8,0-1.1,0c-2,0-3.6-0.3-4.8-1c-1.2-0.6-2.3-1.7-3.3-3.1v0.1c-0.4-0.6-0.8-1.5-1.2-2.6
		c-0.4-1.1-0.5-2.2-0.5-3.1c-0.2,0-0.4,0.1-0.6,0.3c-0.8,0.5-1.8,1.2-3,2.2c-1.2,1-2.5,2.1-3.8,3.3c-0.9,0.7-1.7,1.3-2.4,2
		c-0.8,0.6-1.5,1.3-2.2,1.9c-2.6,1.9-5.1,2.8-7.3,2.8c-1.9,0-3.5-0.6-4.9-1.7c-1.7-1.5-2.6-3.7-2.6-6.7c0.1-2.8,0.8-5.3,2.1-7.8
		c0.9-1.8,2-3.6,3.3-5.3c1.3-1.7,2.7-3.3,4.2-4.8s2.9-2.9,4.4-4.1c1.5-1.2,2.9-2.3,4.2-3.1c1.5-0.9,3.2-1.9,5.2-3
		c2-1.1,4.2-1.6,6.4-1.6c1.2,0,2.5,0.2,3.7,0.7c1.3,0.5,2.5,1.2,3.8,2.2c0.6,0.5,1,1,1.3,1.6c0.2,0.6,0.4,1.1,0.4,1.6
		c0,0.8-0.2,1.5-0.5,2.1c-0.4,0.7-1,1.2-1.7,1.6c-0.7,0.4-1.5,0.6-2.3,0.6c-0.9,0-1.8-0.3-2.6-0.8c-0.4-0.4-0.9-0.6-1.4-0.8
		c-0.5-0.2-1.1-0.2-1.6-0.2c-1.7,0-3.7,0.8-6.1,2.4c-1.1,0.7-2.3,1.6-3.6,2.8c-1.3,1.1-2.6,2.3-3.8,3.6c-1.3,1.3-2.4,2.7-3.5,4.1
		c-1.1,1.4-1.9,2.8-2.5,4.1c-0.2,0.3-0.3,0.7-0.4,1.2c-0.1,0.5-0.1,1-0.1,1.4c0,0.4,0,0.7,0.1,0.7c0,0.1,0.1,0.2,0.2,0.2
		c0.4,0,0.9-0.3,1.6-0.8l1.1-0.8c1-0.8,2.1-1.7,3.3-2.8c1.2-1.1,2.5-2.1,3.8-3.2c1.3-1,2.6-2,3.8-3c1.3-0.9,2.4-1.7,3.3-2.3v0.1
		c1.6-1,3.1-1.5,4.6-1.5c1.2,0,2.2,0.4,3,1.1c0.8,0.7,1.2,1.9,1.2,3.4v1.4c0,0.9,0,1.6,0.1,2.3c0.1,0.7,0.2,1.2,0.4,1.6
		c0.3,0.9,0.7,1.4,1.1,1.7c0.4,0.3,1,0.5,1.7,0.5h0.4c0.7-0.1,1.6-0.3,2.6-0.6c1-0.2,2-0.5,3-0.9c1-0.3,2-0.7,2.9-1.1
		c0.9-0.4,1.8-0.7,2.4-1.1c0.7-0.4,1.4-0.6,2-0.6c1.2,0,2.2,0.5,3,1.5v0.1C417.2,441.8,417.5,442.7,417.5,443.5z"/>
	<path d="M496,446.3c-0.7,0.6-1.4,0.9-2.3,0.9c-0.3,0-0.6-0.1-0.8-0.2c0.1,0.1,0.1,0.2,0,0.1c-0.2-0.1-0.4-0.1-0.6-0.2
		c-0.4,0.1-1,0.3-1.7,0.4c-0.7,0.2-1.5,0.3-2.4,0.5c-0.9,0.2-1.7,0.4-2.7,0.6c-0.9,0.2-1.8,0.5-2.7,0.7c-2.2,0.9-4.3,1.3-6.2,1.3
		c-1.6,0-3.1-0.3-4.5-0.8c-1.4-0.5-2.7-1.5-3.8-2.8c-1.5-1.6-2.6-3.6-3.4-5.8c-0.8-2.2-1.6-4.6-2.2-7.2c-0.3-0.9-0.6-1.4-1-1.4
		c-0.9,0-2.4,0.8-4.5,2.3c-0.4,0.2-1,0.7-1.8,1.4c-0.8,0.7-1.7,1.5-2.7,2.5c-1,1-2,2-3,3.1c-1,1.1-2,2.2-2.9,3.3
		c-0.5,0.7-1.1,1.2-1.9,1.6c-0.8,0.4-1.6,0.6-2.4,0.6c-0.9,0-1.7-0.2-2.5-0.6c-0.8-0.4-1.4-1-1.8-1.8c-0.5-0.9-0.9-1.9-1.2-2.9
		c-0.3-1-0.7-2-1-2.9h0.1c-0.3-0.9-0.6-1.7-0.9-2.5c-0.3-0.8-0.6-1.6-1-2.5v0.1c-0.2-0.3-0.4-0.5-0.6-0.5c-0.1,0-0.2,0-0.3,0
		c-0.1,0-0.2,0-0.3,0c-0.8,0.2-1.6,0.8-2.6,1.9c-0.7,1-1.4,1.9-2.3,2.8c-0.9,0.9-1.7,1.9-2.7,2.9c-0.7,0.7-1.4,1.5-2,2.3
		c-1.2,1.3-2.2,2.6-3.2,3.9c-0.9,1.3-1.7,2.5-2.3,3.5c-0.5,0.8-1.1,1.4-1.9,1.7c-0.8,0.4-1.5,0.6-2.2,0.6c-0.4,0-0.7,0-1.1-0.1
		c-0.4-0.1-0.7-0.2-1-0.4h0.1c-1.8-0.9-2.7-2.3-2.8-4.4c-0.1-1.6-0.2-3.5-0.2-5.4c0-2,0-3.9,0-5.9c0-2.5,0-4.9,0-7.1
		c0-2.2,0.1-4,0.2-5.4c0.2-1.4,0.7-2.4,1.5-3.1c0.8-0.6,1.8-1,2.9-1h0.2c1,0,2,0.4,2.8,1.1c0.9,0.7,1.3,1.7,1.3,2.9v0.3
		c-0.1,1.7-0.2,3.5-0.3,5.4c-0.1,1.9-0.1,3.7-0.1,5.5v2c0.2-0.3,0.5-0.6,0.7-0.9c0.2-0.3,0.5-0.6,0.8-0.9c0.6-0.7,1.2-1.4,1.9-2.1
		c0.6-0.7,1.3-1.5,2-2.3l1.3-1.6c1.1-1.3,2.5-2.6,4.1-3.8c1.6-1.2,3.3-1.9,5-2.2c0.2-0.1,0.5-0.1,0.7-0.1c0.2,0,0.5,0,0.8,0
		c1.3,0,2.5,0.4,3.6,1.1c1.1,0.7,2.1,1.9,3,3.7c0.3,0.9,0.6,1.7,1,2.7c0.4,0.9,0.7,1.8,1,2.6c0.2,0.7,0.4,1.3,0.6,1.6
		c0.1,0.1,0.1,0.2,0,0.2l0.4-0.2c0.6-0.6,1.2-1.2,1.9-1.9c0.7-0.7,1.4-1.4,2.2-2.1c0.7-0.7,1.4-1.4,2.2-2c0.7-0.6,1.3-1.2,1.9-1.7
		c4.3-3.6,8.1-5.4,11.2-5.4h0.2c3.6,0,6,2.4,7.1,7.3c0.4,2.1,1,4.3,1.8,6.4c0.8,2.1,1.6,3.7,2.5,4.8c0.7,0.7,1.5,1.1,2.4,1.1
		c0.8,0,1.6-0.2,2.4-0.5c1.1-0.4,2.2-0.7,3.4-1.1c1.2-0.3,2.4-0.7,3.6-1c1.2-0.3,2.3-0.6,3.4-0.8c1.1-0.2,2-0.4,2.7-0.4h0.6
		c0.9,0,1.6,0.1,2.2,0.3c0.6,0.2,1.1,0.5,1.6,1v-0.1c0.9,0.7,1.3,1.6,1.3,2.7c0,0.8-0.3,1.6-0.8,2.3v-0.1
		C497.2,445.2,496.6,445.7,496,446.3z"/>
	<path d="M526.8,428.2c0,2.8-0.8,5.6-2.5,8.6v-0.1c-0.7,1.5-1.6,3.1-2.7,4.8c-1.1,1.6-2.3,3.2-3.7,4.7c-2.1,2.3-4.4,4.4-6.8,6.1
		c-2.5,1.7-5,3.5-7.7,5.2h0.1c-0.7,0.5-1.5,0.7-2.4,0.7c-1.3,0-2.4-0.8-3.5-2.4c-0.3-0.6-0.5-1.2-0.5-1.7c0-1.5,0.6-2.7,1.7-3.6
		c2.7-1.8,5.2-3.4,7.4-5c2.2-1.5,4-3.3,5.6-5.2c1-1.2,2-2.4,2.9-3.8c0.9-1.4,1.6-2.6,2.1-3.6c0.7-1.3,1-2.4,1-3.1
		c0-0.4-0.1-0.7-0.3-1.1c-0.4-0.4-1-0.5-1.9-0.5c-0.1,0-0.3,0-0.5,0c-0.2,0-0.4,0-0.7,0.1c-1.4,0.1-3.1,0.5-5.2,1.2
		c-2,0.7-4,1.6-6,2.8c-1,0.6-1.9,1.3-2.7,2.1s-1.5,1.6-1.9,2.4c-0.1,0.2-0.2,0.4-0.2,0.6c0,0.1-0.1,0.2-0.1,0.4l-0.3,0.7l0.1-0.1
		c-0.1,0.3-0.1,0.6-0.1,0.9c0,0.3,0,0.5,0,0.7c0,0.4,0,0.8,0,1.2c0,0.4,0.1,0.7,0.1,1.1v0.8c-0.1,1.4-0.6,2.5-1.3,3.2
		c-0.8,0.7-1.7,1.1-2.7,1.1c-0.9,0-1.7-0.3-2.6-0.9c-0.9-0.6-1.4-1.6-1.7-3c-0.3-1.3-0.5-2.8-0.6-4.5c-0.1-1.7-0.1-3.6-0.1-5.5
		c0-2.8,0.1-5.8,0.3-9c0.2-3.2,0.5-6.3,0.8-9.3c0.3-3,0.7-5.9,1.1-8.5c0.4-2.7,0.8-4.9,1.2-6.7c0.2-1,0.4-1.9,0.6-2.7
		c0.2-0.8,0.6-1.6,1.2-2.3c0.8-1.3,2-2,3.8-2h0.4c1,0,1.9,0.3,2.7,0.9c0.7,0.6,1.1,1.4,1.1,2.5v0.6c-0.1,0.6-0.2,1.1-0.5,1.6
		c-0.2,0.6-0.5,1-0.6,1.5c-0.2,0.5-0.4,0.8-0.4,0.8l0.1-0.1c-0.2,1.6-0.5,3.4-0.8,5.4c-0.3,2-0.6,4.1-0.9,6.4
		c-0.3,2.2-0.5,4.5-0.8,6.9c-0.2,2.4-0.5,4.8-0.6,7.1c0.6-0.5,1.1-0.9,1.8-1.3c0.6-0.4,1.3-0.8,1.9-1.1c1.7-0.9,3.7-1.8,6-2.6
		c2.4-0.8,4.7-1.3,7-1.6h-0.1c0.5-0.1,0.9-0.2,1.4-0.2c0.5,0,1,0,1.5,0c1.8,0,3.3,0.3,4.5,0.8c1.2,0.6,2.3,1.3,3.2,2.1h0.1
		C526.2,423.9,526.8,425.8,526.8,428.2z"/>
	<path d="M587.8,443.8c0,0.7-0.2,1.3-0.5,1.9c-0.3,0.6-0.9,1.2-1.6,1.6c-1.4,0.9-3.2,1.6-5.2,2.3c-2.1,0.7-4.3,1.3-6.6,1.7
		c-0.4,0.1-0.7,0.1-1.1,0.1c-0.4,0-0.7,0-1.1,0c-1.9,0-3.7-0.4-5.5-1.1c-1.7-0.7-3.1-1.8-4.1-3.3c-0.4-0.7-0.8-1.3-1.1-2
		c-0.3-0.6-0.5-1.4-0.6-2.2c-1.2,1.4-2.5,2.8-3.9,4c-1.4,1.3-2.8,2.4-4.2,3.2c-3.8,2.4-7.4,3.6-10.9,3.6c-1.3,0-2.4-0.1-3.4-0.3h0.1
		c-3.8-0.9-6.4-3.3-7.8-7.1c-0.4-1-0.7-2.2-0.9-3.5c-0.2-1.3-0.2-2.6-0.2-3.8c0-2.7,0.2-5.3,0.7-7.9c0.5-2.6,1-4.6,1.5-6
		c0.5-1.1,1.2-1.9,2-2.4c0.9-0.5,1.7-0.8,2.7-0.8c1,0,1.8,0.3,2.6,1c0.8,0.6,1.1,1.5,1.1,2.5c0,0.2,0,0.5,0,0.7
		c0,0.2-0.1,0.4-0.2,0.7l0.1-0.1c-0.6,1.8-1.1,3.7-1.5,5.9c-0.4,2.2-0.6,4.2-0.6,6.1c0,1.7,0.2,3.1,0.6,4.2c0.4,1.2,1.1,2,2.2,2.4
		c0.5,0.1,1,0.2,1.6,0.2c0.8,0,1.7-0.2,2.6-0.5c0.9-0.3,1.9-0.8,2.9-1.5c3.5-2.4,6.3-5,8.5-7.9c2.2-2.9,3.7-5.7,4.7-8.5
		c0.4-0.9,1-1.6,1.7-1.9c0.7-0.4,1.5-0.6,2.3-0.6c0.1,0,0.3,0,0.5,0c0.2,0,0.4,0.1,0.7,0.2l-0.1-0.1c0.9,0.2,1.6,0.6,2.2,1.2
		c0.6,0.6,1,1.4,1,2.3c0,0.1,0,0.2,0,0.4s0,0.3-0.1,0.6v-0.1c-0.7,2.9-1,5.3-1,7.3c0,0.9,0.1,1.7,0.2,2.5c0.1,0.7,0.3,1.4,0.5,1.9
		V441c0.3,0.9,0.8,1.4,1.3,1.7c0.6,0.3,1.2,0.5,2,0.5c0.1,0,0.2,0,0.4,0c0.1,0,0.3,0,0.5,0c1.7-0.2,3.3-0.6,4.8-1.1
		c1.6-0.6,2.9-1.2,4.1-1.8c0.8-0.4,1.6-0.6,2.3-0.6c1.6,0,2.7,0.8,3.3,2.3C587.7,442.5,587.8,443.1,587.8,443.8z"/>
	<path d="M614.2,433.5c-0.3,0-0.6,0-1-0.1c-0.4-0.1-0.7-0.2-1-0.5h0.1c-0.9-0.4-1.5-0.6-1.9-0.6c-0.1,0-0.3,0-0.5,0
		c-0.2,0-0.3,0-0.5,0.1c-0.9,0.1-1.9,0.4-3.1,0.7c-1.2,0.4-2.5,0.8-3.8,1.4c-1.3,0.6-2.7,1.2-4,2c-1.4,0.7-2.6,1.5-3.8,2.2
		c-1.8,1.1-3,2.2-3.7,3.3c-0.5,0.8-0.8,1.5-0.9,2.2c-0.1,0.6-0.2,1.4-0.4,2.2v-0.1c-0.1,1.3-0.6,2.3-1.4,3c-0.8,0.6-1.7,1-2.8,1
		c-1,0-2-0.4-2.8-1.1c-0.8-0.7-1.3-1.8-1.3-3.2c-0.1-0.6-0.1-1.2-0.1-1.8c0-0.7,0-1.4,0-2.1v-4.2c0-1.4,0-2.7,0.1-4
		c0.1-1.2,0.2-2.4,0.3-3.3c-0.5-0.3-0.7-0.8-0.7-1.5c0-0.4,0.2-0.9,0.5-1.3c0.6-0.9,1-1.9,1.5-3v0.1c0.3-0.9,0.8-1.5,1.4-1.8
		c0.6-0.3,1.3-0.5,2.1-0.5c0.1,0,0.3,0,0.6,0.1s0.6,0.1,1,0.1c0.7,0.2,1.3,0.7,1.8,1.2c0.5,0.6,0.8,1.3,0.8,2.2c0,0.1,0,0.2,0,0.4
		c0,0.1,0,0.2,0,0.4c-0.2,0.7-0.3,1.6-0.5,2.7c-0.1,1.1-0.2,2.1-0.3,3c0.1-0.1,0.2-0.1,0.3-0.1c0.1,0,0.2-0.1,0.3-0.2
		c0.1-0.1,0.3-0.2,0.5-0.3c1.3-0.9,2.8-1.8,4.5-2.7c1.7-0.9,3.5-1.7,5.3-2.4c1.8-0.7,3.6-1.3,5.3-1.8c1.7-0.5,3.3-0.8,4.7-0.8h0.4
		c1.2,0,2.3,0.2,3.3,0.5c1,0.4,1.7,0.7,2.2,1.1c1,0.8,1.6,1.8,1.6,3c0,1-0.3,2-0.8,2.8h0.1C616.6,432.9,615.5,433.5,614.2,433.5z"/>
	<path d="M650.8,420.3c0.4,0.7,0.5,1.4,0.5,2.1c0,1.2-0.4,2.3-1.2,3.2c-0.8,0.9-1.8,1.3-2.8,1.3c-0.7,0-1.3-0.2-2-0.6h0.1
		c-0.4-0.2-1.1-0.4-1.9-0.4c-1,0-2.2,0.2-3.5,0.7c-1.3,0.5-2.7,1.1-4,1.8c-1.4,0.7-2.7,1.6-4.1,2.6c-1.3,1-2.6,2.1-3.7,3.2h0.1
		c-0.9,1-1.6,2.2-2.4,3.4c-0.7,1.2-1.2,2.3-1.3,3.2v0.5c0,0.3,0.1,0.5,0.3,0.5c0.4,0,0.9-0.2,1.6-0.6c0.9-0.5,1.8-1,2.8-1.6
		c1-0.6,2-1.2,3.1-1.7c1-0.5,2.1-1.1,3.1-1.5c1-0.5,2-0.8,2.9-1.1c0.3-0.1,0.6-0.2,1-0.2c0.4,0,0.8,0,1.2,0c1,0,2,0.2,2.8,0.6
		c0.9,0.4,1.5,1.2,2,2.2c0.2,0.5,0.5,1.3,0.8,2.3c0.3,1,0.5,2.2,0.7,3.6c0.2,1.4,0.4,2.9,0.5,4.5c0.2,1.7,0.2,3.3,0.2,5
		c0,1.7-0.1,3.4-0.2,5.1c-0.2,1.7-0.4,3.3-0.8,4.7c-0.9,3.9-2.4,7.5-4.5,10.9c-2.2,3.4-5.2,6.4-9,8.8l0.1-0.1
		c-0.8,0.5-1.6,0.7-2.3,0.7c-0.8,0-1.5-0.2-2.2-0.6c-0.7-0.4-1.2-0.9-1.6-1.4c-0.2-0.3-0.4-0.7-0.6-1.1c-0.2-0.4-0.2-0.8-0.2-1.2
		c0-1.3,0.7-2.5,2.1-3.6c3.1-1.9,5.3-4,6.8-6.5c1.5-2.4,2.5-5,3.1-7.8c0.3-1.4,0.5-2.7,0.6-3.8c0.1-1.1,0.1-2.2,0.1-3.3
		c0-1.4-0.1-2.8-0.2-4.1c-0.1-1.3-0.3-2.7-0.6-3.9c0-0.1,0-0.2,0-0.4c0-0.1,0-0.2,0-0.4c-0.1-0.5-0.2-0.7-0.6-0.7
		c-0.2,0-0.4,0.1-0.6,0.2c-0.9,0.4-1.9,0.9-3.2,1.6c-1.3,0.7-2.6,1.4-3.9,2.1c-0.6,0.4-1.1,0.7-1.7,1h0.1c-1.1,0.7-2.2,1.2-3.3,1.5
		c-1.1,0.3-2.1,0.4-3.1,0.4c-2.1,0-3.8-0.7-5-2c-1.2-1.3-1.8-3.2-1.8-5.7c0-2.9,0.7-5.6,2.2-8.3c1.5-2.6,3.2-5,5.1-7.2
		c1.3-1.3,2.7-2.7,4.4-4c1.6-1.3,3.4-2.5,5.2-3.5c1.9-1,3.8-1.8,5.7-2.4c2-0.6,3.9-0.9,5.8-0.9c1,0,1.9,0,2.9,0.1
		c0.9,0.1,1.8,0.4,2.7,1v-0.1C649.9,419,650.5,419.6,650.8,420.3z"/>
	<path d="M326.7,353.2c0,1-0.2,2-0.7,2.9c-0.4,1-1.3,1.8-2.5,2.5c-3.1,1.9-6.7,3.5-10.7,5c-4,1.4-8.2,2.6-12.5,3.6
		c-4.4,0.9-8.8,1.6-13.4,2.1c-4.6,0.4-8.9,0.7-13.1,0.7c-3.2-0.1-5.9-0.4-8.2-1.1c-2.2-0.6-4-1.7-5.4-3.2c-2.2-2.1-3.4-5.2-3.4-9.2
		c0-3.6,0.8-8,2.4-13.3c3.7-12.5,6.3-23.8,8-34c1.7-10.1,3-19,4-26.5c0.2-2,0.9-3.4,2.2-4.3s2.7-1.3,4.2-1.3c1.6,0,3,0.4,4.2,1.3
		c1.2,0.9,1.8,2.3,1.8,4.3v0.8c-0.8,9.4-2.2,19.4-4.2,30c-2,10.6-4.7,21.7-8,33.1c-0.4,1.5-0.8,2.8-1,4c-0.2,1.1-0.3,2.1-0.3,2.9
		c0,1.2,0.2,2.1,0.7,2.7c0.7,0.8,2.5,1.2,5.2,1.2c3.8-0.1,7.7-0.4,11.7-0.9c3.9-0.5,7.7-1.2,11.3-2.1c3.6-0.8,7-1.8,10-2.9
		c3.1-1.1,5.7-2.3,7.8-3.6c0.6-0.4,1.2-0.6,1.9-0.7c0.6-0.1,1.2-0.1,1.7-0.1c2.1,0,3.7,0.9,4.8,2.5l0.1,0.1
		C326.3,350.8,326.7,352,326.7,353.2z"/>
	<path d="M402,367.1c0,0.9-0.2,1.7-0.5,2.3c-0.3,0.7-0.7,1.3-1.1,1.8c-0.5,0.7-1.2,1.3-1.9,1.7c-0.8,0.4-1.6,0.7-2.6,0.7
		c-1.7,0-3.2-0.7-4.6-2.1c-1.2-1.5-3.7-3.2-7.2-5c-3.6-1.8-7.6-3.8-12.1-6c-3.7-1.8-7.5-3.6-11.3-5.6c-3.8-1.9-7.3-3.8-10.4-5.7
		c0,1,0,1.9-0.1,2.6c0,0.8-0.1,1.5-0.1,2.2c0,0.7,0,1.5-0.1,2.3c0,0.9-0.1,1.7-0.1,2.5c0.4,0.4,0.9,0.9,1.3,1.3
		c0.4,0.4,0.6,0.7,0.7,0.9h-0.1c0.2,0.5,0.3,0.8,0.3,1.1c0,0.2,0,0.4,0,0.5c0,1.7-0.5,3.1-1.6,4.3c-0.5,0.7-1.1,1.3-1.8,1.7
		c-0.7,0.4-1.5,0.6-2.5,0.6c-1.2,0-2.2-0.3-3.2-0.9c-1-0.5-2.1-1.4-3.2-2.7c-1.2-1.3-1.7-3-1.7-5.4v-21.4c-1.2-2.2-1.9-4.9-1.9-7.9
		c0-2.9,0.8-5.4,2.5-7.6c0.1-2,0.2-4,0.3-6.2c0.1-2.1,0.2-4.3,0.4-6.6c0.2-3.7,0.3-7.2,0.5-10.5c0.1-3.4,0.2-6.4,0.2-9
		c0-2.3,0.7-4,2.1-4.9c1.4-0.9,3-1.4,4.7-1.4c1.9,0,3.3,0.6,4.3,1.7c1,1.1,1.6,2.6,1.9,4.4v0.9c0,1.3-0.3,2.9-0.9,4.7
		c0,1.5,0,3.2-0.1,5c-0.1,1.8-0.2,3.7-0.4,5.6c-0.2,1.5-0.3,3-0.4,4.6c-0.1,1.5-0.1,3-0.1,4.4c1.8-0.9,3.8-1.8,6.1-2.7
		c2.3-0.9,4.6-1.8,6.9-2.8c2.3-0.9,4.6-1.8,6.8-2.7c2.2-0.9,4.2-1.8,5.9-2.6c1.7-0.8,3.2-1.5,4.2-2.1s1.7-1.2,1.9-1.6
		c0.6-1.2,1.6-2.1,2.8-2.6c1.2-0.5,2.5-0.7,3.8-0.7c2,0,3.3,0.6,4.2,1.7c0.8,1.2,1.2,2.5,1.2,3.9c0,0.2,0,0.4-0.1,0.7
		c0,0.3-0.1,0.5-0.1,0.7c-0.3,1.7-0.9,3.1-2,4.1c-1.1,1-2,1.9-2.8,2.5c-0.2,0.1-0.4,0.3-0.7,0.5c-2.3,1.3-5.3,2.8-8.9,4.4
		c-3.6,1.6-7.3,3.1-11.1,4.6c-3.9,1.6-7.6,3.1-10.9,4.6c-3.4,1.4-5.8,2.8-7.4,4l-0.3,4.6c1.5,1.4,3.3,2.8,5.4,4.2
		c2.1,1.4,4.4,2.7,6.8,4c2.4,1.3,4.9,2.6,7.4,3.8c2.5,1.3,5.1,2.5,7.7,3.8c2.5,1.2,4.9,2.4,7.2,3.6c2.3,1.1,4.5,2.2,6.5,3.4
		c2,1.1,3.8,2.2,5.4,3.3s2.8,2.1,3.7,3.2v0.1C401.5,364.7,402,365.9,402,367.1z"/>
	<path d="M475.7,364.3c0,0.3,0.1,0.7,0.1,1.1c0,1.4-0.4,2.7-1.3,3.7c-0.9,1.1-2.2,1.8-4,2.3c-5.5,1.3-10.6,2.3-15.4,2.9
		c-4.8,0.6-9.4,0.9-13.7,0.9c-5.5,0-10.4-0.4-14.5-1.2c-5.8-1.2-10.3-2.9-13.3-5.2c-3.1-2.3-5.3-5.2-6.8-8.7
		c-0.8-1.7-1.4-3.5-1.7-5.4c-0.4-1.9-0.5-3.8-0.5-5.8c0-3.5,0.4-7.1,1.3-10.7c0.9-3.7,2.1-7.3,3.6-10.9c2-4.6,4.6-9.3,7.9-13.9
		c3.3-4.6,7-9,11-13.2c4-4.2,8.2-7.9,12.7-11.3c4.4-3.4,8.6-6.2,12.7-8.3c1.7-1,3.4-1.5,5-1.5c1.4,0,2.6,0.4,3.5,1.3
		c1.2,1.3,1.9,2.8,1.9,4.7c0,1.8-0.5,3.5-1.6,5.2h0.1c-1.5,2.6-3.6,3.9-6.2,3.9c-0.4,0-0.8,0-0.9-0.1c-3,1.8-6.3,4-9.8,6.8
		c-3.5,2.7-6.8,5.8-10,9.2c-3.2,3.4-6.2,7-8.8,10.9c-2.7,3.8-4.7,7.7-6,11.5c-0.9,2.6-1.7,5.2-2.3,8c-0.7,2.7-1,5.4-1,8
		c0,2.4,0.3,4.4,0.9,6c0.8,1.8,2.1,3.3,3.8,4.6c1.7,1.3,4.2,2.2,7.5,2.6c1.9,0.4,3.8,0.6,5.8,0.8c2,0.2,4,0.3,6.2,0.3
		c3.5,0,7.4-0.3,11.7-0.9c4.3-0.6,9.1-1.6,14.5-3c0.3-0.1,0.6-0.2,0.9-0.2c0.4,0,0.8-0.1,1.3-0.1c2.8,0,4.6,1.5,5.4,4.4l0.1,0.1
		C475.6,363.7,475.7,364,475.7,364.3z"/>
	<path d="M543.1,364.2c-2.6,1.5-5.5,2.8-8.6,4c-2.2,0.8-4.9,1.6-7.9,2.4c-3,0.8-6.2,1.5-9.4,2.2c-3.3,0.7-6.5,1.2-9.8,1.6
		c-3.3,0.4-6.3,0.6-9,0.6h-0.5c-2.3,0-4.4-0.5-6.4-1.4c-1.9-0.9-3.6-2.5-5-4.6v0.1c-1.2-1.8-2.1-3.9-2.7-6.4c-0.7-2.5-1-5.2-1-8.4
		c0-1.1,0.1-2.4,0.3-3.9c0.2-1.5,0.5-3.1,0.8-4.7c0.3-1.6,0.6-3.2,1-4.8c0.4-1.6,0.7-3,0.9-4.2c-0.5,0.1-1.1,0.1-1.7,0.1
		c-0.5,0-1.1,0-1.6,0c-0.6,0-1.2,0-1.6-0.1h-0.4c-2.1,0-3.6-0.5-4.8-1.6c-1.1-1.1-1.7-2.4-1.8-3.9c0-2.1,1.1-4.1,3.3-5.9H477
		c1.2-1.1,2.9-1.6,4.8-1.6c0.9,0,1.9,0.2,2.9,0.7c0.7-0.1,1.5-0.2,2.3-0.3c0.8-0.1,1.6-0.2,2.4-0.4c1.3-3.7,2.5-7.3,3.4-10.9
		c0.9-3.6,1.5-6.5,1.8-8.8c0-0.3,0-0.6,0.1-0.9c0-0.3,0.1-0.6,0.1-1v-0.9c-0.4,0.2-0.7,0.3-1,0.3c-0.3,0-0.6,0.1-0.7,0.2
		c-2.3,0.6-4.9,1.4-7.6,2.3l0.1-0.1c-0.6,0.4-1.4,0.5-2.4,0.5c-1.7,0-3-0.6-4-1.8c-1-1.2-1.5-2.6-1.5-4.1c0-1.2,0.3-2.3,1-3.5
		c0.7-1.2,1.8-2.1,3.3-2.7c4.3-1.7,8.7-3.1,13.3-4.1s9.2-1.8,13.7-2.4c4.5-0.6,8.9-1,13.3-1.1s8.4-0.3,12.1-0.3c1.7,0,3.3,0,4.8,0
		c1.5,0,3,0,4.4,0.1c2.1,0,3.6,0.6,4.7,1.8c1.1,1.2,1.6,2.5,1.6,3.8v0.8c-0.1,1.5-0.6,2.8-1.5,4c-0.9,1.1-2.3,1.7-4.1,1.7h-0.7
		c-1.5-0.1-3-0.1-4.4-0.1c-1.4,0-2.9,0-4.4,0c-4.7,0-9.4,0.2-14.1,0.5c-4.6,0.3-9.1,0.8-13.4,1.5c0.1,0.4,0.2,0.8,0.2,1.1
		c0,0.3,0.1,0.7,0.1,1.1c0,0.3,0,0.6-0.1,0.9s-0.1,0.6-0.1,0.9c-0.2,2.9-0.7,5.9-1.5,9.2c-0.9,3.3-1.8,6.7-2.7,10
		c3.1-0.5,6.4-1.1,9.7-1.6c3.4-0.5,6.6-1.1,9.8-1.7s6.2-1.1,9-1.7c2.8-0.5,5.2-1,7.3-1.5l-0.1,0.1c0.4-0.2,0.7-0.3,0.8-0.3
		c0.2,0,0.4,0,0.5,0c1.4,0,2.6,0.5,3.5,1.4c0.9,0.9,1.5,2.1,1.7,3.4c0,0.1,0,0.2,0.1,0.5c0,0.2,0.1,0.4,0.1,0.6
		c0,1.2-0.4,2.5-1.1,3.7c-0.7,1.2-2,2.1-3.7,2.6c-2.1,0.5-4.8,1.1-8.3,1.8c-3.5,0.7-7.2,1.3-11.2,2c-4,0.7-7.9,1.3-11.9,2
		c-3.9,0.7-7.4,1.2-10.3,1.5c-1.2,3.4-2.1,6.7-2.7,10c-0.6,3.3-1,6.4-1.1,9.4v0.9c0,1.3,0.1,2.4,0.3,3.5c0.2,1.1,0.6,1.9,1.1,2.4
		c0.6,0.7,1.6,1.1,3.1,1.1h0.7c3.9-0.2,8.6-0.7,14-1.6c5.4-0.9,10.7-2.2,15.7-4c2.1-0.7,4-1.5,5.7-2.4c1.7-0.9,3.1-2.1,4.4-3.6
		c1.5-1.5,3-2.3,4.6-2.3c1.8,0,3.2,0.5,4.3,1.5h-0.1c1.4,1.2,2.1,2.8,2.1,4.8c0,0.7-0.1,1.4-0.2,2.1c-0.1,0.7-0.5,1.4-1.1,2.1v-0.1
		C548,360.9,545.8,362.7,543.1,364.2z"/>
	<path d="M586,303.3c0,0.8-0.2,1.5-0.6,2.2c-0.4,0.7-0.9,1.2-1.4,1.7c-0.4,0.2-0.9,0.4-1.3,0.5c-0.4,0.2-0.8,0.3-1.3,0.3
		c-1.4,0-2.6-0.8-3.6-2.3c-0.9-1.4-1.7-3.4-2.3-5.8c-0.6-2.5-0.9-4.9-0.9-7.3c0-1.2,0.1-2.5,0.3-3.7c0.2-1.2,0.5-2.2,0.9-3
		c1.2-1.9,2.5-2.8,4.2-2.8c0.7,0,1.3,0.1,1.9,0.4c0.8,0.5,1.5,1.1,2.1,1.9c0.6,0.8,0.9,1.8,0.9,3.1c0,1.2-0.1,2-0.4,2.6
		c-0.3,0.6-0.6,1.1-1.1,1.7v0.7c0,1.3,0.2,2.6,0.5,4c0.3,1.4,0.7,2.6,1.3,3.6v-0.1C585.7,301.4,586,302.2,586,303.3z"/>
	<path d="M623,361.5c-0.9,1.2-2.3,1.9-4.2,2.1c-0.4,0.1-0.9,0.1-1.3,0.1c-0.4,0-0.8,0-1.2,0h-2.1c-0.8,1.2-2,1.7-3.5,1.7
		c-1.3,0-2.3-0.4-3.1-1.2c-0.1,0.1-0.3,0.1-0.7,0.1c-0.4,0-0.9,0-1.2,0.1c-1.1,0.8-2.2,1.2-3.5,1.2h-0.7c-3-0.4-5-2-5.9-4.8l0.1,0.1
		c-0.4-0.7-0.5-1.6-0.5-2.5c0-1.2,0.3-2.2,0.9-3.1c0.6-0.9,1.7-1.6,3.1-2.1c0.8-0.4,1.7-0.6,2.7-0.8s2-0.3,2.9-0.4
		c0-2.8,0.1-5.9,0.3-9.5c0.2-3.6,0.5-7.1,0.7-10.7c0.3-3.6,0.6-7,0.9-10.2c0.4-3.2,0.7-5.9,0.9-8c-0.6,0.4-1.3,0.7-2,1.1
		c-0.7,0.4-1.4,0.7-2.1,0.9c-0.2,0-0.3,0-0.3,0.1c0,0-0.2,0.1-0.3,0.1c-1,0-1.9-0.3-2.7-0.9c-0.8-0.6-1.4-1.3-1.9-2.1
		c-0.5-0.9-0.8-2-0.8-3.2c0-2.1,1.1-3.7,3.2-4.8h-0.1c0.5-0.4,1.3-0.8,2.3-1.3c1-0.5,2-1.2,3.1-1.9c0.8-0.5,1.6-1,2.3-1.5
		c0.8-0.4,1.4-0.9,1.8-1.2c1.1-0.8,2.3-1.2,3.6-1.2c1.8,0,3.4,0.7,4.7,2c1.3,1.3,2,2.9,2,4.7v0.7c-0.4,3-0.7,6.6-1.1,10.7
		c-0.4,4.1-0.8,8.3-1.2,12.6c-0.4,4.3-0.8,8.5-1.1,12.5c-0.4,4.1-0.6,7.6-0.8,10.5c1.2,0,2.3,0.1,3.2,0.3c0.9,0.2,1.7,0.6,2.4,1
		h-0.1c1.7,0.9,2.5,2.5,2.5,4.7C624.3,359,623.9,360.3,623,361.5z"/>
	<path d="M700,307.5c0,2-0.8,3.9-2.4,5.9v-0.1c-3.6,4.4-7.4,9.6-11.5,15.6c-4.1,6-8,12.3-11.7,18.7c-3.7,6.4-7,12.8-10,19
		c-2.9,6.2-5.1,11.7-6.4,16.5c0.2,0.6,0.3,1.2,0.4,1.7c0.1,0.5,0.1,1,0.1,1.4c0,1.4-0.3,2.8-0.9,4c-0.7,1.2-1.7,2.2-2.8,2.7
		c-1.2,0.6-2.3,0.9-3.5,0.9c-0.7,0-1.4-0.1-2.1-0.3c-1.2-0.4-2.3-1.3-3.3-2.5c-0.9-1.3-1.4-2.8-1.4-4.6c0-0.4,0-0.9,0.1-1.5
		c0-0.5,0.1-1,0.2-1.5c1.7-6.1,4-12.3,6.9-18.8s6.1-12.7,9.5-18.9c3.4-6.2,7-12,10.7-17.6c3.7-5.5,7.1-10.5,10.3-14.7l-0.1,0.1
		c0.2-0.3,0.4-0.6,0.7-1.1h-3.4c-2.3-0.1-4.6-0.2-6.7-0.2c-2.1,0-4.4-0.1-6.7-0.1c-2.6,0-5.3,0.1-8.2,0.2c-2.9,0.1-6.1,0.3-9.8,0.6
		c-1,0.6-1.9,1.1-2.9,1.3c-0.9,0.2-1.9,0.3-2.9,0.3h-0.8c-1.7,0-3.2-0.5-4.6-1.5c-1.4-1-2.4-2.3-3-3.7c-0.2-0.3-0.3-0.6-0.4-1
		c-0.1-0.4-0.1-0.8-0.1-1.3c0-1.3,0.5-2.6,1.5-3.7c1-1.1,2.7-1.9,5.1-2.3c2.9-0.4,6.5-0.6,10.9-0.8c4.4-0.2,9-0.3,13.9-0.3
		c4.8,0,9.6,0,14.3,0.1c4.7,0,8.9,0.2,12.6,0.5c2.2,0.1,4,0.5,5.2,1.3c1.2,0.8,2.2,1.8,2.8,2.9C699.8,305.6,700,306.5,700,307.5z"/>
	<path class="st0" d="M174.3,391c-23.9-17.8-50.6-36.5-70.3-54.9c-3.5,29.6-6.3,62-12.3,88.3C119,412.7,148.5,398.9,174.3,391z"/>
	<linearGradient id="SVGID_8_" gradientUnits="userSpaceOnUse" x1="-44.2724" y1="436.0172" x2="148.7711" y2="436.0172">
		<stop  offset="0.2848" style="stop-color:#838383"/>
		<stop  offset="1" style="stop-color:#C4C4C4"/>
	</linearGradient>
	<path class="st8" d="M53.3,436C53.3,436,53.3,436,53.3,436C53.3,436,53.3,436,53.3,436C53.3,436,53.3,436,53.3,436z"/>
	<linearGradient id="SVGID_9_" gradientUnits="userSpaceOnUse" x1="209.6838" y1="430.6662" x2="26.4577" y2="455.9146">
		<stop  offset="0" style="stop-color:#838383"/>
		<stop  offset="1" style="stop-color:#C4C4C4"/>
	</linearGradient>
	<path class="st9" d="M174.2,390.6c-25.8,7.9-55.2,21.7-82.6,33.4C49,442.4,11.5,456,0.4,434.9c0.4,2.9,0.9,5.5,1.7,8.1
		c0.1,0.3,0.2,0.7,0.3,1c3.3,9.8,9.6,17.6,18.1,22.3c0.7,0.5,1.5,0.9,2.2,1.4c0.2,0.1,0.5,0.2,0.7,0.3c5.3,3.1,11.5,5.6,18.5,7.3
		c3.5,0.7,6.9,1.4,10.4,2c0,0,0,0,0.1,0c50.5,9.1,102.3,8.4,152.5-2.1c10.2-2.4,18.7-6.6,25.2-11.9
		C241.1,443.4,210.9,417.9,174.2,390.6z"/>
	
		<linearGradient id="SVGID_10_" gradientUnits="userSpaceOnUse" x1="-83.9904" y1="-246.9577" x2="-86.6435" y2="-144.0924" gradientTransform="matrix(-0.5 -0.866 0.866 -0.5 186.1409 288.3196)">
		<stop  offset="0" style="stop-color:#FFFFFF;stop-opacity:0.5"/>
		<stop  offset="1" style="stop-color:#FFFFFF;stop-opacity:0"/>
	</linearGradient>
	<path class="st10" d="M91.7,425.4c-42.5,18.3-79.9,31.7-91.1,10.7c0-0.1-0.1-0.1-0.1-0.2c0.1,1.2,0.3,1.9,0.5,3
		c0,0.3,0.2,0.9,0.3,1.2c0.1,0.3,0.2,0.8,0.3,1.1c0.1,0.4,0.2,0.9,0.3,1.3c28.2,20.3,73.8,29.8,123.3,22.6
		c36.9-5.4,69.2-19.1,92-37.2c-10.7-11.4-26.1-23.5-42.8-36C148.5,399.8,119,413.6,91.7,425.4z"/>
	
		<linearGradient id="SVGID_11_" gradientUnits="userSpaceOnUse" x1="-192.8031" y1="191.6065" x2="-376.111" y2="216.8662" gradientTransform="matrix(-0.5 -0.866 0.866 -0.5 -141.5818 213.9055)">
		<stop  offset="0" style="stop-color:#838383"/>
		<stop  offset="1" style="stop-color:#C4C4C4"/>
	</linearGradient>
	<path class="st11" d="M103.8,335.8c19.8,18.4,46.4,37,70.3,54.8c37.2,27.7,67.6,53.7,54.9,73.9c2.3-1.7,4.5-3.8,6.4-5.8
		c0.2-0.3,0.5-0.5,0.7-0.8c6.8-7.8,10.4-17.1,10.3-26.9c0-0.9,0.1-1.7,0.1-2.6c0-0.3,0-0.5-0.1-0.8c0-6.2-0.9-12.8-3-19.7
		c-1.1-3.4-2.3-6.7-3.5-10c0,0,0,0,0-0.1c-17.3-48.3-43.8-92.8-78.1-131.1c-7.2-7.6-15-12.9-22.9-15.9
		C116,251.5,109.1,290.4,103.8,335.8z"/>
	
		<linearGradient id="SVGID_12_" gradientUnits="userSpaceOnUse" x1="324.9556" y1="-476.1457" x2="322.3047" y2="-373.3633" gradientTransform="matrix(-0.5 0.866 -0.866 -0.5 15.1648 -91.928)">
		<stop  offset="0" style="stop-color:#FFFFFF;stop-opacity:0.5"/>
		<stop  offset="1" style="stop-color:#FFFFFF;stop-opacity:0"/>
	</linearGradient>
	<path class="st12" d="M175.3,390c37.1,27.7,67.4,52.9,54.8,73.1c-0.1,0.2-0.6,0.8-0.5,0.8c0.9-0.7,2-1.7,2.9-2.4
		c0.2-0.2,0.5-0.5,0.7-0.7c0.2-0.2,0.3-0.3,0.6-0.6c0.3-0.3,0.9-0.9,1.2-1.2c3.5-34.6-11.1-78.5-42.1-117.8
		c-23.1-29.3-51.1-50.4-78.2-61.1c-4.5,14.9-7.3,34.3-9.7,55.1C124.8,353.6,151.5,372.2,175.3,390z"/>
	
		<linearGradient id="SVGID_13_" gradientUnits="userSpaceOnUse" x1="215.9612" y1="-37.5544" x2="32.6366" y2="-12.2924" gradientTransform="matrix(-0.5 0.866 -0.866 -0.5 114.5828 229.0954)">
		<stop  offset="0" style="stop-color:#838383"/>
		<stop  offset="1" style="stop-color:#C4C4C4"/>
	</linearGradient>
	<path class="st13" d="M91.6,424.2c6.1-26.3,8.9-58.7,12.4-88.3c5.4-46.1,12.4-85.4,36.3-84.5c-2.7-1.1-5.2-2-7.9-2.6
		c-0.3-0.1-0.7-0.2-1-0.2c-10.1-2-20-0.5-28.4,4.5c-0.8,0.4-1.5,0.8-2.3,1.2c-0.2,0.1-0.4,0.3-0.7,0.4c-5.4,3.1-10.6,7.2-15.6,12.4
		c-2.4,2.6-4.7,5.3-7,8c0,0,0,0-0.1,0.1c-33.1,39.1-58.4,84.3-74.5,133.1c-4.8,16.2-2,29.7-2.3,27.9
		C12.5,455.9,49.6,442.3,91.6,424.2z"/>
	
		<linearGradient id="SVGID_14_" gradientUnits="userSpaceOnUse" x1="318.7842" y1="-7.8096" x2="316.1323" y2="95.0148" gradientTransform="matrix(1 0 0 1 -228.3056 246.61)">
		<stop  offset="0" style="stop-color:#FFFFFF;stop-opacity:0.5"/>
		<stop  offset="1" style="stop-color:#FFFFFF;stop-opacity:0"/>
	</linearGradient>
	<path class="st14" d="M103.2,335.3c5.4-45.9,12.4-85.1,36.1-84.2c0.1,0-1.7-0.7-2.8-1.1c-0.3-0.1-0.7-0.2-1-0.3
		c-0.3-0.1-0.6-0.2-0.9-0.3c-0.4-0.1-1-0.2-1.4-0.3c-31.7,14.3-62.5,49-81,95.4c-13.8,34.7-18,69.5-13.8,98.3
		c15.2-3.6,33.4-10.8,52.6-19.1C96.9,397.3,99.7,364.9,103.2,335.3z"/>
</g>
<g>
	<path class="st15" d="M361.1,686c-0.7,0.8-1.7,1.2-3.1,1.2h-4.9c-0.1,1.2-0.1,2.5-0.1,3.8c0,1.3,0,2.5,0,3.8
		c-0.1,1.5-0.1,2.9-0.1,4.4c0,1.4-0.1,2.8-0.2,4c-0.4,3.2-1.7,4.8-3.9,5c-0.9,0-1.7-0.4-2.7-1.1c-0.9-0.7-1.7-1.8-2.3-3.3
		c-0.2-0.6-0.3-1.3-0.3-2.4c0-0.7,0-1.3,0.1-1.9c0.1-0.6,0.3-1.2,0.6-1.7c0-1.8,0-3.5,0-5.1c0-1.6,0.1-3.4,0.2-5.5c-2,0-3.9,0-5.9,0
		c-2,0-3.8,0.1-5.7,0.1c-1.6,0.1-3.1,0.1-4.7,0.1c-1.5,0-2.9,0-4.3,0h-2.6c-0.1,0.9-0.1,1.6-0.2,2.2c-0.1,0.6-0.1,1.3-0.2,1.9
		c-0.1,1.2-0.2,2.2-0.3,3.2c-0.1,1-0.1,2.1-0.1,3.4v0.1c0.2,0.5,0.5,1,0.7,1.5c0.2,0.5,0.4,1.1,0.5,1.7v0.8c0,1-0.3,1.9-0.8,2.6
		c-0.5,0.7-1.1,1.2-1.8,1.5c-0.7,0.3-1.4,0.5-2.1,0.5c-0.9,0-1.8-0.3-2.6-0.9c-0.8-0.6-1.4-1.5-1.8-2.7v0.1
		c-0.3-0.7-0.5-1.5-0.6-2.4c-0.1-0.9-0.2-1.9-0.2-2.8c0-1.2,0.1-2.5,0.2-3.9c0.1-1.4,0.3-2.9,0.5-4.4c0-0.3,0-0.7,0.1-1.1
		s0.1-0.8,0.2-1.3h-2.2c-0.7,0-1.3,0-1.8,0c-0.5,0-0.9-0.1-1.2-0.1c-1.5-0.1-2.7-0.5-3.4-1.2c-0.7-0.7-1.1-1.6-1.1-2.6
		c0-0.9,0.3-1.8,1-2.7c0.7-0.9,1.7-1.5,3-2c0.6-0.2,1.2-0.4,1.9-0.4c0.8,0,1.5,0.1,2,0.4l-0.1-0.1c0.9,0.1,1.8,0.2,2.6,0.3
		c0.2-1.8,0.4-3.8,0.6-6.1c0.2-2.3,0.5-4.6,0.7-7.1c0.2-2.4,0.4-4.8,0.6-7.1c0.2-2.4,0.2-4.5,0.2-6.5v-2.1c0-1.5,0.4-2.7,1.3-3.4
		c0.9-0.8,1.9-1.1,3-1.1h0.2c0.9,0,1.7,0.3,2.5,1c0.8,0.6,1.5,1.6,2,2.8c0.1,0.2,0.1,0.3,0.1,0.2c0,0,0,0.4,0,1.4
		c0,0.4,0,0.8-0.1,1.2c-0.1,0.4-0.3,0.8-0.6,1.2v0.9c0,2.1-0.1,4.7-0.4,8c-0.3,3.2-0.6,6.5-0.9,9.8c-0.1,1.3-0.2,2.5-0.4,3.8
		c-0.1,1.2-0.2,2.4-0.4,3.5c1.5,0,3.1,0,4.9,0c1.7,0,3.5,0,5.3-0.1c2.1-0.1,4.2-0.1,6.2-0.1c2.1,0,4.1,0,6.1,0
		c0.1-2,0.2-4.2,0.3-6.6c0.1-2.4,0.2-4.8,0.3-7.1c0.1-2.4,0.1-4.7,0.2-6.9c0.1-2.2,0.1-4.2,0.1-5.8c0-0.7,0-1.3,0-1.9
		c0-0.7,0-1.3-0.1-1.7c-0.1-0.1-0.1-0.2-0.1-0.2c0,0-0.1-0.1-0.1-0.2c-0.2-0.2-0.4-0.5-0.6-1v0.1c-0.2-0.4-0.3-0.9-0.4-1.4
		c-0.1-0.5-0.1-1-0.1-1.5c0-0.3,0-0.6,0-0.8c0-0.3,0-0.6,0.1-0.8c0.3-1,0.9-1.8,1.8-2.4c0.9-0.6,1.9-0.9,2.9-0.9
		c1.4,0,2.6,0.7,3.6,2c0.5,0.9,0.8,1.8,1,2.8c0.2,1,0.3,2,0.3,3.1c0.1,0.5,0.1,1.1,0.1,1.7c0,0.7,0,1.5,0,2.4c0,1.8,0,3.8-0.1,6.1
		c-0.1,2.3-0.1,4.6-0.2,7s-0.1,4.8-0.2,7.1c-0.1,2.3-0.1,4.4-0.2,6.2c0,0.5,0,0.8-0.1,1h4.8c1.4,0,2.4,0.4,3.1,1.2
		c0.7,0.8,1,1.8,1,2.8C362.1,684.3,361.8,685.2,361.1,686z"/>
	<path class="st15" d="M417.5,695.2c0,0.7-0.2,1.4-0.6,2.1c-0.4,0.7-0.9,1.2-1.6,1.6c-2.1,1.1-4.4,2.1-7.1,3.1
		c-2.6,0.9-5.1,1.5-7.3,1.8c-0.4,0.1-0.9,0.1-1.3,0.1c-0.4,0-0.8,0-1.1,0c-2,0-3.6-0.3-4.8-1c-1.2-0.6-2.3-1.7-3.3-3.1v0.1
		c-0.4-0.6-0.8-1.5-1.2-2.6c-0.4-1.1-0.5-2.2-0.5-3.1c-0.2,0-0.4,0.1-0.6,0.3c-0.8,0.5-1.8,1.2-3,2.2c-1.2,1-2.5,2.1-3.8,3.3
		c-0.9,0.7-1.7,1.3-2.4,2c-0.8,0.6-1.5,1.3-2.2,1.9c-2.6,1.9-5.1,2.8-7.3,2.8c-1.9,0-3.5-0.6-4.9-1.7c-1.7-1.5-2.6-3.7-2.6-6.7
		c0.1-2.8,0.8-5.3,2.1-7.8c0.9-1.8,2-3.6,3.3-5.3c1.3-1.7,2.7-3.3,4.2-4.8s2.9-2.9,4.4-4.1c1.5-1.2,2.9-2.3,4.2-3.1
		c1.5-0.9,3.2-1.9,5.2-3c2-1.1,4.2-1.6,6.4-1.6c1.2,0,2.5,0.2,3.7,0.7c1.3,0.5,2.5,1.2,3.8,2.2c0.6,0.5,1,1,1.3,1.6
		c0.2,0.6,0.4,1.1,0.4,1.6c0,0.8-0.2,1.5-0.5,2.1c-0.4,0.7-1,1.2-1.7,1.6c-0.7,0.4-1.5,0.6-2.3,0.6c-0.9,0-1.8-0.3-2.6-0.8
		c-0.4-0.4-0.9-0.6-1.4-0.8c-0.5-0.2-1.1-0.2-1.6-0.2c-1.7,0-3.7,0.8-6.1,2.4c-1.1,0.7-2.3,1.6-3.6,2.8c-1.3,1.1-2.6,2.3-3.8,3.6
		c-1.3,1.3-2.4,2.7-3.5,4.1c-1.1,1.4-1.9,2.8-2.5,4.1c-0.2,0.3-0.3,0.7-0.4,1.2c-0.1,0.5-0.1,1-0.1,1.4c0,0.4,0,0.7,0.1,0.7
		c0,0.1,0.1,0.2,0.2,0.2c0.4,0,0.9-0.3,1.6-0.8l1.1-0.8c1-0.8,2.1-1.7,3.3-2.8c1.2-1.1,2.5-2.1,3.8-3.2c1.3-1,2.6-2,3.8-3
		c1.3-0.9,2.4-1.7,3.3-2.3v0.1c1.6-1,3.1-1.5,4.6-1.5c1.2,0,2.2,0.4,3,1.1c0.8,0.7,1.2,1.9,1.2,3.4v1.4c0,0.9,0,1.6,0.1,2.3
		c0.1,0.7,0.2,1.2,0.4,1.6c0.3,0.9,0.7,1.4,1.1,1.7s1,0.5,1.7,0.5h0.4c0.7-0.1,1.6-0.3,2.6-0.6c1-0.2,2-0.5,3-0.9
		c1-0.3,2-0.7,2.9-1.1c0.9-0.4,1.8-0.7,2.4-1.1c0.7-0.4,1.4-0.6,2-0.6c1.2,0,2.2,0.5,3,1.5v0.1C417.2,693.5,417.5,694.3,417.5,695.2
		z"/>
	<path class="st15" d="M496,697.9c-0.7,0.6-1.4,0.9-2.3,0.9c-0.3,0-0.6-0.1-0.8-0.2c0.1,0.1,0.1,0.2,0,0.1c-0.2-0.1-0.4-0.1-0.6-0.2
		c-0.4,0.1-1,0.3-1.7,0.4c-0.7,0.2-1.5,0.3-2.4,0.5c-0.9,0.2-1.7,0.4-2.7,0.6c-0.9,0.2-1.8,0.5-2.7,0.7c-2.2,0.9-4.3,1.3-6.2,1.3
		c-1.6,0-3.1-0.3-4.5-0.8c-1.4-0.5-2.7-1.5-3.8-2.8c-1.5-1.6-2.6-3.6-3.4-5.8c-0.8-2.2-1.6-4.6-2.2-7.2c-0.3-0.9-0.6-1.4-1-1.4
		c-0.9,0-2.4,0.8-4.5,2.3c-0.4,0.2-1,0.7-1.8,1.4c-0.8,0.7-1.7,1.5-2.7,2.5c-1,1-2,2-3,3.1c-1,1.1-2,2.2-2.9,3.3
		c-0.5,0.7-1.1,1.2-1.9,1.6c-0.8,0.4-1.6,0.6-2.4,0.6c-0.9,0-1.7-0.2-2.5-0.6c-0.8-0.4-1.4-1-1.8-1.8c-0.5-0.9-0.9-1.9-1.2-2.9
		c-0.3-1-0.7-2-1-2.9h0.1c-0.3-0.9-0.6-1.7-0.9-2.5s-0.6-1.6-1-2.5v0.1c-0.2-0.3-0.4-0.5-0.6-0.5c-0.1,0-0.2,0-0.3,0s-0.2,0-0.3,0
		c-0.8,0.2-1.6,0.8-2.6,1.9c-0.7,1-1.4,1.9-2.3,2.8c-0.9,0.9-1.7,1.9-2.7,2.9c-0.7,0.7-1.4,1.5-2,2.3c-1.2,1.3-2.2,2.6-3.2,3.9
		c-0.9,1.3-1.7,2.5-2.3,3.5c-0.5,0.8-1.1,1.4-1.9,1.7c-0.8,0.4-1.5,0.6-2.2,0.6c-0.4,0-0.7,0-1.1-0.1c-0.4-0.1-0.7-0.2-1-0.4h0.1
		c-1.8-0.9-2.7-2.3-2.8-4.4c-0.1-1.6-0.2-3.5-0.2-5.4c0-2,0-3.9,0-5.9c0-2.5,0-4.9,0-7.1c0-2.2,0.1-4,0.2-5.4
		c0.2-1.4,0.7-2.4,1.5-3.1c0.8-0.6,1.8-1,2.9-1h0.2c1,0,2,0.4,2.8,1.1c0.9,0.7,1.3,1.7,1.3,2.9v0.3c-0.1,1.7-0.2,3.5-0.3,5.4
		c-0.1,1.9-0.1,3.7-0.1,5.5v2c0.2-0.3,0.5-0.6,0.7-0.9c0.2-0.3,0.5-0.6,0.8-0.9c0.6-0.7,1.2-1.4,1.9-2.1c0.6-0.7,1.3-1.5,2-2.3
		l1.3-1.6c1.1-1.3,2.5-2.6,4.1-3.8c1.6-1.2,3.3-1.9,5-2.2c0.2-0.1,0.5-0.1,0.7-0.1c0.2,0,0.5,0,0.8,0c1.3,0,2.5,0.4,3.6,1.1
		c1.1,0.7,2.1,1.9,3,3.7c0.3,0.9,0.6,1.7,1,2.7c0.4,0.9,0.7,1.8,1,2.6c0.2,0.7,0.4,1.3,0.6,1.6c0.1,0.1,0.1,0.2,0,0.2l0.4-0.2
		c0.6-0.6,1.2-1.2,1.9-1.9c0.7-0.7,1.4-1.4,2.2-2.1c0.7-0.7,1.4-1.4,2.2-2c0.7-0.6,1.3-1.2,1.9-1.7c4.3-3.6,8.1-5.4,11.2-5.4h0.2
		c3.6,0,6,2.4,7.1,7.3c0.4,2.1,1,4.3,1.8,6.4c0.8,2.1,1.6,3.7,2.5,4.8c0.7,0.7,1.5,1.1,2.4,1.1c0.8,0,1.6-0.2,2.4-0.5
		c1.1-0.4,2.2-0.7,3.4-1.1c1.2-0.3,2.4-0.7,3.6-1c1.2-0.3,2.3-0.6,3.4-0.8c1.1-0.2,2-0.4,2.7-0.4h0.6c0.9,0,1.6,0.1,2.2,0.3
		c0.6,0.2,1.1,0.5,1.6,1v-0.1c0.9,0.7,1.3,1.6,1.3,2.7c0,0.8-0.3,1.6-0.8,2.3v-0.1C497.2,696.8,496.6,697.4,496,697.9z"/>
	<path class="st15" d="M526.8,679.9c0,2.8-0.8,5.6-2.5,8.6v-0.1c-0.7,1.5-1.6,3.1-2.7,4.8c-1.1,1.6-2.3,3.2-3.7,4.7
		c-2.1,2.3-4.4,4.4-6.8,6.1c-2.5,1.7-5,3.5-7.7,5.2h0.1c-0.7,0.5-1.5,0.7-2.4,0.7c-1.3,0-2.4-0.8-3.5-2.4c-0.3-0.6-0.5-1.2-0.5-1.7
		c0-1.5,0.6-2.7,1.7-3.6c2.7-1.8,5.2-3.4,7.4-5c2.2-1.5,4-3.3,5.6-5.2c1-1.2,2-2.4,2.9-3.8c0.9-1.4,1.6-2.6,2.1-3.6
		c0.7-1.3,1-2.4,1-3.1c0-0.4-0.1-0.7-0.3-1.1c-0.4-0.4-1-0.5-1.9-0.5c-0.1,0-0.3,0-0.5,0c-0.2,0-0.4,0-0.7,0.1
		c-1.4,0.1-3.1,0.5-5.2,1.2c-2,0.7-4,1.6-6,2.8c-1,0.6-1.9,1.3-2.7,2.1c-0.8,0.8-1.5,1.6-1.9,2.4c-0.1,0.2-0.2,0.4-0.2,0.6
		c0,0.1-0.1,0.2-0.1,0.4l-0.3,0.7l0.1-0.1c-0.1,0.3-0.1,0.6-0.1,0.9c0,0.3,0,0.5,0,0.7c0,0.4,0,0.8,0,1.2c0,0.4,0.1,0.7,0.1,1.1v0.8
		c-0.1,1.4-0.6,2.5-1.3,3.2c-0.8,0.7-1.7,1.1-2.7,1.1c-0.9,0-1.7-0.3-2.6-0.9c-0.9-0.6-1.4-1.6-1.7-3c-0.3-1.3-0.5-2.8-0.6-4.5
		c-0.1-1.7-0.1-3.6-0.1-5.5c0-2.8,0.1-5.8,0.3-9c0.2-3.2,0.5-6.3,0.8-9.3c0.3-3,0.7-5.9,1.1-8.5c0.4-2.7,0.8-4.9,1.2-6.7
		c0.2-1,0.4-1.9,0.6-2.7c0.2-0.8,0.6-1.6,1.2-2.3c0.8-1.3,2-2,3.8-2h0.4c1,0,1.9,0.3,2.7,0.9c0.7,0.6,1.1,1.4,1.1,2.5v0.6
		c-0.1,0.6-0.2,1.1-0.5,1.6c-0.2,0.6-0.5,1-0.6,1.5c-0.2,0.5-0.4,0.8-0.4,0.8l0.1-0.1c-0.2,1.6-0.5,3.4-0.8,5.4s-0.6,4.1-0.9,6.4
		c-0.3,2.2-0.5,4.5-0.8,6.9c-0.2,2.4-0.5,4.8-0.6,7.1c0.6-0.5,1.1-0.9,1.8-1.3c0.6-0.4,1.3-0.8,1.9-1.1c1.7-0.9,3.7-1.8,6-2.6
		s4.7-1.3,7-1.6h-0.1c0.5-0.1,0.9-0.2,1.4-0.2c0.5,0,1,0,1.5,0c1.8,0,3.3,0.3,4.5,0.8c1.2,0.6,2.3,1.3,3.2,2.1h0.1
		C526.2,675.5,526.8,677.5,526.8,679.9z"/>
	<path class="st15" d="M587.8,695.5c0,0.7-0.2,1.3-0.5,1.9c-0.3,0.6-0.9,1.2-1.6,1.6c-1.4,0.9-3.2,1.6-5.2,2.3s-4.3,1.3-6.6,1.7
		c-0.4,0.1-0.7,0.1-1.1,0.1c-0.4,0-0.7,0-1.1,0c-1.9,0-3.7-0.4-5.5-1.1c-1.7-0.7-3.1-1.8-4.1-3.3c-0.4-0.7-0.8-1.3-1.1-2
		c-0.3-0.6-0.5-1.4-0.6-2.2c-1.2,1.4-2.5,2.8-3.9,4c-1.4,1.3-2.8,2.4-4.2,3.2c-3.8,2.4-7.4,3.6-10.9,3.6c-1.3,0-2.4-0.1-3.4-0.3h0.1
		c-3.8-0.9-6.4-3.3-7.8-7.1c-0.4-1-0.7-2.2-0.9-3.5c-0.2-1.3-0.2-2.6-0.2-3.8c0-2.7,0.2-5.3,0.7-7.9c0.5-2.6,1-4.6,1.5-6
		c0.5-1.1,1.2-1.9,2-2.4c0.9-0.5,1.7-0.8,2.7-0.8c1,0,1.8,0.3,2.6,1c0.8,0.6,1.1,1.5,1.1,2.5c0,0.2,0,0.5,0,0.7
		c0,0.2-0.1,0.4-0.2,0.7l0.1-0.1c-0.6,1.8-1.1,3.7-1.5,5.9c-0.4,2.2-0.6,4.2-0.6,6.1c0,1.7,0.2,3.1,0.6,4.2c0.4,1.2,1.1,2,2.2,2.4
		c0.5,0.1,1,0.2,1.6,0.2c0.8,0,1.7-0.2,2.6-0.5c0.9-0.3,1.9-0.8,2.9-1.5c3.5-2.4,6.3-5,8.5-7.9c2.2-2.9,3.7-5.7,4.7-8.5
		c0.4-0.9,1-1.6,1.7-1.9c0.7-0.4,1.5-0.6,2.3-0.6c0.1,0,0.3,0,0.5,0c0.2,0,0.4,0.1,0.7,0.2l-0.1-0.1c0.9,0.2,1.6,0.6,2.2,1.2
		c0.6,0.6,1,1.4,1,2.3c0,0.1,0,0.2,0,0.4s0,0.3-0.1,0.6v-0.1c-0.7,2.9-1,5.3-1,7.3c0,0.9,0.1,1.7,0.2,2.5c0.1,0.7,0.3,1.4,0.5,1.9
		v-0.1c0.3,0.9,0.8,1.4,1.3,1.7c0.6,0.3,1.2,0.5,2,0.5c0.1,0,0.2,0,0.4,0c0.1,0,0.3,0,0.5,0c1.7-0.2,3.3-0.6,4.8-1.1
		c1.6-0.6,2.9-1.2,4.1-1.8c0.8-0.4,1.6-0.6,2.3-0.6c1.6,0,2.7,0.8,3.3,2.3C587.7,694.1,587.8,694.8,587.8,695.5z"/>
	<path class="st15" d="M614.2,685.2c-0.3,0-0.6,0-1-0.1c-0.4-0.1-0.7-0.2-1-0.5h0.1c-0.9-0.4-1.5-0.6-1.9-0.6c-0.1,0-0.3,0-0.5,0
		c-0.2,0-0.3,0-0.5,0.1c-0.9,0.1-1.9,0.4-3.1,0.7c-1.2,0.4-2.5,0.8-3.8,1.4c-1.3,0.6-2.7,1.2-4,2c-1.4,0.7-2.6,1.5-3.8,2.2
		c-1.8,1.1-3,2.2-3.7,3.3c-0.5,0.8-0.8,1.5-0.9,2.2c-0.1,0.6-0.2,1.4-0.4,2.2V698c-0.1,1.3-0.6,2.3-1.4,3c-0.8,0.6-1.7,1-2.8,1
		c-1,0-2-0.4-2.8-1.1c-0.8-0.7-1.3-1.8-1.3-3.2c-0.1-0.6-0.1-1.2-0.1-1.8c0-0.7,0-1.4,0-2.1v-4.2c0-1.4,0-2.7,0.1-4
		c0.1-1.2,0.2-2.4,0.3-3.3c-0.5-0.3-0.7-0.8-0.7-1.5c0-0.4,0.2-0.9,0.5-1.3c0.6-0.9,1-1.9,1.5-3v0.1c0.3-0.9,0.8-1.5,1.4-1.8
		c0.6-0.3,1.3-0.5,2.1-0.5c0.1,0,0.3,0,0.6,0.1c0.3,0.1,0.6,0.1,1,0.1c0.7,0.2,1.3,0.7,1.8,1.2c0.5,0.6,0.8,1.3,0.8,2.2
		c0,0.1,0,0.2,0,0.4c0,0.1,0,0.2,0,0.4c-0.2,0.7-0.3,1.6-0.5,2.7c-0.1,1.1-0.2,2.1-0.3,3c0.1-0.1,0.2-0.1,0.3-0.1
		c0.1,0,0.2-0.1,0.3-0.2c0.1-0.1,0.3-0.2,0.5-0.3c1.3-0.9,2.8-1.8,4.5-2.7c1.7-0.9,3.5-1.7,5.3-2.4c1.8-0.7,3.6-1.3,5.3-1.8
		c1.7-0.5,3.3-0.8,4.7-0.8h0.4c1.2,0,2.3,0.2,3.3,0.5c1,0.4,1.7,0.7,2.2,1.1c1,0.8,1.6,1.8,1.6,3c0,1-0.3,2-0.8,2.8h0.1
		C616.6,684.6,615.5,685.2,614.2,685.2z"/>
	<path class="st15" d="M650.8,672c0.4,0.7,0.5,1.4,0.5,2.1c0,1.2-0.4,2.3-1.2,3.2c-0.8,0.9-1.8,1.3-2.8,1.3c-0.7,0-1.3-0.2-2-0.6
		h0.1c-0.4-0.2-1.1-0.4-1.9-0.4c-1,0-2.2,0.2-3.5,0.7c-1.3,0.5-2.7,1.1-4,1.8c-1.4,0.7-2.7,1.6-4.1,2.6c-1.3,1-2.6,2.1-3.7,3.2h0.1
		c-0.9,1-1.6,2.2-2.4,3.4c-0.7,1.2-1.2,2.3-1.3,3.2v0.5c0,0.3,0.1,0.5,0.3,0.5c0.4,0,0.9-0.2,1.6-0.6c0.9-0.5,1.8-1,2.8-1.6
		c1-0.6,2-1.2,3.1-1.7c1-0.5,2.1-1.1,3.1-1.5c1-0.5,2-0.8,2.9-1.1c0.3-0.1,0.6-0.2,1-0.2c0.4,0,0.8,0,1.2,0c1,0,2,0.2,2.8,0.6
		c0.9,0.4,1.5,1.2,2,2.2c0.2,0.5,0.5,1.3,0.8,2.3c0.3,1,0.5,2.2,0.7,3.6c0.2,1.4,0.4,2.9,0.5,4.5c0.2,1.7,0.2,3.3,0.2,5
		c0,1.7-0.1,3.4-0.2,5.1c-0.2,1.7-0.4,3.3-0.8,4.7c-0.9,3.9-2.4,7.5-4.5,10.9c-2.2,3.4-5.2,6.4-9,8.8l0.1-0.1
		c-0.8,0.5-1.6,0.7-2.3,0.7c-0.8,0-1.5-0.2-2.2-0.6c-0.7-0.4-1.2-0.9-1.6-1.4c-0.2-0.3-0.4-0.7-0.6-1.1c-0.2-0.4-0.2-0.8-0.2-1.2
		c0-1.3,0.7-2.5,2.1-3.6c3.1-1.9,5.3-4,6.8-6.5c1.5-2.4,2.5-5,3.1-7.8c0.3-1.4,0.5-2.7,0.6-3.8c0.1-1.1,0.1-2.2,0.1-3.3
		c0-1.4-0.1-2.8-0.2-4.1c-0.1-1.3-0.3-2.7-0.6-3.9c0-0.1,0-0.2,0-0.4c0-0.1,0-0.2,0-0.4c-0.1-0.5-0.2-0.7-0.6-0.7
		c-0.2,0-0.4,0.1-0.6,0.2c-0.9,0.4-1.9,0.9-3.2,1.6c-1.3,0.7-2.6,1.4-3.9,2.1c-0.6,0.4-1.1,0.7-1.7,1h0.1c-1.1,0.7-2.2,1.2-3.3,1.5
		c-1.1,0.3-2.1,0.4-3.1,0.4c-2.1,0-3.8-0.7-5-2c-1.2-1.3-1.8-3.2-1.8-5.7c0-2.9,0.7-5.6,2.2-8.3c1.5-2.6,3.2-5,5.1-7.2
		c1.3-1.3,2.7-2.7,4.4-4c1.6-1.3,3.4-2.5,5.2-3.5c1.9-1,3.8-1.8,5.7-2.4c2-0.6,3.9-0.9,5.8-0.9c1,0,1.9,0,2.9,0.1
		c0.9,0.1,1.8,0.4,2.7,1v-0.1C649.9,670.6,650.5,671.3,650.8,672z"/>
	<path class="st15" d="M326.7,604.8c0,1-0.2,2-0.7,2.9c-0.4,1-1.3,1.8-2.5,2.5c-3.1,1.9-6.7,3.5-10.7,5c-4,1.4-8.2,2.6-12.5,3.6
		c-4.4,0.9-8.8,1.6-13.4,2.1c-4.6,0.4-8.9,0.7-13.1,0.7c-3.2-0.1-5.9-0.4-8.2-1.1c-2.2-0.6-4-1.7-5.4-3.2c-2.2-2.1-3.4-5.2-3.4-9.2
		c0-3.6,0.8-8,2.4-13.3c3.7-12.5,6.3-23.8,8-34c1.7-10.1,3-19,4-26.5c0.2-2,0.9-3.4,2.2-4.3s2.7-1.3,4.2-1.3c1.6,0,3,0.4,4.2,1.3
		c1.2,0.9,1.8,2.3,1.8,4.3v0.8c-0.8,9.4-2.2,19.4-4.2,30c-2,10.6-4.7,21.7-8,33.1c-0.4,1.5-0.8,2.8-1,4c-0.2,1.1-0.3,2.1-0.3,2.9
		c0,1.2,0.2,2.1,0.7,2.7c0.7,0.8,2.5,1.2,5.2,1.2c3.8-0.1,7.7-0.4,11.7-0.9c3.9-0.5,7.7-1.2,11.3-2.1c3.6-0.8,7-1.8,10-2.9
		c3.1-1.1,5.7-2.3,7.8-3.6c0.6-0.4,1.2-0.6,1.9-0.7c0.6-0.1,1.2-0.1,1.7-0.1c2.1,0,3.7,0.9,4.8,2.5l0.1,0.1
		C326.3,602.5,326.7,603.7,326.7,604.8z"/>
	<path class="st15" d="M402,618.8c0,0.9-0.2,1.7-0.5,2.3c-0.3,0.7-0.7,1.3-1.1,1.8c-0.5,0.7-1.2,1.3-1.9,1.7
		c-0.8,0.4-1.6,0.7-2.6,0.7c-1.7,0-3.2-0.7-4.6-2.1c-1.2-1.5-3.7-3.2-7.2-5c-3.6-1.8-7.6-3.8-12.1-6c-3.7-1.8-7.5-3.6-11.3-5.6
		c-3.8-1.9-7.3-3.8-10.4-5.7c0,1,0,1.9-0.1,2.6c0,0.8-0.1,1.5-0.1,2.2c0,0.7,0,1.5-0.1,2.3c0,0.9-0.1,1.7-0.1,2.5
		c0.4,0.4,0.9,0.9,1.3,1.3c0.4,0.4,0.6,0.7,0.7,0.9h-0.1c0.2,0.5,0.3,0.8,0.3,1.1c0,0.2,0,0.4,0,0.5c0,1.7-0.5,3.1-1.6,4.3
		c-0.5,0.7-1.1,1.3-1.8,1.7c-0.7,0.4-1.5,0.6-2.5,0.6c-1.2,0-2.2-0.3-3.2-0.9c-1-0.5-2.1-1.4-3.2-2.7c-1.2-1.3-1.7-3-1.7-5.4v-21.4
		c-1.2-2.2-1.9-4.9-1.9-7.9c0-2.9,0.8-5.4,2.5-7.6c0.1-2,0.2-4,0.3-6.2c0.1-2.1,0.2-4.3,0.4-6.6c0.2-3.7,0.3-7.2,0.5-10.5
		c0.1-3.4,0.2-6.4,0.2-9c0-2.3,0.7-4,2.1-4.9c1.4-0.9,3-1.4,4.7-1.4c1.9,0,3.3,0.6,4.3,1.7c1,1.1,1.6,2.6,1.9,4.4v0.9
		c0,1.3-0.3,2.9-0.9,4.7c0,1.5,0,3.2-0.1,5c-0.1,1.8-0.2,3.7-0.4,5.6c-0.2,1.5-0.3,3-0.4,4.6c-0.1,1.5-0.1,3-0.1,4.4
		c1.8-0.9,3.8-1.8,6.1-2.7c2.3-0.9,4.6-1.8,6.9-2.8c2.3-0.9,4.6-1.8,6.8-2.7c2.2-0.9,4.2-1.8,5.9-2.6c1.7-0.8,3.2-1.5,4.2-2.1
		c1.1-0.6,1.7-1.2,1.9-1.6c0.6-1.2,1.6-2.1,2.8-2.6c1.2-0.5,2.5-0.7,3.8-0.7c2,0,3.3,0.6,4.2,1.7c0.8,1.2,1.2,2.5,1.2,3.9
		c0,0.2,0,0.4-0.1,0.7c0,0.3-0.1,0.5-0.1,0.7c-0.3,1.7-0.9,3.1-2,4.1c-1.1,1-2,1.9-2.8,2.5c-0.2,0.1-0.4,0.3-0.7,0.5
		c-2.3,1.3-5.3,2.8-8.9,4.4c-3.6,1.6-7.3,3.1-11.1,4.6c-3.9,1.6-7.6,3.1-10.9,4.6c-3.4,1.4-5.8,2.8-7.4,4l-0.3,4.6
		c1.5,1.4,3.3,2.8,5.4,4.2c2.1,1.4,4.4,2.7,6.8,4c2.4,1.3,4.9,2.6,7.4,3.8c2.5,1.3,5.1,2.5,7.7,3.8c2.5,1.2,4.9,2.4,7.2,3.6
		c2.3,1.1,4.5,2.2,6.5,3.4c2,1.1,3.8,2.2,5.4,3.3c1.6,1.1,2.8,2.1,3.7,3.2v0.1C401.5,616.4,402,617.6,402,618.8z"/>
	<path class="st15" d="M475.7,616c0,0.3,0.1,0.7,0.1,1.1c0,1.4-0.4,2.7-1.3,3.7c-0.9,1.1-2.2,1.8-4,2.3c-5.5,1.3-10.6,2.3-15.4,2.9
		c-4.8,0.6-9.4,0.9-13.7,0.9c-5.5,0-10.4-0.4-14.5-1.2c-5.8-1.2-10.3-2.9-13.3-5.2c-3.1-2.3-5.3-5.2-6.8-8.7
		c-0.8-1.7-1.4-3.5-1.7-5.4c-0.4-1.9-0.5-3.8-0.5-5.8c0-3.5,0.4-7.1,1.3-10.7c0.9-3.7,2.1-7.3,3.6-10.9c2-4.6,4.6-9.3,7.9-13.9
		c3.3-4.6,7-9,11-13.2c4-4.2,8.2-7.9,12.7-11.3c4.4-3.4,8.6-6.2,12.7-8.3c1.7-1,3.4-1.5,5-1.5c1.4,0,2.6,0.4,3.5,1.3
		c1.2,1.3,1.9,2.8,1.9,4.7c0,1.8-0.5,3.5-1.6,5.2h0.1c-1.5,2.6-3.6,3.9-6.2,3.9c-0.4,0-0.8,0-0.9-0.1c-3,1.8-6.3,4-9.8,6.8
		c-3.5,2.7-6.8,5.8-10,9.2c-3.2,3.4-6.2,7-8.8,10.9c-2.7,3.8-4.7,7.7-6,11.5c-0.9,2.6-1.7,5.2-2.3,8c-0.7,2.7-1,5.4-1,8
		c0,2.4,0.3,4.4,0.9,6c0.8,1.8,2.1,3.3,3.8,4.6c1.7,1.3,4.2,2.2,7.5,2.6c1.9,0.4,3.8,0.6,5.8,0.8c2,0.2,4,0.3,6.2,0.3
		c3.5,0,7.4-0.3,11.7-0.9c4.3-0.6,9.1-1.6,14.5-3c0.3-0.1,0.6-0.2,0.9-0.2c0.4,0,0.8-0.1,1.3-0.1c2.8,0,4.6,1.5,5.4,4.4l0.1,0.1
		C475.6,615.4,475.7,615.7,475.7,616z"/>
	<path class="st15" d="M543.1,615.9c-2.6,1.5-5.5,2.8-8.6,4c-2.2,0.8-4.9,1.6-7.9,2.4c-3,0.8-6.2,1.5-9.4,2.2
		c-3.3,0.7-6.5,1.2-9.8,1.6c-3.3,0.4-6.3,0.6-9,0.6h-0.5c-2.3,0-4.4-0.5-6.4-1.4c-1.9-0.9-3.6-2.5-5-4.6v0.1
		c-1.2-1.8-2.1-3.9-2.7-6.4c-0.7-2.5-1-5.2-1-8.4c0-1.1,0.1-2.4,0.3-3.9c0.2-1.5,0.5-3.1,0.8-4.7c0.3-1.6,0.6-3.2,1-4.8
		c0.4-1.6,0.7-3,0.9-4.2c-0.5,0.1-1.1,0.1-1.7,0.1c-0.5,0-1.1,0-1.6,0c-0.6,0-1.2,0-1.6-0.1h-0.4c-2.1,0-3.6-0.5-4.8-1.6
		c-1.1-1.1-1.7-2.4-1.8-3.9c0-2.1,1.1-4.1,3.3-5.9H477c1.2-1.1,2.9-1.6,4.8-1.6c0.9,0,1.9,0.2,2.9,0.7c0.7-0.1,1.5-0.2,2.3-0.3
		c0.8-0.1,1.6-0.2,2.4-0.4c1.3-3.7,2.5-7.3,3.4-10.9c0.9-3.6,1.5-6.5,1.8-8.8c0-0.3,0-0.6,0.1-0.9s0.1-0.6,0.1-1V553
		c-0.4,0.2-0.7,0.3-1,0.3c-0.3,0-0.6,0.1-0.7,0.2c-2.3,0.6-4.9,1.4-7.6,2.3l0.1-0.1c-0.6,0.4-1.4,0.5-2.4,0.5c-1.7,0-3-0.6-4-1.8
		c-1-1.2-1.5-2.6-1.5-4.1c0-1.2,0.3-2.3,1-3.5c0.7-1.2,1.8-2.1,3.3-2.7c4.3-1.7,8.7-3.1,13.3-4.1s9.2-1.8,13.7-2.4
		c4.5-0.6,8.9-1,13.3-1.1c4.3-0.2,8.4-0.3,12.1-0.3c1.7,0,3.3,0,4.8,0c1.5,0,3,0,4.4,0.1c2.1,0,3.6,0.6,4.7,1.8
		c1.1,1.2,1.6,2.5,1.6,3.8v0.8c-0.1,1.5-0.6,2.8-1.5,4c-0.9,1.1-2.3,1.7-4.1,1.7h-0.7c-1.5-0.1-3-0.1-4.4-0.1c-1.4,0-2.9,0-4.4,0
		c-4.7,0-9.4,0.2-14.1,0.5c-4.6,0.3-9.1,0.8-13.4,1.5c0.1,0.4,0.2,0.8,0.2,1.1c0,0.3,0.1,0.7,0.1,1.1c0,0.3,0,0.6-0.1,0.9
		s-0.1,0.6-0.1,0.9c-0.2,2.9-0.7,5.9-1.5,9.2c-0.9,3.3-1.8,6.7-2.7,10c3.1-0.5,6.4-1.1,9.7-1.6c3.4-0.5,6.6-1.1,9.8-1.7
		c3.2-0.6,6.2-1.1,9-1.7c2.8-0.5,5.2-1,7.3-1.5l-0.1,0.1c0.4-0.2,0.7-0.3,0.8-0.3c0.2,0,0.4,0,0.5,0c1.4,0,2.6,0.5,3.5,1.4
		c0.9,0.9,1.5,2.1,1.7,3.4c0,0.1,0,0.2,0.1,0.5s0.1,0.4,0.1,0.6c0,1.2-0.4,2.5-1.1,3.7c-0.7,1.2-2,2.1-3.7,2.6
		c-2.1,0.5-4.8,1.1-8.3,1.8c-3.5,0.7-7.2,1.3-11.2,2c-4,0.7-7.9,1.3-11.9,2c-3.9,0.7-7.4,1.2-10.3,1.5c-1.2,3.4-2.1,6.7-2.7,10
		c-0.6,3.3-1,6.4-1.1,9.4v0.9c0,1.3,0.1,2.4,0.3,3.5c0.2,1.1,0.6,1.9,1.1,2.4c0.6,0.7,1.6,1.1,3.1,1.1h0.7c3.9-0.2,8.6-0.7,14-1.6
		c5.4-0.9,10.7-2.2,15.7-4c2.1-0.7,4-1.5,5.7-2.4c1.7-0.9,3.1-2.1,4.4-3.6c1.5-1.5,3-2.3,4.6-2.3c1.8,0,3.2,0.5,4.3,1.5h-0.1
		c1.4,1.2,2.1,2.8,2.1,4.8c0,0.7-0.1,1.4-0.2,2.1c-0.1,0.7-0.5,1.4-1.1,2.1v-0.1C548,612.6,545.8,614.4,543.1,615.9z"/>
	<path class="st15" d="M586,555c0,0.8-0.2,1.5-0.6,2.2c-0.4,0.7-0.9,1.2-1.4,1.7c-0.4,0.2-0.9,0.4-1.3,0.5s-0.8,0.3-1.3,0.3
		c-1.4,0-2.6-0.8-3.6-2.3c-0.9-1.4-1.7-3.4-2.3-5.8c-0.6-2.5-0.9-4.9-0.9-7.3c0-1.2,0.1-2.5,0.3-3.7c0.2-1.2,0.5-2.2,0.9-3
		c1.2-1.9,2.5-2.8,4.2-2.8c0.7,0,1.3,0.1,1.9,0.4c0.8,0.5,1.5,1.1,2.1,1.9c0.6,0.8,0.9,1.8,0.9,3.1c0,1.2-0.1,2-0.4,2.6
		c-0.3,0.6-0.6,1.1-1.1,1.7v0.7c0,1.3,0.2,2.6,0.5,4c0.3,1.4,0.7,2.6,1.3,3.6v-0.1C585.7,553.1,586,553.9,586,555z"/>
	<path class="st15" d="M623,613.1c-0.9,1.2-2.3,1.9-4.2,2.1c-0.4,0.1-0.9,0.1-1.3,0.1c-0.4,0-0.8,0-1.2,0h-2.1
		c-0.8,1.2-2,1.7-3.5,1.7c-1.3,0-2.3-0.4-3.1-1.2c-0.1,0.1-0.3,0.1-0.7,0.1c-0.4,0-0.9,0-1.2,0.1c-1.1,0.8-2.2,1.2-3.5,1.2h-0.7
		c-3-0.4-5-2-5.9-4.8l0.1,0.1c-0.4-0.7-0.5-1.6-0.5-2.5c0-1.2,0.3-2.2,0.9-3.1c0.6-0.9,1.7-1.6,3.1-2.1c0.8-0.4,1.7-0.6,2.7-0.8
		c1-0.2,2-0.3,2.9-0.4c0-2.8,0.1-5.9,0.3-9.5c0.2-3.6,0.5-7.1,0.7-10.7c0.3-3.6,0.6-7,0.9-10.2c0.4-3.2,0.7-5.9,0.9-8
		c-0.6,0.4-1.3,0.7-2,1.1c-0.7,0.4-1.4,0.7-2.1,0.9c-0.2,0-0.3,0-0.3,0.1c0,0-0.2,0.1-0.3,0.1c-1,0-1.9-0.3-2.7-0.9
		c-0.8-0.6-1.4-1.3-1.9-2.1c-0.5-0.9-0.8-2-0.8-3.2c0-2.1,1.1-3.7,3.2-4.8h-0.1c0.5-0.4,1.3-0.8,2.3-1.3c1-0.5,2-1.2,3.1-1.9
		c0.8-0.5,1.6-1,2.3-1.5c0.8-0.4,1.4-0.9,1.8-1.2c1.1-0.8,2.3-1.2,3.6-1.2c1.8,0,3.4,0.7,4.7,2c1.3,1.3,2,2.9,2,4.7v0.7
		c-0.4,3-0.7,6.6-1.1,10.7c-0.4,4.1-0.8,8.3-1.2,12.6c-0.4,4.3-0.8,8.5-1.1,12.5c-0.4,4.1-0.6,7.6-0.8,10.5c1.2,0,2.3,0.1,3.2,0.3
		c0.9,0.2,1.7,0.6,2.4,1h-0.1c1.7,0.9,2.5,2.5,2.5,4.7C624.3,610.6,623.9,612,623,613.1z"/>
	<path class="st15" d="M700,559.1c0,2-0.8,3.9-2.4,5.9v-0.1c-3.6,4.4-7.4,9.6-11.5,15.6c-4.1,6-8,12.3-11.7,18.7
		c-3.7,6.4-7,12.8-10,19c-2.9,6.2-5.1,11.7-6.4,16.5c0.2,0.6,0.3,1.2,0.4,1.7c0.1,0.5,0.1,1,0.1,1.4c0,1.4-0.3,2.8-0.9,4
		c-0.7,1.2-1.7,2.2-2.8,2.7c-1.2,0.6-2.3,0.9-3.5,0.9c-0.7,0-1.4-0.1-2.1-0.3c-1.2-0.4-2.3-1.3-3.3-2.5c-0.9-1.3-1.4-2.8-1.4-4.6
		c0-0.4,0-0.9,0.1-1.5c0-0.5,0.1-1,0.2-1.5c1.7-6.1,4-12.3,6.9-18.8s6.1-12.7,9.5-18.9c3.4-6.2,7-12,10.7-17.6
		c3.7-5.5,7.1-10.5,10.3-14.7l-0.1,0.1c0.2-0.3,0.4-0.6,0.7-1.1h-3.4c-2.3-0.1-4.6-0.2-6.7-0.2c-2.1,0-4.4-0.1-6.7-0.1
		c-2.6,0-5.3,0.1-8.2,0.2c-2.9,0.1-6.1,0.3-9.8,0.6c-1,0.6-1.9,1.1-2.9,1.3c-0.9,0.2-1.9,0.3-2.9,0.3h-0.8c-1.7,0-3.2-0.5-4.6-1.5
		c-1.4-1-2.4-2.3-3-3.7c-0.2-0.3-0.3-0.6-0.4-1c-0.1-0.4-0.1-0.8-0.1-1.3c0-1.3,0.5-2.6,1.5-3.7c1-1.1,2.7-1.9,5.1-2.3
		c2.9-0.4,6.5-0.6,10.9-0.8c4.4-0.2,9-0.3,13.9-0.3c4.8,0,9.6,0,14.3,0.1c4.7,0,8.9,0.2,12.6,0.5c2.2,0.1,4,0.5,5.2,1.3
		c1.2,0.8,2.2,1.8,2.8,2.9C699.8,557.3,700,558.2,700,559.1z"/>
	<path class="st0" d="M174.3,642.7c-23.9-17.8-50.6-36.5-70.3-54.9c-3.5,29.6-6.3,62-12.3,88.3C119,664.4,148.5,650.6,174.3,642.7z"
		/>
	<linearGradient id="SVGID_15_" gradientUnits="userSpaceOnUse" x1="-44.2724" y1="687.6888" x2="148.7711" y2="687.6888">
		<stop  offset="0.2848" style="stop-color:#E85F2E"/>
		<stop  offset="1" style="stop-color:#FAC81E"/>
	</linearGradient>
	<path class="st16" d="M53.3,687.7C53.3,687.7,53.3,687.7,53.3,687.7C53.3,687.7,53.3,687.7,53.3,687.7
		C53.3,687.7,53.3,687.7,53.3,687.7z"/>
	<linearGradient id="SVGID_16_" gradientUnits="userSpaceOnUse" x1="209.6838" y1="682.3378" x2="26.4577" y2="707.5862">
		<stop  offset="0" style="stop-color:#E85F2E"/>
		<stop  offset="1" style="stop-color:#FAC81E"/>
	</linearGradient>
	<path class="st17" d="M174.2,642.2c-25.8,7.9-55.2,21.7-82.6,33.4C49,694,11.5,707.7,0.4,686.5c0.4,2.9,0.9,5.5,1.7,8.1
		c0.1,0.3,0.2,0.7,0.3,1c3.3,9.8,9.6,17.6,18.1,22.3c0.7,0.5,1.5,0.9,2.2,1.4c0.2,0.1,0.5,0.2,0.7,0.3c5.3,3.1,11.5,5.6,18.5,7.3
		c3.5,0.7,6.9,1.4,10.4,2c0,0,0,0,0.1,0c50.5,9.1,102.3,8.4,152.5-2.1c10.2-2.4,18.7-6.6,25.2-11.9
		C241.1,695,210.9,669.6,174.2,642.2z"/>
	
		<linearGradient id="SVGID_17_" gradientUnits="userSpaceOnUse" x1="-301.9477" y1="-372.7991" x2="-304.6007" y2="-269.9338" gradientTransform="matrix(-0.5 -0.866 0.866 -0.5 186.1409 288.3196)">
		<stop  offset="0" style="stop-color:#FFFFFF;stop-opacity:0.5"/>
		<stop  offset="1" style="stop-color:#FFFFFF;stop-opacity:0"/>
	</linearGradient>
	<path class="st18" d="M91.7,677.1c-42.5,18.3-79.9,31.7-91.1,10.7c0-0.1-0.1-0.1-0.1-0.2c0.1,1.2,0.3,1.9,0.5,3
		c0,0.3,0.2,0.9,0.3,1.2c0.1,0.3,0.2,0.8,0.3,1.1c0.1,0.4,0.2,0.9,0.3,1.3c28.2,20.3,73.8,29.8,123.3,22.6
		c36.9-5.4,69.2-19.1,92-37.2c-10.7-11.4-26.1-23.5-42.8-36C148.5,651.5,119,665.3,91.7,677.1z"/>
	
		<linearGradient id="SVGID_18_" gradientUnits="userSpaceOnUse" x1="-410.7603" y1="65.7651" x2="-594.0682" y2="91.0248" gradientTransform="matrix(-0.5 -0.866 0.866 -0.5 -141.5818 213.9055)">
		<stop  offset="0" style="stop-color:#E85F2E"/>
		<stop  offset="1" style="stop-color:#FAC81E"/>
	</linearGradient>
	<path class="st19" d="M103.8,587.5c19.8,18.4,46.4,37,70.3,54.8c37.2,27.7,67.6,53.7,54.9,73.9c2.3-1.7,4.5-3.8,6.4-5.8
		c0.2-0.3,0.5-0.5,0.7-0.8c6.8-7.8,10.4-17.1,10.3-26.9c0-0.9,0.1-1.7,0.1-2.6c0-0.3,0-0.5-0.1-0.8c0-6.2-0.9-12.8-3-19.7
		c-1.1-3.4-2.3-6.7-3.5-10c0,0,0,0,0-0.1c-17.3-48.3-43.8-92.8-78.1-131.1c-7.2-7.6-15-12.9-22.9-15.9
		C116,503.1,109.1,542.1,103.8,587.5z"/>
	
		<linearGradient id="SVGID_19_" gradientUnits="userSpaceOnUse" x1="542.9128" y1="-601.9871" x2="540.262" y2="-499.2046" gradientTransform="matrix(-0.5 0.866 -0.866 -0.5 15.1648 -91.928)">
		<stop  offset="0" style="stop-color:#FFFFFF;stop-opacity:0.5"/>
		<stop  offset="1" style="stop-color:#FFFFFF;stop-opacity:0"/>
	</linearGradient>
	<path class="st20" d="M175.3,641.7c37.1,27.7,67.4,52.9,54.8,73.1c-0.1,0.2-0.6,0.8-0.5,0.8c0.9-0.7,2-1.7,2.9-2.4
		c0.2-0.2,0.5-0.5,0.7-0.7c0.2-0.2,0.3-0.3,0.6-0.6c0.3-0.3,0.9-0.9,1.2-1.2c3.5-34.6-11.1-78.5-42.1-117.8
		c-23.1-29.3-51.1-50.4-78.2-61.1c-4.5,14.9-7.3,34.3-9.7,55.1C124.8,605.3,151.5,623.9,175.3,641.7z"/>
	
		<linearGradient id="SVGID_20_" gradientUnits="userSpaceOnUse" x1="433.9184" y1="-163.3958" x2="250.5939" y2="-138.1338" gradientTransform="matrix(-0.5 0.866 -0.866 -0.5 114.5828 229.0954)">
		<stop  offset="0" style="stop-color:#E85F2E"/>
		<stop  offset="1" style="stop-color:#FAC81E"/>
	</linearGradient>
	<path class="st21" d="M91.6,675.9c6.1-26.3,8.9-58.7,12.4-88.3c5.4-46.1,12.4-85.4,36.3-84.5c-2.7-1.1-5.2-2-7.9-2.6
		c-0.3-0.1-0.7-0.2-1-0.2c-10.1-2-20-0.5-28.4,4.5c-0.8,0.4-1.5,0.8-2.3,1.2c-0.2,0.1-0.4,0.3-0.7,0.4c-5.4,3.1-10.6,7.2-15.6,12.4
		c-2.4,2.6-4.7,5.3-7,8c0,0,0,0-0.1,0.1c-33.1,39.1-58.4,84.3-74.5,133.1c-4.8,16.2-2,29.7-2.3,27.9
		C12.5,707.5,49.6,693.9,91.6,675.9z"/>
	
		<linearGradient id="SVGID_21_" gradientUnits="userSpaceOnUse" x1="318.7842" y1="243.862" x2="316.1323" y2="346.6864" gradientTransform="matrix(1 0 0 1 -228.3056 246.61)">
		<stop  offset="0" style="stop-color:#FFFFFF;stop-opacity:0.5"/>
		<stop  offset="1" style="stop-color:#FFFFFF;stop-opacity:0"/>
	</linearGradient>
	<path class="st22" d="M103.2,587c5.4-45.9,12.4-85.1,36.1-84.2c0.1,0-1.7-0.7-2.8-1.1c-0.3-0.1-0.7-0.2-1-0.3
		c-0.3-0.1-0.6-0.2-0.9-0.3c-0.4-0.1-1-0.2-1.4-0.3c-31.7,14.3-62.5,49-81,95.4c-13.8,34.7-18,69.5-13.8,98.3
		c15.2-3.6,33.4-10.8,52.6-19.1C96.9,649,99.7,616.6,103.2,587z"/>
</g>
</svg>
