<?xml version="1.0" encoding="utf-8"?>
<!-- Generator: Adobe Illustrator 21.1.0, SVG Export Plug-In . SVG Version: 6.00 Build 0)  -->
<svg version="1.1" id="Ebene_1" xmlns="http://www.w3.org/2000/svg" xmlns:xlink="http://www.w3.org/1999/xlink" x="0px" y="0px"
	 viewBox="0 0 185 202.8" style="enable-background:new 0 0 185 202.8;" xml:space="preserve">
<style type="text/css">
	.st0{fill:none;}
	.st1{fill:url(#SVGID_1_);}
	.st2{fill:url(#SVGID_2_);}
	.st3{fill:url(#SVGID_3_);}
	.st4{fill:url(#SVGID_4_);}
	.st5{fill:url(#SVGID_5_);}
	.st6{fill:url(#SVGID_6_);}
	.st7{fill:url(#SVGID_7_);}
	.st8{fill:url(#SVGID_8_);}
	.st9{fill:url(#SVGID_9_);}
	.st10{fill:url(#SVGID_10_);}
	.st11{fill:url(#SVGID_11_);}
	.st12{fill:url(#SVGID_12_);}
	.st13{fill:url(#SVGID_13_);}
	.st14{fill:url(#SVGID_14_);}
	.st15{fill:#CCCCCC;}
	.st16{fill:url(#SVGID_15_);}
	.st17{fill:url(#SVGID_16_);}
	.st18{fill:url(#SVGID_17_);}
	.st19{fill:url(#SVGID_18_);}
	.st20{fill:url(#SVGID_19_);}
	.st21{fill:url(#SVGID_20_);}
	.st22{fill:url(#SVGID_21_);}
</style>
<g>
	<path d="M95,49.3c-0.2,0.2-0.5,0.3-0.8,0.3h-1.3c0,0.3,0,0.7,0,1c0,0.3,0,0.7,0,1c0,0.4,0,0.8,0,1.2c0,0.4,0,0.7,0,1.1
		c-0.1,0.8-0.4,1.3-1,1.3c-0.2,0-0.5-0.1-0.7-0.3c-0.2-0.2-0.4-0.5-0.6-0.9c0-0.1-0.1-0.4-0.1-0.6c0-0.2,0-0.3,0-0.5
		c0-0.2,0.1-0.3,0.2-0.5c0-0.5,0-0.9,0-1.3c0-0.4,0-0.9,0.1-1.4c-0.5,0-1,0-1.5,0c-0.5,0-1,0-1.5,0c-0.4,0-0.8,0-1.2,0
		c-0.4,0-0.8,0-1.1,0h-0.7c0,0.2,0,0.4,0,0.6c0,0.2,0,0.3,0,0.5c0,0.3-0.1,0.6-0.1,0.8c0,0.3,0,0.6,0,0.9v0c0.1,0.1,0.1,0.3,0.2,0.4
		c0.1,0.1,0.1,0.3,0.1,0.5v0.2c0,0.3-0.1,0.5-0.2,0.7c-0.1,0.2-0.3,0.3-0.5,0.4c-0.2,0.1-0.4,0.1-0.6,0.1c-0.2,0-0.5-0.1-0.7-0.2
		c-0.2-0.2-0.4-0.4-0.5-0.7v0c-0.1-0.2-0.1-0.4-0.2-0.6c0-0.2,0-0.5,0-0.7c0-0.3,0-0.7,0-1c0-0.4,0.1-0.7,0.1-1.2c0-0.1,0-0.2,0-0.3
		s0-0.2,0-0.3h-0.6c-0.2,0-0.3,0-0.5,0c-0.1,0-0.2,0-0.3,0c-0.4,0-0.7-0.1-0.9-0.3c-0.2-0.2-0.3-0.4-0.3-0.7c0-0.2,0.1-0.5,0.3-0.7
		c0.2-0.2,0.4-0.4,0.8-0.5c0.1-0.1,0.3-0.1,0.5-0.1c0.2,0,0.4,0,0.5,0.1l0,0c0.2,0,0.5,0,0.7,0.1c0-0.5,0.1-1,0.2-1.6
		c0.1-0.6,0.1-1.2,0.2-1.9c0.1-0.6,0.1-1.3,0.1-1.9c0-0.6,0.1-1.2,0.1-1.7v-0.6c0-0.4,0.1-0.7,0.3-0.9c0.2-0.2,0.5-0.3,0.8-0.3h0
		c0.2,0,0.4,0.1,0.7,0.3c0.2,0.2,0.4,0.4,0.5,0.7c0,0,0,0.1,0,0.1c0,0,0,0.1,0,0.4c0,0.1,0,0.2,0,0.3c0,0.1-0.1,0.2-0.2,0.3V41
		c0,0.5,0,1.2-0.1,2.1c-0.1,0.9-0.1,1.7-0.2,2.6c0,0.3-0.1,0.7-0.1,1c0,0.3-0.1,0.6-0.1,0.9c0.4,0,0.8,0,1.3,0c0.4,0,0.9,0,1.4,0
		c0.6,0,1.1,0,1.6,0c0.5,0,1.1,0,1.6,0c0-0.5,0-1.1,0.1-1.7c0-0.6,0.1-1.3,0.1-1.9c0-0.6,0-1.2,0-1.8c0-0.6,0-1.1,0-1.5
		c0-0.2,0-0.3,0-0.5c0-0.2,0-0.3,0-0.5c0,0,0-0.1,0-0.1c0,0,0,0,0-0.1c-0.1,0-0.1-0.1-0.1-0.3v0c0-0.1-0.1-0.2-0.1-0.4
		c0-0.1,0-0.3,0-0.4c0-0.1,0-0.2,0-0.2c0-0.1,0-0.2,0-0.2c0.1-0.3,0.2-0.5,0.5-0.6c0.2-0.2,0.5-0.2,0.8-0.2c0.4,0,0.7,0.2,0.9,0.5
		c0.1,0.2,0.2,0.5,0.3,0.7c0,0.3,0.1,0.5,0.1,0.8c0,0.1,0,0.3,0,0.5c0,0.2,0,0.4,0,0.6c0,0.5,0,1,0,1.6c0,0.6,0,1.2,0,1.8
		c0,0.6,0,1.3,0,1.9c0,0.6,0,1.2,0,1.6c0,0.1,0,0.2,0,0.3h1.3c0.4,0,0.6,0.1,0.8,0.3c0.2,0.2,0.3,0.5,0.3,0.7
		C95.3,48.9,95.2,49.1,95,49.3z"/>
	<path d="M109.8,51.7c0,0.2,0,0.4-0.1,0.6c-0.1,0.2-0.2,0.3-0.4,0.4c-0.5,0.3-1.2,0.6-1.9,0.8c-0.7,0.2-1.3,0.4-1.9,0.5
		c-0.1,0-0.2,0-0.3,0c-0.1,0-0.2,0-0.3,0c-0.5,0-0.9-0.1-1.3-0.3c-0.3-0.2-0.6-0.4-0.9-0.8v0c-0.1-0.2-0.2-0.4-0.3-0.7
		c-0.1-0.3-0.1-0.6-0.1-0.8c0,0-0.1,0-0.1,0.1c-0.2,0.1-0.5,0.3-0.8,0.6c-0.3,0.3-0.6,0.6-1,0.9c-0.2,0.2-0.4,0.3-0.6,0.5
		c-0.2,0.2-0.4,0.3-0.6,0.5c-0.7,0.5-1.3,0.7-1.9,0.7c-0.5,0-0.9-0.2-1.3-0.5c-0.4-0.4-0.7-1-0.7-1.8c0-0.7,0.2-1.4,0.6-2
		c0.2-0.5,0.5-0.9,0.9-1.4c0.3-0.4,0.7-0.9,1.1-1.3c0.4-0.4,0.8-0.7,1.2-1.1c0.4-0.3,0.8-0.6,1.1-0.8c0.4-0.2,0.8-0.5,1.4-0.8
		c0.5-0.3,1.1-0.4,1.7-0.4c0.3,0,0.6,0.1,1,0.2c0.3,0.1,0.7,0.3,1,0.6c0.2,0.1,0.3,0.3,0.3,0.4c0.1,0.1,0.1,0.3,0.1,0.4
		c0,0.2,0,0.4-0.1,0.6c-0.1,0.2-0.3,0.3-0.4,0.4c-0.2,0.1-0.4,0.2-0.6,0.2c-0.2,0-0.5-0.1-0.7-0.2c-0.1-0.1-0.2-0.2-0.4-0.2
		c-0.1,0-0.3-0.1-0.4-0.1c-0.4,0-1,0.2-1.6,0.6c-0.3,0.2-0.6,0.4-0.9,0.7c-0.3,0.3-0.7,0.6-1,0.9c-0.3,0.3-0.6,0.7-0.9,1.1
		c-0.3,0.4-0.5,0.7-0.7,1.1c0,0.1-0.1,0.2-0.1,0.3s0,0.2,0,0.4c0,0.1,0,0.2,0,0.2c0,0,0,0,0,0c0.1,0,0.2-0.1,0.4-0.2l0.3-0.2
		c0.3-0.2,0.5-0.5,0.9-0.7c0.3-0.3,0.7-0.6,1-0.8c0.3-0.3,0.7-0.5,1-0.8s0.6-0.5,0.9-0.6v0c0.4-0.3,0.8-0.4,1.2-0.4
		c0.3,0,0.6,0.1,0.8,0.3c0.2,0.2,0.3,0.5,0.3,0.9v0.4c0,0.2,0,0.4,0,0.6c0,0.2,0,0.3,0.1,0.4c0.1,0.2,0.2,0.4,0.3,0.5
		c0.1,0.1,0.3,0.1,0.4,0.1h0.1c0.2,0,0.4-0.1,0.7-0.1c0.3-0.1,0.5-0.1,0.8-0.2c0.3-0.1,0.5-0.2,0.8-0.3c0.2-0.1,0.5-0.2,0.6-0.3
		c0.2-0.1,0.4-0.1,0.5-0.1c0.3,0,0.6,0.1,0.8,0.4v0C109.7,51.3,109.8,51.5,109.8,51.7z"/>
	<path d="M130.4,52.5c-0.2,0.1-0.4,0.2-0.6,0.2c-0.1,0-0.2,0-0.2,0c0,0,0,0,0,0c0,0-0.1,0-0.2,0c-0.1,0-0.3,0.1-0.5,0.1
		c-0.2,0-0.4,0.1-0.6,0.1c-0.2,0-0.5,0.1-0.7,0.2c-0.2,0.1-0.5,0.1-0.7,0.2c-0.6,0.2-1.1,0.3-1.6,0.3c-0.4,0-0.8-0.1-1.2-0.2
		c-0.4-0.1-0.7-0.4-1-0.7c-0.4-0.4-0.7-0.9-0.9-1.5c-0.2-0.6-0.4-1.2-0.6-1.9c-0.1-0.2-0.2-0.4-0.3-0.4c-0.2,0-0.6,0.2-1.2,0.6
		c-0.1,0.1-0.3,0.2-0.5,0.4c-0.2,0.2-0.4,0.4-0.7,0.7c-0.3,0.3-0.5,0.5-0.8,0.8c-0.3,0.3-0.5,0.6-0.8,0.9c-0.1,0.2-0.3,0.3-0.5,0.4
		c-0.2,0.1-0.4,0.1-0.6,0.1c-0.2,0-0.4-0.1-0.6-0.2c-0.2-0.1-0.4-0.3-0.5-0.5c-0.1-0.2-0.2-0.5-0.3-0.8c-0.1-0.3-0.2-0.5-0.3-0.8h0
		c-0.1-0.2-0.2-0.4-0.2-0.6c-0.1-0.2-0.2-0.4-0.3-0.6v0c0-0.1-0.1-0.1-0.2-0.1c0,0-0.1,0-0.1,0c0,0,0,0-0.1,0
		c-0.2,0-0.4,0.2-0.7,0.5c-0.2,0.3-0.4,0.5-0.6,0.7c-0.2,0.2-0.5,0.5-0.7,0.8c-0.2,0.2-0.4,0.4-0.5,0.6c-0.3,0.3-0.6,0.7-0.8,1
		c-0.2,0.4-0.5,0.7-0.6,0.9c-0.1,0.2-0.3,0.4-0.5,0.5c-0.2,0.1-0.4,0.1-0.6,0.1c-0.1,0-0.2,0-0.3,0c-0.1,0-0.2,0-0.3-0.1h0
		c-0.5-0.2-0.7-0.6-0.7-1.2c0-0.4-0.1-0.9-0.1-1.4c0-0.5,0-1,0-1.5c0-0.7,0-1.3,0-1.9c0-0.6,0-1.1,0.1-1.4c0-0.4,0.2-0.6,0.4-0.8
		c0.2-0.2,0.5-0.3,0.8-0.3h0c0.3,0,0.5,0.1,0.7,0.3c0.2,0.2,0.3,0.4,0.3,0.8v0.1c0,0.4-0.1,0.9-0.1,1.4c0,0.5,0,1,0,1.5v0.5
		c0.1-0.1,0.1-0.2,0.2-0.2c0.1-0.1,0.1-0.1,0.2-0.2c0.2-0.2,0.3-0.4,0.5-0.6c0.2-0.2,0.3-0.4,0.5-0.6l0.3-0.4c0.3-0.4,0.6-0.7,1.1-1
		c0.4-0.3,0.9-0.5,1.3-0.6c0.1,0,0.1,0,0.2,0c0.1,0,0.1,0,0.2,0c0.3,0,0.7,0.1,1,0.3c0.3,0.2,0.6,0.5,0.8,1c0.1,0.2,0.2,0.5,0.3,0.7
		c0.1,0.2,0.2,0.5,0.3,0.7c0,0.2,0.1,0.3,0.1,0.4c0,0,0,0,0,0l0.1,0c0.1-0.1,0.3-0.3,0.5-0.5c0.2-0.2,0.4-0.4,0.6-0.6
		c0.2-0.2,0.4-0.4,0.6-0.5c0.2-0.2,0.3-0.3,0.5-0.4c1.1-0.9,2.1-1.4,2.9-1.4h0c0.9,0,1.6,0.6,1.9,1.9c0.1,0.6,0.3,1.1,0.5,1.7
		c0.2,0.6,0.4,1,0.7,1.3c0.2,0.2,0.4,0.3,0.6,0.3c0.2,0,0.4,0,0.6-0.1c0.3-0.1,0.6-0.2,0.9-0.3c0.3-0.1,0.6-0.2,0.9-0.3
		c0.3-0.1,0.6-0.2,0.9-0.2c0.3-0.1,0.5-0.1,0.7-0.1h0.1c0.2,0,0.4,0,0.6,0.1c0.2,0.1,0.3,0.1,0.4,0.3v0c0.2,0.2,0.3,0.4,0.3,0.7
		c0,0.2-0.1,0.4-0.2,0.6v0C130.7,52.2,130.6,52.3,130.4,52.5z"/>
	<path d="M138.5,47.7c0,0.7-0.2,1.5-0.6,2.3v0c-0.2,0.4-0.4,0.8-0.7,1.3c-0.3,0.4-0.6,0.8-1,1.2c-0.5,0.6-1.1,1.1-1.8,1.6
		c-0.6,0.5-1.3,0.9-2,1.4h0c-0.2,0.1-0.4,0.2-0.6,0.2c-0.3,0-0.6-0.2-0.9-0.6c-0.1-0.2-0.1-0.3-0.1-0.5c0-0.4,0.2-0.7,0.5-0.9
		c0.7-0.5,1.4-0.9,1.9-1.3c0.6-0.4,1.1-0.9,1.5-1.4c0.3-0.3,0.5-0.6,0.8-1c0.2-0.4,0.4-0.7,0.5-1c0.2-0.4,0.3-0.6,0.3-0.8
		c0-0.1,0-0.2-0.1-0.3c-0.1-0.1-0.3-0.1-0.5-0.1c0,0-0.1,0-0.1,0c0,0-0.1,0-0.2,0c-0.4,0-0.8,0.1-1.4,0.3c-0.5,0.2-1.1,0.4-1.6,0.7
		c-0.3,0.2-0.5,0.3-0.7,0.5c-0.2,0.2-0.4,0.4-0.5,0.6c0,0.1-0.1,0.1-0.1,0.1c0,0,0,0.1,0,0.1l-0.1,0.2l0,0c0,0.1,0,0.2,0,0.2
		c0,0.1,0,0.1,0,0.2c0,0.1,0,0.2,0,0.3c0,0.1,0,0.2,0,0.3v0.2c0,0.4-0.1,0.6-0.3,0.8c-0.2,0.2-0.4,0.3-0.7,0.3
		c-0.2,0-0.4-0.1-0.7-0.2c-0.2-0.2-0.4-0.4-0.5-0.8c-0.1-0.3-0.1-0.7-0.2-1.2c0-0.5,0-0.9,0-1.5c0-0.7,0-1.5,0.1-2.4
		c0.1-0.8,0.1-1.6,0.2-2.4c0.1-0.8,0.2-1.5,0.3-2.2c0.1-0.7,0.2-1.3,0.3-1.8c0-0.3,0.1-0.5,0.1-0.7c0-0.2,0.2-0.4,0.3-0.6
		c0.2-0.4,0.5-0.5,1-0.5h0.1c0.3,0,0.5,0.1,0.7,0.2c0.2,0.2,0.3,0.4,0.3,0.6v0.1c0,0.1-0.1,0.3-0.1,0.4c-0.1,0.1-0.1,0.3-0.2,0.4
		c-0.1,0.1-0.1,0.2-0.1,0.2l0,0c-0.1,0.4-0.1,0.9-0.2,1.4c-0.1,0.5-0.2,1.1-0.2,1.7c-0.1,0.6-0.1,1.2-0.2,1.8
		c-0.1,0.6-0.1,1.3-0.2,1.9c0.1-0.1,0.3-0.2,0.5-0.3c0.2-0.1,0.3-0.2,0.5-0.3c0.4-0.2,1-0.5,1.6-0.7c0.6-0.2,1.2-0.4,1.8-0.4h0
		c0.1,0,0.2,0,0.4,0c0.1,0,0.3,0,0.4,0c0.5,0,0.9,0.1,1.2,0.2c0.3,0.1,0.6,0.3,0.8,0.6h0C138.3,46.6,138.5,47.1,138.5,47.7z"/>
	<path d="M154.5,51.8c0,0.2,0,0.3-0.1,0.5c-0.1,0.2-0.2,0.3-0.4,0.4c-0.4,0.2-0.8,0.4-1.4,0.6c-0.5,0.2-1.1,0.3-1.7,0.4
		c-0.1,0-0.2,0-0.3,0c-0.1,0-0.2,0-0.3,0c-0.5,0-1-0.1-1.4-0.3c-0.5-0.2-0.8-0.5-1.1-0.9c-0.1-0.2-0.2-0.3-0.3-0.5
		c-0.1-0.2-0.1-0.4-0.2-0.6c-0.3,0.4-0.6,0.7-1,1.1c-0.4,0.3-0.7,0.6-1.1,0.8c-1,0.6-1.9,0.9-2.9,0.9c-0.3,0-0.6,0-0.9-0.1h0
		c-1-0.2-1.7-0.9-2-1.9c-0.1-0.3-0.2-0.6-0.2-0.9c0-0.3-0.1-0.7-0.1-1c0-0.7,0.1-1.4,0.2-2.1c0.1-0.7,0.3-1.2,0.4-1.6
		c0.1-0.3,0.3-0.5,0.5-0.6c0.2-0.1,0.5-0.2,0.7-0.2c0.3,0,0.5,0.1,0.7,0.3c0.2,0.2,0.3,0.4,0.3,0.7c0,0.1,0,0.1,0,0.2
		c0,0,0,0.1,0,0.2l0,0c-0.2,0.5-0.3,1-0.4,1.6c-0.1,0.6-0.1,1.1-0.1,1.6c0,0.4,0,0.8,0.1,1.1c0.1,0.3,0.3,0.5,0.6,0.6
		c0.1,0,0.3,0,0.4,0c0.2,0,0.4,0,0.7-0.1c0.2-0.1,0.5-0.2,0.8-0.4c0.9-0.6,1.7-1.3,2.2-2.1c0.6-0.8,1-1.5,1.2-2.2
		c0.1-0.2,0.3-0.4,0.4-0.5c0.2-0.1,0.4-0.1,0.6-0.1c0,0,0.1,0,0.1,0c0,0,0.1,0,0.2,0l0,0c0.2,0,0.4,0.2,0.6,0.3
		c0.2,0.2,0.3,0.4,0.3,0.6c0,0,0,0.1,0,0.1s0,0.1,0,0.2v0c-0.2,0.8-0.3,1.4-0.3,1.9c0,0.2,0,0.5,0,0.6c0,0.2,0.1,0.4,0.1,0.5v0
		c0.1,0.2,0.2,0.4,0.3,0.5c0.2,0.1,0.3,0.1,0.5,0.1c0,0,0.1,0,0.1,0c0,0,0.1,0,0.1,0c0.4,0,0.9-0.1,1.3-0.3c0.4-0.1,0.8-0.3,1.1-0.5
		c0.2-0.1,0.4-0.2,0.6-0.2c0.4,0,0.7,0.2,0.9,0.6C154.5,51.5,154.5,51.6,154.5,51.8z"/>
	<path d="M161.4,49.1c-0.1,0-0.2,0-0.3,0c-0.1,0-0.2-0.1-0.3-0.1h0c-0.2-0.1-0.4-0.1-0.5-0.1c0,0-0.1,0-0.1,0c0,0-0.1,0-0.1,0
		c-0.2,0-0.5,0.1-0.8,0.2c-0.3,0.1-0.7,0.2-1,0.4c-0.3,0.2-0.7,0.3-1.1,0.5s-0.7,0.4-1,0.6c-0.5,0.3-0.8,0.6-1,0.9
		c-0.1,0.2-0.2,0.4-0.2,0.6c0,0.2-0.1,0.4-0.1,0.6v0c0,0.4-0.2,0.6-0.4,0.8c-0.2,0.2-0.4,0.3-0.7,0.3c-0.3,0-0.5-0.1-0.7-0.3
		c-0.2-0.2-0.3-0.5-0.3-0.8c0-0.2,0-0.3,0-0.5c0-0.2,0-0.4,0-0.6v-1.1c0-0.4,0-0.7,0-1c0-0.3,0-0.6,0.1-0.9
		c-0.1-0.1-0.2-0.2-0.2-0.4c0-0.1,0-0.2,0.1-0.3c0.1-0.2,0.3-0.5,0.4-0.8v0c0.1-0.2,0.2-0.4,0.4-0.5c0.2-0.1,0.3-0.1,0.5-0.1
		c0,0,0.1,0,0.2,0c0.1,0,0.2,0,0.3,0c0.2,0.1,0.3,0.2,0.5,0.3c0.1,0.2,0.2,0.3,0.2,0.6c0,0,0,0.1,0,0.1c0,0,0,0.1,0,0.1
		c0,0.2-0.1,0.4-0.1,0.7c0,0.3-0.1,0.6-0.1,0.8c0,0,0.1,0,0.1,0c0,0,0,0,0.1-0.1c0,0,0.1-0.1,0.1-0.1c0.3-0.2,0.7-0.5,1.2-0.7
		c0.4-0.2,0.9-0.4,1.4-0.6c0.5-0.2,0.9-0.3,1.4-0.5c0.5-0.1,0.9-0.2,1.2-0.2h0.1c0.3,0,0.6,0,0.9,0.1c0.3,0.1,0.4,0.2,0.6,0.3
		c0.3,0.2,0.4,0.5,0.4,0.8c0,0.3-0.1,0.5-0.2,0.7h0C162,49,161.8,49.1,161.4,49.1z"/>
	<path d="M171,45.7c0.1,0.2,0.1,0.4,0.1,0.6c0,0.3-0.1,0.6-0.3,0.8c-0.2,0.2-0.5,0.3-0.7,0.3c-0.2,0-0.4-0.1-0.5-0.2h0
		c-0.1-0.1-0.3-0.1-0.5-0.1c-0.3,0-0.6,0.1-0.9,0.2c-0.3,0.1-0.7,0.3-1.1,0.5c-0.4,0.2-0.7,0.4-1.1,0.7c-0.4,0.3-0.7,0.5-1,0.8h0
		c-0.2,0.3-0.4,0.6-0.6,0.9c-0.2,0.3-0.3,0.6-0.3,0.8v0.1c0,0.1,0,0.1,0.1,0.1c0.1,0,0.2,0,0.4-0.1c0.2-0.1,0.5-0.3,0.7-0.4
		c0.3-0.2,0.5-0.3,0.8-0.5c0.3-0.1,0.5-0.3,0.8-0.4s0.5-0.2,0.8-0.3c0.1,0,0.2,0,0.3,0c0.1,0,0.2,0,0.3,0c0.3,0,0.5,0.1,0.7,0.2
		c0.2,0.1,0.4,0.3,0.5,0.6c0.1,0.1,0.1,0.3,0.2,0.6c0.1,0.3,0.1,0.6,0.2,1c0.1,0.4,0.1,0.8,0.1,1.2c0,0.4,0.1,0.9,0.1,1.3
		c0,0.4,0,0.9-0.1,1.3s-0.1,0.9-0.2,1.2c-0.2,1-0.6,2-1.2,2.9c-0.6,0.9-1.4,1.7-2.4,2.3l0,0c-0.2,0.1-0.4,0.2-0.6,0.2
		c-0.2,0-0.4-0.1-0.6-0.2c-0.2-0.1-0.3-0.2-0.4-0.4c-0.1-0.1-0.1-0.2-0.2-0.3c0-0.1-0.1-0.2-0.1-0.3c0-0.4,0.2-0.7,0.6-0.9
		c0.8-0.5,1.4-1.1,1.8-1.7s0.7-1.3,0.8-2.1c0.1-0.4,0.1-0.7,0.2-1c0-0.3,0-0.6,0-0.9c0-0.4,0-0.7,0-1.1c0-0.4-0.1-0.7-0.1-1
		c0,0,0-0.1,0-0.1c0,0,0-0.1,0-0.1c0-0.1-0.1-0.2-0.1-0.2c0,0-0.1,0-0.2,0c-0.2,0.1-0.5,0.2-0.8,0.4c-0.3,0.2-0.7,0.4-1,0.5
		c-0.1,0.1-0.3,0.2-0.5,0.3h0c-0.3,0.2-0.6,0.3-0.9,0.4c-0.3,0.1-0.6,0.1-0.8,0.1c-0.6,0-1-0.2-1.3-0.5c-0.3-0.4-0.5-0.9-0.5-1.5
		c0-0.8,0.2-1.5,0.6-2.2c0.4-0.7,0.8-1.3,1.3-1.9c0.3-0.4,0.7-0.7,1.1-1c0.4-0.3,0.9-0.6,1.4-0.9c0.5-0.3,1-0.5,1.5-0.6
		c0.5-0.2,1-0.2,1.5-0.2c0.3,0,0.5,0,0.8,0c0.2,0,0.5,0.1,0.7,0.3v0C170.8,45.3,170.9,45.5,171,45.7z"/>
</g>
<path d="M86,28c0,0.3-0.1,0.5-0.2,0.8c-0.1,0.3-0.3,0.5-0.7,0.7c-0.8,0.5-1.8,0.9-2.8,1.3c-1,0.4-2.1,0.7-3.3,0.9
	c-1.1,0.2-2.3,0.4-3.5,0.5c-1.2,0.1-2.3,0.2-3.4,0.2c-0.8,0-1.6-0.1-2.1-0.3c-0.6-0.2-1.1-0.4-1.4-0.8c-0.6-0.6-0.9-1.4-0.9-2.4
	c0-0.9,0.2-2.1,0.6-3.5c1-3.3,1.7-6.3,2.1-8.9c0.4-2.7,0.8-5,1.1-6.9c0-0.5,0.2-0.9,0.6-1.1s0.7-0.4,1.1-0.4c0.4,0,0.8,0.1,1.1,0.4
	c0.3,0.2,0.5,0.6,0.5,1.1v0.2c-0.2,2.5-0.6,5.1-1.1,7.9c-0.5,2.8-1.2,5.7-2.1,8.7c-0.1,0.4-0.2,0.7-0.3,1c-0.1,0.3-0.1,0.5-0.1,0.8
	c0,0.3,0.1,0.5,0.2,0.7c0.2,0.2,0.6,0.3,1.4,0.3c1,0,2-0.1,3.1-0.2c1-0.1,2-0.3,3-0.5c0.9-0.2,1.8-0.5,2.6-0.8
	c0.8-0.3,1.5-0.6,2.1-0.9c0.2-0.1,0.3-0.2,0.5-0.2c0.2,0,0.3,0,0.5,0c0.5,0,1,0.2,1.3,0.7l0,0C85.9,27.4,86,27.7,86,28z"/>
<path d="M105.7,31.7c0,0.2,0,0.4-0.1,0.6c-0.1,0.2-0.2,0.3-0.3,0.5c-0.1,0.2-0.3,0.3-0.5,0.5c-0.2,0.1-0.4,0.2-0.7,0.2
	c-0.4,0-0.8-0.2-1.2-0.6c-0.3-0.4-1-0.8-1.9-1.3c-0.9-0.5-2-1-3.2-1.6c-1-0.5-2-1-3-1.5c-1-0.5-1.9-1-2.7-1.5c0,0.3,0,0.5,0,0.7
	c0,0.2,0,0.4,0,0.6c0,0.2,0,0.4,0,0.6c0,0.2,0,0.4,0,0.7c0.1,0.1,0.2,0.2,0.3,0.3c0.1,0.1,0.2,0.2,0.2,0.2h0c0,0.1,0.1,0.2,0.1,0.3
	c0,0,0,0.1,0,0.1c0,0.4-0.1,0.8-0.4,1.1c-0.1,0.2-0.3,0.3-0.5,0.4c-0.2,0.1-0.4,0.2-0.7,0.2c-0.3,0-0.6-0.1-0.8-0.2
	c-0.3-0.1-0.5-0.4-0.8-0.7C89.1,31,89,30.5,89,29.9v-5.6c-0.3-0.6-0.5-1.3-0.5-2.1c0-0.7,0.2-1.4,0.7-2c0-0.5,0-1.1,0.1-1.6
	c0-0.6,0.1-1.1,0.1-1.7c0-1,0.1-1.9,0.1-2.8s0.1-1.7,0.1-2.4c0-0.6,0.2-1,0.6-1.3c0.4-0.2,0.8-0.4,1.2-0.4c0.5,0,0.9,0.1,1.1,0.4
	c0.3,0.3,0.4,0.7,0.5,1.1v0.2c0,0.4-0.1,0.8-0.2,1.2c0,0.4,0,0.8,0,1.3c0,0.5-0.1,1-0.1,1.5c0,0.4-0.1,0.8-0.1,1.2
	c0,0.4,0,0.8,0,1.2c0.5-0.2,1-0.5,1.6-0.7c0.6-0.2,1.2-0.5,1.8-0.7c0.6-0.2,1.2-0.5,1.8-0.7c0.6-0.2,1.1-0.5,1.5-0.7
	c0.5-0.2,0.8-0.4,1.1-0.6s0.4-0.3,0.5-0.4c0.2-0.3,0.4-0.6,0.7-0.7c0.3-0.1,0.7-0.2,1-0.2c0.5,0,0.9,0.2,1.1,0.5
	c0.2,0.3,0.3,0.6,0.3,1c0,0,0,0.1,0,0.2c0,0.1,0,0.1,0,0.2c-0.1,0.4-0.2,0.8-0.5,1.1c-0.3,0.3-0.5,0.5-0.7,0.7c0,0-0.1,0.1-0.2,0.1
	c-0.6,0.4-1.4,0.7-2.3,1.1c-0.9,0.4-1.9,0.8-2.9,1.2c-1,0.4-2,0.8-2.9,1.2c-0.9,0.4-1.5,0.7-2,1.1L92.2,23c0.4,0.4,0.9,0.7,1.4,1.1
	c0.6,0.4,1.1,0.7,1.8,1.1c0.6,0.3,1.3,0.7,2,1c0.7,0.3,1.3,0.7,2,1c0.7,0.3,1.3,0.6,1.9,0.9c0.6,0.3,1.2,0.6,1.7,0.9
	c0.5,0.3,1,0.6,1.4,0.9c0.4,0.3,0.7,0.6,1,0.8v0C105.6,31.1,105.7,31.4,105.7,31.7z"/>
<path d="M125.1,31c0,0.1,0,0.2,0,0.3c0,0.4-0.1,0.7-0.3,1c-0.2,0.3-0.6,0.5-1,0.6c-1.4,0.4-2.8,0.6-4,0.8c-1.3,0.2-2.5,0.2-3.6,0.2
	c-1.5,0-2.7-0.1-3.8-0.3c-1.5-0.3-2.7-0.8-3.5-1.4s-1.4-1.4-1.8-2.3c-0.2-0.4-0.4-0.9-0.5-1.4c-0.1-0.5-0.1-1-0.1-1.5
	c0-0.9,0.1-1.9,0.4-2.8c0.2-1,0.6-1.9,0.9-2.8c0.5-1.2,1.2-2.4,2.1-3.7c0.9-1.2,1.8-2.4,2.9-3.5c1.1-1.1,2.2-2.1,3.3-3
	c1.2-0.9,2.3-1.6,3.3-2.2c0.4-0.3,0.9-0.4,1.3-0.4c0.4,0,0.7,0.1,0.9,0.4c0.3,0.3,0.5,0.7,0.5,1.2c0,0.5-0.1,0.9-0.4,1.4h0
	c-0.4,0.7-0.9,1-1.6,1c-0.1,0-0.2,0-0.2,0c-0.8,0.5-1.7,1.1-2.6,1.8c-0.9,0.7-1.8,1.5-2.6,2.4c-0.8,0.9-1.6,1.8-2.3,2.8
	c-0.7,1-1.2,2-1.6,3c-0.2,0.7-0.4,1.4-0.6,2.1c-0.2,0.7-0.3,1.4-0.3,2.1c0,0.6,0.1,1.2,0.2,1.6c0.2,0.5,0.5,0.9,1,1.2
	c0.4,0.3,1.1,0.6,2,0.7c0.5,0.1,1,0.2,1.5,0.2c0.5,0,1.1,0.1,1.6,0.1c0.9,0,1.9-0.1,3.1-0.2c1.1-0.2,2.4-0.4,3.8-0.8
	c0.1,0,0.2,0,0.2-0.1c0.1,0,0.2,0,0.4,0c0.7,0,1.2,0.4,1.4,1.2l0,0C125.1,30.8,125.1,30.9,125.1,31z"/>
<path d="M142.8,30.9c-0.7,0.4-1.4,0.7-2.3,1c-0.6,0.2-1.3,0.4-2.1,0.6c-0.8,0.2-1.6,0.4-2.5,0.6c-0.9,0.2-1.7,0.3-2.6,0.4
	c-0.9,0.1-1.7,0.2-2.4,0.2h-0.1c-0.6,0-1.2-0.1-1.7-0.4c-0.5-0.2-0.9-0.7-1.3-1.2v0c-0.3-0.5-0.5-1-0.7-1.7
	c-0.2-0.6-0.3-1.4-0.3-2.2c0-0.3,0-0.6,0.1-1c0.1-0.4,0.1-0.8,0.2-1.2c0.1-0.4,0.2-0.8,0.3-1.2c0.1-0.4,0.2-0.8,0.2-1.1
	c-0.1,0-0.3,0-0.5,0c-0.1,0-0.3,0-0.4,0c-0.2,0-0.3,0-0.4,0h-0.1c-0.5,0-1-0.1-1.2-0.4c-0.3-0.3-0.5-0.6-0.5-1
	c0-0.6,0.3-1.1,0.9-1.5h0c0.3-0.3,0.7-0.4,1.3-0.4c0.2,0,0.5,0.1,0.8,0.2c0.2,0,0.4,0,0.6-0.1c0.2,0,0.4-0.1,0.6-0.1
	c0.4-1,0.7-1.9,0.9-2.8c0.2-0.9,0.4-1.7,0.5-2.3c0-0.1,0-0.1,0-0.2c0-0.1,0-0.2,0-0.3v-0.2c-0.1,0-0.2,0.1-0.3,0.1s-0.1,0-0.2,0.1
	c-0.6,0.2-1.3,0.4-2,0.6l0,0c-0.2,0.1-0.4,0.1-0.6,0.1c-0.4,0-0.8-0.2-1.1-0.5c-0.3-0.3-0.4-0.7-0.4-1.1c0-0.3,0.1-0.6,0.3-0.9
	c0.2-0.3,0.5-0.5,0.9-0.7c1.1-0.4,2.3-0.8,3.5-1.1s2.4-0.5,3.6-0.6c1.2-0.2,2.3-0.3,3.5-0.3s2.2-0.1,3.2-0.1c0.4,0,0.9,0,1.3,0
	c0.4,0,0.8,0,1.2,0c0.5,0,0.9,0.2,1.2,0.5c0.3,0.3,0.4,0.7,0.4,1v0.2c0,0.4-0.2,0.7-0.4,1c-0.2,0.3-0.6,0.4-1.1,0.4h-0.2
	c-0.4,0-0.8,0-1.2,0c-0.4,0-0.8,0-1.2,0c-1.2,0-2.5,0-3.7,0.1c-1.2,0.1-2.4,0.2-3.5,0.4c0,0.1,0,0.2,0.1,0.3c0,0.1,0,0.2,0,0.3
	c0,0.1,0,0.1,0,0.2c0,0.1,0,0.2,0,0.2c0,0.7-0.2,1.6-0.4,2.4c-0.2,0.9-0.5,1.7-0.7,2.6c0.8-0.1,1.7-0.3,2.5-0.4
	c0.9-0.1,1.7-0.3,2.6-0.4c0.8-0.2,1.6-0.3,2.4-0.4c0.7-0.1,1.4-0.3,1.9-0.4l0,0c0.1,0,0.2-0.1,0.2-0.1c0,0,0.1,0,0.1,0
	c0.4,0,0.7,0.1,0.9,0.4c0.2,0.2,0.4,0.5,0.5,0.9c0,0,0,0.1,0,0.1c0,0.1,0,0.1,0,0.2c0,0.3-0.1,0.7-0.3,1c-0.2,0.3-0.5,0.5-1,0.7
	c-0.5,0.1-1.3,0.3-2.2,0.5c-0.9,0.2-1.9,0.4-2.9,0.5c-1,0.2-2.1,0.4-3.1,0.5c-1,0.2-1.9,0.3-2.7,0.4c-0.3,0.9-0.5,1.8-0.7,2.6
	c-0.2,0.9-0.3,1.7-0.3,2.5v0.2c0,0.3,0,0.6,0.1,0.9c0.1,0.3,0.2,0.5,0.3,0.6c0.2,0.2,0.4,0.3,0.8,0.3h0.2c1,0,2.3-0.2,3.7-0.4
	c1.4-0.2,2.8-0.6,4.1-1.1c0.6-0.2,1.1-0.4,1.5-0.6c0.4-0.2,0.8-0.6,1.1-0.9c0.4-0.4,0.8-0.6,1.2-0.6c0.5,0,0.8,0.1,1.1,0.4h0
	c0.4,0.3,0.6,0.7,0.6,1.3c0,0.2,0,0.4-0.1,0.5c0,0.2-0.1,0.4-0.3,0.5v0C144,30.1,143.5,30.6,142.8,30.9z"/>
<path d="M154,15c0,0.2-0.1,0.4-0.2,0.6c-0.1,0.2-0.2,0.3-0.4,0.4c-0.1,0-0.2,0.1-0.3,0.1c-0.1,0-0.2,0.1-0.3,0.1
	c-0.4,0-0.7-0.2-0.9-0.6c-0.2-0.4-0.4-0.9-0.6-1.5c-0.2-0.6-0.2-1.3-0.2-1.9c0-0.3,0-0.6,0.1-1c0-0.3,0.1-0.6,0.2-0.8
	c0.3-0.5,0.7-0.7,1.1-0.7c0.2,0,0.4,0,0.5,0.1c0.2,0.1,0.4,0.3,0.6,0.5c0.2,0.2,0.2,0.5,0.2,0.8c0,0.3,0,0.5-0.1,0.7
	c-0.1,0.2-0.2,0.3-0.3,0.4v0.2c0,0.3,0,0.7,0.1,1c0.1,0.4,0.2,0.7,0.3,0.9v0C153.9,14.5,154,14.7,154,15z"/>
<path d="M163.7,30.2c-0.2,0.3-0.6,0.5-1.1,0.6c-0.1,0-0.2,0-0.4,0c-0.1,0-0.2,0-0.3,0h-0.6c-0.2,0.3-0.5,0.5-0.9,0.5
	c-0.3,0-0.6-0.1-0.8-0.3c0,0-0.1,0-0.2,0c-0.1,0-0.2,0-0.3,0c-0.3,0.2-0.6,0.3-0.9,0.3h-0.2c-0.8-0.1-1.3-0.5-1.5-1.3l0,0
	c-0.1-0.2-0.1-0.4-0.1-0.7c0-0.3,0.1-0.6,0.2-0.8c0.2-0.2,0.4-0.4,0.8-0.5c0.2-0.1,0.4-0.2,0.7-0.2c0.3,0,0.5-0.1,0.8-0.1
	c0-0.7,0-1.6,0.1-2.5c0.1-0.9,0.1-1.9,0.2-2.8c0.1-0.9,0.2-1.8,0.2-2.7c0.1-0.8,0.2-1.5,0.2-2.1c-0.2,0.1-0.3,0.2-0.5,0.3
	c-0.2,0.1-0.4,0.2-0.6,0.2c0,0-0.1,0-0.1,0s0,0-0.1,0c-0.3,0-0.5-0.1-0.7-0.2c-0.2-0.2-0.4-0.3-0.5-0.5c-0.1-0.2-0.2-0.5-0.2-0.8
	c0-0.5,0.3-1,0.8-1.3h0c0.1-0.1,0.3-0.2,0.6-0.4c0.3-0.1,0.5-0.3,0.8-0.5c0.2-0.1,0.4-0.3,0.6-0.4c0.2-0.1,0.4-0.2,0.5-0.3
	c0.3-0.2,0.6-0.3,0.9-0.3c0.5,0,0.9,0.2,1.2,0.5c0.4,0.4,0.5,0.8,0.5,1.2v0.2c-0.1,0.8-0.2,1.7-0.3,2.8c-0.1,1.1-0.2,2.2-0.3,3.3
	c-0.1,1.1-0.2,2.2-0.3,3.3c-0.1,1.1-0.2,2-0.2,2.8c0.3,0,0.6,0,0.8,0.1c0.2,0.1,0.4,0.1,0.6,0.3h0c0.4,0.2,0.7,0.6,0.7,1.2
	C164.1,29.6,163.9,29.9,163.7,30.2z"/>
<path d="M183.9,16.1c0,0.5-0.2,1-0.6,1.5v0c-0.9,1.1-1.9,2.5-3,4.1c-1.1,1.6-2.1,3.2-3.1,4.9c-1,1.7-1.8,3.3-2.6,5
	c-0.8,1.6-1.3,3.1-1.7,4.3c0,0.2,0.1,0.3,0.1,0.4c0,0.1,0,0.3,0,0.4c0,0.4-0.1,0.7-0.2,1.1c-0.2,0.3-0.4,0.6-0.7,0.7
	c-0.3,0.2-0.6,0.2-0.9,0.2c-0.2,0-0.4,0-0.6-0.1c-0.3-0.1-0.6-0.3-0.9-0.7c-0.2-0.3-0.4-0.7-0.4-1.2c0-0.1,0-0.2,0-0.4
	c0-0.1,0-0.3,0.1-0.4c0.4-1.6,1-3.2,1.8-4.9s1.6-3.3,2.5-5c0.9-1.6,1.8-3.2,2.8-4.6c1-1.5,1.9-2.7,2.7-3.9l0,0
	c0-0.1,0.1-0.2,0.2-0.3h-0.9c-0.6,0-1.2,0-1.8-0.1c-0.6,0-1.1,0-1.8,0c-0.7,0-1.4,0-2.1,0.1c-0.8,0-1.6,0.1-2.6,0.2
	c-0.3,0.2-0.5,0.3-0.8,0.3c-0.2,0.1-0.5,0.1-0.8,0.1h-0.2c-0.4,0-0.8-0.1-1.2-0.4c-0.4-0.3-0.6-0.6-0.8-1c0-0.1-0.1-0.2-0.1-0.3
	c0-0.1,0-0.2,0-0.3c0-0.4,0.1-0.7,0.4-1c0.3-0.3,0.7-0.5,1.3-0.6c0.7-0.1,1.7-0.2,2.9-0.2c1.2,0,2.4-0.1,3.6-0.1c1.3,0,2.5,0,3.8,0
	c1.2,0,2.3,0.1,3.3,0.1c0.6,0,1,0.1,1.4,0.4c0.3,0.2,0.6,0.5,0.7,0.8C183.9,15.6,183.9,15.8,183.9,16.1z"/>
<g>
	<path class="st0" d="M46,38c-6.3-4.7-13.3-9.6-18.4-14.4c-0.9,7.8-1.6,16.3-3.2,23.2C31.5,43.7,39.2,40,46,38z"/>
	<linearGradient id="SVGID_1_" gradientUnits="userSpaceOnUse" x1="-11.35" y1="49.7791" x2="39.2996" y2="49.7791">
		<stop  offset="0.2848" style="stop-color:#E85F2E"/>
		<stop  offset="1" style="stop-color:#FAC81E"/>
	</linearGradient>
	<path class="st1" d="M14.3,49.8C14.3,49.8,14.3,49.8,14.3,49.8C14.2,49.8,14.2,49.8,14.3,49.8C14.2,49.8,14.2,49.8,14.3,49.8z"/>
	<linearGradient id="SVGID_2_" gradientUnits="userSpaceOnUse" x1="55.2815" y1="48.3751" x2="7.2077" y2="54.9996">
		<stop  offset="0" style="stop-color:#E85F2E"/>
		<stop  offset="1" style="stop-color:#FAC81E"/>
	</linearGradient>
	<path class="st2" d="M46,37.9c-6.8,2.1-14.5,5.7-21.7,8.8c-11.2,4.8-21,8.4-23.9,2.9c0.1,0.8,0.2,1.4,0.4,2.1
		c0,0.1,0.1,0.2,0.1,0.3c0.9,2.6,2.5,4.6,4.8,5.9C5.8,57.9,6,58,6.2,58.1c0.1,0,0.1,0.1,0.2,0.1c1.4,0.8,3,1.5,4.9,1.9
		c0.9,0.2,1.8,0.4,2.7,0.5c0,0,0,0,0,0c13.2,2.4,26.8,2.2,40-0.5c2.7-0.6,4.9-1.7,6.6-3.1C63.5,51.7,55.6,45,46,37.9z"/>
	
		<linearGradient id="SVGID_3_" gradientUnits="userSpaceOnUse" x1="622.3204" y1="-635.8749" x2="621.6243" y2="-608.8857" gradientTransform="matrix(-0.5 -0.866 0.866 -0.5 865.838 283.5007)">
		<stop  offset="0" style="stop-color:#FFFFFF;stop-opacity:0.5"/>
		<stop  offset="1" style="stop-color:#FFFFFF;stop-opacity:0"/>
	</linearGradient>
	<path class="st3" d="M24.3,47c-11.1,4.8-21,8.3-23.9,2.8c0,0,0,0,0,0c0,0.3,0.1,0.5,0.1,0.8c0,0.1,0.1,0.2,0.1,0.3
		c0,0.1,0,0.2,0.1,0.3c0,0.1,0.1,0.2,0.1,0.3c7.4,5.3,19.4,7.8,32.3,5.9c9.7-1.4,18.2-5,24.1-9.8c-2.8-3-6.8-6.2-11.2-9.4
		C39.2,40.3,31.5,43.9,24.3,47z"/>
	
		<linearGradient id="SVGID_4_" gradientUnits="userSpaceOnUse" x1="425.3605" y1="-338.8998" x2="377.2652" y2="-332.2723" gradientTransform="matrix(-0.5 -0.866 0.866 -0.5 538.1153 209.0866)">
		<stop  offset="0" style="stop-color:#E85F2E"/>
		<stop  offset="1" style="stop-color:#FAC81E"/>
	</linearGradient>
	<path class="st4" d="M27.5,23.5c5.2,4.8,12.2,9.7,18.4,14.4c9.8,7.3,17.7,14.1,14.4,19.4c0.6-0.5,1.2-1,1.7-1.5
		c0.1-0.1,0.1-0.1,0.2-0.2c1.8-2,2.7-4.5,2.7-7.1c0-0.2,0-0.5,0-0.7c0-0.1,0-0.1,0-0.2c0-1.6-0.2-3.4-0.8-5.2
		c-0.3-0.9-0.6-1.8-0.9-2.6c0,0,0,0,0,0C58.6,27.1,51.7,15.4,42.7,5.4c-1.9-2-3.9-3.4-6-4.2C30.7,1.4,28.9,11.6,27.5,23.5z"/>
	
		<linearGradient id="SVGID_5_" gradientUnits="userSpaceOnUse" x1="773.1932" y1="-121.8755" x2="772.4977" y2="-94.9081" gradientTransform="matrix(-0.5 0.866 -0.866 -0.5 350.8551 -682.9639)">
		<stop  offset="0" style="stop-color:#FFFFFF;stop-opacity:0.5"/>
		<stop  offset="1" style="stop-color:#FFFFFF;stop-opacity:0"/>
	</linearGradient>
	<path class="st5" d="M46.3,37.7C56,45,64,51.6,60.7,56.9c0,0-0.2,0.2-0.1,0.2c0.2-0.2,0.5-0.4,0.8-0.6c0.1,0,0.1-0.1,0.2-0.2
		c0.1-0.1,0.1-0.1,0.1-0.1c0.1-0.1,0.2-0.2,0.3-0.3c0.9-9.1-2.9-20.6-11-30.9c-6.1-7.7-13.4-13.2-20.5-16c-1.2,3.9-1.9,9-2.6,14.4
		C33,28.2,40,33,46.3,37.7z"/>
	
		<linearGradient id="SVGID_6_" gradientUnits="userSpaceOnUse" x1="576.1905" y1="175.1117" x2="528.0909" y2="181.7398" gradientTransform="matrix(-0.5 0.866 -0.866 -0.5 450.2731 -361.9405)">
		<stop  offset="0" style="stop-color:#E85F2E"/>
		<stop  offset="1" style="stop-color:#FAC81E"/>
	</linearGradient>
	<path class="st6" d="M24.3,46.7c1.6-6.9,2.3-15.4,3.2-23.2C29,11.4,30.8,1.1,37.1,1.3C36.3,1,35.7,0.8,35,0.7c-0.1,0-0.2,0-0.3-0.1
		c-2.7-0.5-5.3-0.1-7.5,1.2C27,1.9,26.8,2,26.6,2.1c-0.1,0-0.1,0.1-0.2,0.1c-1.4,0.8-2.8,1.9-4.1,3.3c-0.6,0.7-1.2,1.4-1.8,2.1
		c0,0,0,0,0,0C11.9,17.9,5.2,29.7,1,42.5c-1.3,4.2-0.5,7.8-0.6,7.3C3.5,55,13.3,51.4,24.3,46.7z"/>
	
		<linearGradient id="SVGID_7_" gradientUnits="userSpaceOnUse" x1="252.3107" y1="-248.5755" x2="251.6149" y2="-221.5971" gradientTransform="matrix(1 0 0 1 -228.3056 246.61)">
		<stop  offset="0" style="stop-color:#FFFFFF;stop-opacity:0.5"/>
		<stop  offset="1" style="stop-color:#FFFFFF;stop-opacity:0"/>
	</linearGradient>
	<path class="st7" d="M27.3,23.4C28.8,11.3,30.6,1,36.8,1.3c0,0-0.4-0.2-0.7-0.3c-0.1,0-0.2-0.1-0.3-0.1c-0.1,0-0.2,0-0.2-0.1
		c-0.1,0-0.3-0.1-0.4-0.1c-8.3,3.7-16.4,12.8-21.3,25c-3.6,9.1-4.7,18.2-3.6,25.8c4-0.9,8.8-2.8,13.8-5
		C25.7,39.6,26.4,31.1,27.3,23.4z"/>
</g>
<g>
	<path d="M95,118.2c-0.2,0.2-0.5,0.3-0.8,0.3h-1.3c0,0.3,0,0.7,0,1c0,0.3,0,0.7,0,1c0,0.4,0,0.8,0,1.2c0,0.4,0,0.7,0,1.1
		c-0.1,0.8-0.4,1.3-1,1.3c-0.2,0-0.5-0.1-0.7-0.3c-0.2-0.2-0.4-0.5-0.6-0.9c0-0.1-0.1-0.4-0.1-0.6c0-0.2,0-0.3,0-0.5
		c0-0.2,0.1-0.3,0.2-0.5c0-0.5,0-0.9,0-1.3c0-0.4,0-0.9,0.1-1.4c-0.5,0-1,0-1.5,0c-0.5,0-1,0-1.5,0c-0.4,0-0.8,0-1.2,0
		c-0.4,0-0.8,0-1.1,0h-0.7c0,0.2,0,0.4,0,0.6c0,0.2,0,0.3,0,0.5c0,0.3-0.1,0.6-0.1,0.8c0,0.3,0,0.6,0,0.9v0c0.1,0.1,0.1,0.3,0.2,0.4
		c0.1,0.1,0.1,0.3,0.1,0.5v0.2c0,0.3-0.1,0.5-0.2,0.7c-0.1,0.2-0.3,0.3-0.5,0.4c-0.2,0.1-0.4,0.1-0.6,0.1c-0.2,0-0.5-0.1-0.7-0.2
		c-0.2-0.2-0.4-0.4-0.5-0.7v0c-0.1-0.2-0.1-0.4-0.2-0.6c0-0.2,0-0.5,0-0.7c0-0.3,0-0.7,0-1c0-0.4,0.1-0.7,0.1-1.2c0-0.1,0-0.2,0-0.3
		s0-0.2,0-0.3h-0.6c-0.2,0-0.3,0-0.5,0c-0.1,0-0.2,0-0.3,0c-0.4,0-0.7-0.1-0.9-0.3c-0.2-0.2-0.3-0.4-0.3-0.7c0-0.2,0.1-0.5,0.3-0.7
		c0.2-0.2,0.4-0.4,0.8-0.5c0.1-0.1,0.3-0.1,0.5-0.1c0.2,0,0.4,0,0.5,0.1l0,0c0.2,0,0.5,0,0.7,0.1c0-0.5,0.1-1,0.2-1.6
		c0.1-0.6,0.1-1.2,0.2-1.9c0.1-0.6,0.1-1.3,0.1-1.9c0-0.6,0.1-1.2,0.1-1.7v-0.6c0-0.4,0.1-0.7,0.3-0.9c0.2-0.2,0.5-0.3,0.8-0.3h0
		c0.2,0,0.4,0.1,0.7,0.3c0.2,0.2,0.4,0.4,0.5,0.7c0,0,0,0.1,0,0.1s0,0.1,0,0.4c0,0.1,0,0.2,0,0.3c0,0.1-0.1,0.2-0.2,0.3v0.2
		c0,0.5,0,1.2-0.1,2.1c-0.1,0.9-0.1,1.7-0.2,2.6c0,0.3-0.1,0.7-0.1,1c0,0.3-0.1,0.6-0.1,0.9c0.4,0,0.8,0,1.3,0c0.4,0,0.9,0,1.4,0
		c0.6,0,1.1,0,1.6,0c0.5,0,1.1,0,1.6,0c0-0.5,0-1.1,0.1-1.7c0-0.6,0.1-1.3,0.1-1.9c0-0.6,0-1.2,0-1.8c0-0.6,0-1.1,0-1.5
		c0-0.2,0-0.3,0-0.5c0-0.2,0-0.3,0-0.5c0,0,0-0.1,0-0.1s0,0,0-0.1c-0.1,0-0.1-0.1-0.1-0.3v0c0-0.1-0.1-0.2-0.1-0.4
		c0-0.1,0-0.3,0-0.4c0-0.1,0-0.2,0-0.2c0-0.1,0-0.2,0-0.2c0.1-0.3,0.2-0.5,0.5-0.6c0.2-0.2,0.5-0.2,0.8-0.2c0.4,0,0.7,0.2,0.9,0.5
		c0.1,0.2,0.2,0.5,0.3,0.7c0,0.3,0.1,0.5,0.1,0.8c0,0.1,0,0.3,0,0.5c0,0.2,0,0.4,0,0.6c0,0.5,0,1,0,1.6c0,0.6,0,1.2,0,1.8
		c0,0.6,0,1.3,0,1.9c0,0.6,0,1.2,0,1.6c0,0.1,0,0.2,0,0.3h1.3c0.4,0,0.6,0.1,0.8,0.3c0.2,0.2,0.3,0.5,0.3,0.7
		C95.3,117.8,95.2,118,95,118.2z"/>
	<path d="M109.8,120.6c0,0.2,0,0.4-0.1,0.6c-0.1,0.2-0.2,0.3-0.4,0.4c-0.5,0.3-1.2,0.6-1.9,0.8c-0.7,0.2-1.3,0.4-1.9,0.5
		c-0.1,0-0.2,0-0.3,0c-0.1,0-0.2,0-0.3,0c-0.5,0-0.9-0.1-1.3-0.3c-0.3-0.2-0.6-0.4-0.9-0.8v0c-0.1-0.2-0.2-0.4-0.3-0.7
		c-0.1-0.3-0.1-0.6-0.1-0.8c0,0-0.1,0-0.1,0.1c-0.2,0.1-0.5,0.3-0.8,0.6c-0.3,0.3-0.6,0.6-1,0.9c-0.2,0.2-0.4,0.3-0.6,0.5
		c-0.2,0.2-0.4,0.3-0.6,0.5c-0.7,0.5-1.3,0.7-1.9,0.7c-0.5,0-0.9-0.2-1.3-0.5c-0.4-0.4-0.7-1-0.7-1.8c0-0.7,0.2-1.4,0.6-2
		c0.2-0.5,0.5-0.9,0.9-1.4c0.3-0.4,0.7-0.9,1.1-1.3c0.4-0.4,0.8-0.7,1.2-1.1c0.4-0.3,0.8-0.6,1.1-0.8c0.4-0.2,0.8-0.5,1.4-0.8
		c0.5-0.3,1.1-0.4,1.7-0.4c0.3,0,0.6,0.1,1,0.2c0.3,0.1,0.7,0.3,1,0.6c0.2,0.1,0.3,0.3,0.3,0.4c0.1,0.1,0.1,0.3,0.1,0.4
		c0,0.2,0,0.4-0.1,0.6c-0.1,0.2-0.3,0.3-0.4,0.4c-0.2,0.1-0.4,0.2-0.6,0.2c-0.2,0-0.5-0.1-0.7-0.2c-0.1-0.1-0.2-0.2-0.4-0.2
		c-0.1,0-0.3-0.1-0.4-0.1c-0.4,0-1,0.2-1.6,0.6c-0.3,0.2-0.6,0.4-0.9,0.7c-0.3,0.3-0.7,0.6-1,0.9c-0.3,0.3-0.6,0.7-0.9,1.1
		c-0.3,0.4-0.5,0.7-0.7,1.1c0,0.1-0.1,0.2-0.1,0.3c0,0.1,0,0.2,0,0.4c0,0.1,0,0.2,0,0.2c0,0,0,0,0,0c0.1,0,0.2-0.1,0.4-0.2l0.3-0.2
		c0.3-0.2,0.5-0.5,0.9-0.7c0.3-0.3,0.7-0.6,1-0.8c0.3-0.3,0.7-0.5,1-0.8s0.6-0.5,0.9-0.6v0c0.4-0.3,0.8-0.4,1.2-0.4
		c0.3,0,0.6,0.1,0.8,0.3c0.2,0.2,0.3,0.5,0.3,0.9v0.4c0,0.2,0,0.4,0,0.6c0,0.2,0,0.3,0.1,0.4c0.1,0.2,0.2,0.4,0.3,0.5
		c0.1,0.1,0.3,0.1,0.4,0.1h0.1c0.2,0,0.4-0.1,0.7-0.1c0.3-0.1,0.5-0.1,0.8-0.2c0.3-0.1,0.5-0.2,0.8-0.3c0.2-0.1,0.5-0.2,0.6-0.3
		c0.2-0.1,0.4-0.1,0.5-0.1c0.3,0,0.6,0.1,0.8,0.4v0C109.7,120.2,109.8,120.4,109.8,120.6z"/>
	<path d="M130.4,121.4c-0.2,0.1-0.4,0.2-0.6,0.2c-0.1,0-0.2,0-0.2,0c0,0,0,0,0,0c0,0-0.1,0-0.2,0c-0.1,0-0.3,0.1-0.5,0.1
		c-0.2,0-0.4,0.1-0.6,0.1c-0.2,0-0.5,0.1-0.7,0.2c-0.2,0.1-0.5,0.1-0.7,0.2c-0.6,0.2-1.1,0.3-1.6,0.3c-0.4,0-0.8-0.1-1.2-0.2
		c-0.4-0.1-0.7-0.4-1-0.7c-0.4-0.4-0.7-0.9-0.9-1.5c-0.2-0.6-0.4-1.2-0.6-1.9c-0.1-0.2-0.2-0.4-0.3-0.4c-0.2,0-0.6,0.2-1.2,0.6
		c-0.1,0.1-0.3,0.2-0.5,0.4c-0.2,0.2-0.4,0.4-0.7,0.7c-0.3,0.3-0.5,0.5-0.8,0.8c-0.3,0.3-0.5,0.6-0.8,0.9c-0.1,0.2-0.3,0.3-0.5,0.4
		c-0.2,0.1-0.4,0.1-0.6,0.1c-0.2,0-0.4-0.1-0.6-0.2c-0.2-0.1-0.4-0.3-0.5-0.5c-0.1-0.2-0.2-0.5-0.3-0.8c-0.1-0.3-0.2-0.5-0.3-0.8h0
		c-0.1-0.2-0.2-0.4-0.2-0.6c-0.1-0.2-0.2-0.4-0.3-0.6v0c0-0.1-0.1-0.1-0.2-0.1c0,0-0.1,0-0.1,0c0,0,0,0-0.1,0
		c-0.2,0-0.4,0.2-0.7,0.5c-0.2,0.3-0.4,0.5-0.6,0.7c-0.2,0.2-0.5,0.5-0.7,0.8c-0.2,0.2-0.4,0.4-0.5,0.6c-0.3,0.3-0.6,0.7-0.8,1
		c-0.2,0.4-0.5,0.7-0.6,0.9c-0.1,0.2-0.3,0.4-0.5,0.5c-0.2,0.1-0.4,0.1-0.6,0.1c-0.1,0-0.2,0-0.3,0c-0.1,0-0.2,0-0.3-0.1h0
		c-0.5-0.2-0.7-0.6-0.7-1.2c0-0.4-0.1-0.9-0.1-1.4c0-0.5,0-1,0-1.5c0-0.7,0-1.3,0-1.9c0-0.6,0-1.1,0.1-1.4c0-0.4,0.2-0.6,0.4-0.8
		c0.2-0.2,0.5-0.3,0.8-0.3h0c0.3,0,0.5,0.1,0.7,0.3c0.2,0.2,0.3,0.4,0.3,0.8v0.1c0,0.4-0.1,0.9-0.1,1.4c0,0.5,0,1,0,1.5v0.5
		c0.1-0.1,0.1-0.2,0.2-0.2c0.1-0.1,0.1-0.1,0.2-0.2c0.2-0.2,0.3-0.4,0.5-0.6c0.2-0.2,0.3-0.4,0.5-0.6l0.3-0.4c0.3-0.4,0.6-0.7,1.1-1
		c0.4-0.3,0.9-0.5,1.3-0.6c0.1,0,0.1,0,0.2,0c0.1,0,0.1,0,0.2,0c0.3,0,0.7,0.1,1,0.3c0.3,0.2,0.6,0.5,0.8,1c0.1,0.2,0.2,0.5,0.3,0.7
		c0.1,0.2,0.2,0.5,0.3,0.7c0,0.2,0.1,0.3,0.1,0.4c0,0,0,0,0,0l0.1,0c0.1-0.1,0.3-0.3,0.5-0.5c0.2-0.2,0.4-0.4,0.6-0.6
		s0.4-0.4,0.6-0.5c0.2-0.2,0.3-0.3,0.5-0.4c1.1-0.9,2.1-1.4,2.9-1.4h0c0.9,0,1.6,0.6,1.9,1.9c0.1,0.6,0.3,1.1,0.5,1.7
		c0.2,0.6,0.4,1,0.7,1.3c0.2,0.2,0.4,0.3,0.6,0.3c0.2,0,0.4,0,0.6-0.1c0.3-0.1,0.6-0.2,0.9-0.3c0.3-0.1,0.6-0.2,0.9-0.3
		c0.3-0.1,0.6-0.2,0.9-0.2c0.3-0.1,0.5-0.1,0.7-0.1h0.1c0.2,0,0.4,0,0.6,0.1c0.2,0.1,0.3,0.1,0.4,0.3v0c0.2,0.2,0.3,0.4,0.3,0.7
		c0,0.2-0.1,0.4-0.2,0.6v0C130.7,121.1,130.6,121.2,130.4,121.4z"/>
	<path d="M138.5,116.6c0,0.7-0.2,1.5-0.6,2.3v0c-0.2,0.4-0.4,0.8-0.7,1.3c-0.3,0.4-0.6,0.8-1,1.2c-0.5,0.6-1.1,1.1-1.8,1.6
		c-0.6,0.5-1.3,0.9-2,1.4h0c-0.2,0.1-0.4,0.2-0.6,0.2c-0.3,0-0.6-0.2-0.9-0.6c-0.1-0.2-0.1-0.3-0.1-0.5c0-0.4,0.2-0.7,0.5-0.9
		c0.7-0.5,1.4-0.9,1.9-1.3c0.6-0.4,1.1-0.9,1.5-1.4c0.3-0.3,0.5-0.6,0.8-1c0.2-0.4,0.4-0.7,0.5-1c0.2-0.4,0.3-0.6,0.3-0.8
		c0-0.1,0-0.2-0.1-0.3c-0.1-0.1-0.3-0.1-0.5-0.1c0,0-0.1,0-0.1,0c0,0-0.1,0-0.2,0c-0.4,0-0.8,0.1-1.4,0.3c-0.5,0.2-1.1,0.4-1.6,0.7
		c-0.3,0.2-0.5,0.3-0.7,0.5c-0.2,0.2-0.4,0.4-0.5,0.6c0,0.1-0.1,0.1-0.1,0.1c0,0,0,0.1,0,0.1l-0.1,0.2l0,0c0,0.1,0,0.2,0,0.2
		c0,0.1,0,0.1,0,0.2c0,0.1,0,0.2,0,0.3c0,0.1,0,0.2,0,0.3v0.2c0,0.4-0.1,0.6-0.3,0.8c-0.2,0.2-0.4,0.3-0.7,0.3
		c-0.2,0-0.4-0.1-0.7-0.2c-0.2-0.2-0.4-0.4-0.5-0.8c-0.1-0.3-0.1-0.7-0.2-1.2c0-0.5,0-0.9,0-1.5c0-0.7,0-1.5,0.1-2.4
		s0.1-1.6,0.2-2.4c0.1-0.8,0.2-1.5,0.3-2.2c0.1-0.7,0.2-1.3,0.3-1.8c0-0.3,0.1-0.5,0.1-0.7c0-0.2,0.2-0.4,0.3-0.6
		c0.2-0.4,0.5-0.5,1-0.5h0.1c0.3,0,0.5,0.1,0.7,0.2c0.2,0.2,0.3,0.4,0.3,0.6v0.1c0,0.1-0.1,0.3-0.1,0.4c-0.1,0.1-0.1,0.3-0.2,0.4
		c-0.1,0.1-0.1,0.2-0.1,0.2l0,0c-0.1,0.4-0.1,0.9-0.2,1.4s-0.2,1.1-0.2,1.7c-0.1,0.6-0.1,1.2-0.2,1.8c-0.1,0.6-0.1,1.3-0.2,1.9
		c0.1-0.1,0.3-0.2,0.5-0.3c0.2-0.1,0.3-0.2,0.5-0.3c0.4-0.2,1-0.5,1.6-0.7c0.6-0.2,1.2-0.4,1.8-0.4h0c0.1,0,0.2,0,0.4,0
		c0.1,0,0.3,0,0.4,0c0.5,0,0.9,0.1,1.2,0.2c0.3,0.1,0.6,0.3,0.8,0.6h0C138.3,115.5,138.5,116,138.5,116.6z"/>
	<path d="M154.5,120.7c0,0.2,0,0.3-0.1,0.5c-0.1,0.2-0.2,0.3-0.4,0.4c-0.4,0.2-0.8,0.4-1.4,0.6s-1.1,0.3-1.7,0.4c-0.1,0-0.2,0-0.3,0
		c-0.1,0-0.2,0-0.3,0c-0.5,0-1-0.1-1.4-0.3c-0.5-0.2-0.8-0.5-1.1-0.9c-0.1-0.2-0.2-0.3-0.3-0.5c-0.1-0.2-0.1-0.4-0.2-0.6
		c-0.3,0.4-0.6,0.7-1,1.1c-0.4,0.3-0.7,0.6-1.1,0.8c-1,0.6-1.9,0.9-2.9,0.9c-0.3,0-0.6,0-0.9-0.1h0c-1-0.2-1.7-0.9-2-1.9
		c-0.1-0.3-0.2-0.6-0.2-0.9c0-0.3-0.1-0.7-0.1-1c0-0.7,0.1-1.4,0.2-2.1c0.1-0.7,0.3-1.2,0.4-1.6c0.1-0.3,0.3-0.5,0.5-0.6
		c0.2-0.1,0.5-0.2,0.7-0.2c0.3,0,0.5,0.1,0.7,0.3c0.2,0.2,0.3,0.4,0.3,0.7c0,0.1,0,0.1,0,0.2c0,0,0,0.1,0,0.2l0,0
		c-0.2,0.5-0.3,1-0.4,1.6c-0.1,0.6-0.1,1.1-0.1,1.6c0,0.4,0,0.8,0.1,1.1c0.1,0.3,0.3,0.5,0.6,0.6c0.1,0,0.3,0,0.4,0
		c0.2,0,0.4,0,0.7-0.1c0.2-0.1,0.5-0.2,0.8-0.4c0.9-0.6,1.7-1.3,2.2-2.1c0.6-0.8,1-1.5,1.2-2.2c0.1-0.2,0.3-0.4,0.4-0.5
		c0.2-0.1,0.4-0.1,0.6-0.1c0,0,0.1,0,0.1,0c0,0,0.1,0,0.2,0l0,0c0.2,0,0.4,0.2,0.6,0.3c0.2,0.2,0.3,0.4,0.3,0.6c0,0,0,0.1,0,0.1
		s0,0.1,0,0.2v0c-0.2,0.8-0.3,1.4-0.3,1.9c0,0.2,0,0.5,0,0.6c0,0.2,0.1,0.4,0.1,0.5v0c0.1,0.2,0.2,0.4,0.3,0.5
		c0.2,0.1,0.3,0.1,0.5,0.1c0,0,0.1,0,0.1,0c0,0,0.1,0,0.1,0c0.4,0,0.9-0.1,1.3-0.3c0.4-0.1,0.8-0.3,1.1-0.5c0.2-0.1,0.4-0.2,0.6-0.2
		c0.4,0,0.7,0.2,0.9,0.6C154.5,120.4,154.5,120.5,154.5,120.7z"/>
	<path d="M161.4,118c-0.1,0-0.2,0-0.3,0c-0.1,0-0.2-0.1-0.3-0.1h0c-0.2-0.1-0.4-0.1-0.5-0.1c0,0-0.1,0-0.1,0c0,0-0.1,0-0.1,0
		c-0.2,0-0.5,0.1-0.8,0.2c-0.3,0.1-0.7,0.2-1,0.4c-0.3,0.2-0.7,0.3-1.1,0.5s-0.7,0.4-1,0.6c-0.5,0.3-0.8,0.6-1,0.9
		c-0.1,0.2-0.2,0.4-0.2,0.6c0,0.2-0.1,0.4-0.1,0.6v0c0,0.4-0.2,0.6-0.4,0.8c-0.2,0.2-0.4,0.3-0.7,0.3c-0.3,0-0.5-0.1-0.7-0.3
		c-0.2-0.2-0.3-0.5-0.3-0.8c0-0.2,0-0.3,0-0.5c0-0.2,0-0.4,0-0.6v-1.1c0-0.4,0-0.7,0-1c0-0.3,0-0.6,0.1-0.9
		c-0.1-0.1-0.2-0.2-0.2-0.4c0-0.1,0-0.2,0.1-0.3c0.1-0.2,0.3-0.5,0.4-0.8v0c0.1-0.2,0.2-0.4,0.4-0.5c0.2-0.1,0.3-0.1,0.5-0.1
		c0,0,0.1,0,0.2,0c0.1,0,0.2,0,0.3,0c0.2,0.1,0.3,0.2,0.5,0.3c0.1,0.2,0.2,0.3,0.2,0.6c0,0,0,0.1,0,0.1c0,0,0,0.1,0,0.1
		c0,0.2-0.1,0.4-0.1,0.7c0,0.3-0.1,0.6-0.1,0.8c0,0,0.1,0,0.1,0c0,0,0,0,0.1-0.1c0,0,0.1-0.1,0.1-0.1c0.3-0.2,0.7-0.5,1.2-0.7
		c0.4-0.2,0.9-0.4,1.4-0.6c0.5-0.2,0.9-0.3,1.4-0.5s0.9-0.2,1.2-0.2h0.1c0.3,0,0.6,0,0.9,0.1c0.3,0.1,0.4,0.2,0.6,0.3
		c0.3,0.2,0.4,0.5,0.4,0.8c0,0.3-0.1,0.5-0.2,0.7h0C162,117.9,161.8,118,161.4,118z"/>
	<path d="M171,114.6c0.1,0.2,0.1,0.4,0.1,0.6c0,0.3-0.1,0.6-0.3,0.8c-0.2,0.2-0.5,0.3-0.7,0.3c-0.2,0-0.4-0.1-0.5-0.2h0
		c-0.1-0.1-0.3-0.1-0.5-0.1c-0.3,0-0.6,0.1-0.9,0.2c-0.3,0.1-0.7,0.3-1.1,0.5c-0.4,0.2-0.7,0.4-1.1,0.7c-0.4,0.3-0.7,0.5-1,0.8h0
		c-0.2,0.3-0.4,0.6-0.6,0.9c-0.2,0.3-0.3,0.6-0.3,0.8v0.1c0,0.1,0,0.1,0.1,0.1c0.1,0,0.2,0,0.4-0.1c0.2-0.1,0.5-0.3,0.7-0.4
		c0.3-0.2,0.5-0.3,0.8-0.5c0.3-0.1,0.5-0.3,0.8-0.4c0.3-0.1,0.5-0.2,0.8-0.3c0.1,0,0.2,0,0.3,0c0.1,0,0.2,0,0.3,0
		c0.3,0,0.5,0.1,0.7,0.2c0.2,0.1,0.4,0.3,0.5,0.6c0.1,0.1,0.1,0.3,0.2,0.6c0.1,0.3,0.1,0.6,0.2,1c0.1,0.4,0.1,0.8,0.1,1.2
		c0,0.4,0.1,0.9,0.1,1.3c0,0.4,0,0.9-0.1,1.3s-0.1,0.9-0.2,1.2c-0.2,1-0.6,2-1.2,2.9c-0.6,0.9-1.4,1.7-2.4,2.3l0,0
		c-0.2,0.1-0.4,0.2-0.6,0.2c-0.2,0-0.4-0.1-0.6-0.2c-0.2-0.1-0.3-0.2-0.4-0.4c-0.1-0.1-0.1-0.2-0.2-0.3c0-0.1-0.1-0.2-0.1-0.3
		c0-0.4,0.2-0.7,0.6-0.9c0.8-0.5,1.4-1.1,1.8-1.7s0.7-1.3,0.8-2.1c0.1-0.4,0.1-0.7,0.2-1c0-0.3,0-0.6,0-0.9c0-0.4,0-0.7,0-1.1
		c0-0.4-0.1-0.7-0.1-1c0,0,0-0.1,0-0.1c0,0,0-0.1,0-0.1c0-0.1-0.1-0.2-0.1-0.2c0,0-0.1,0-0.2,0c-0.2,0.1-0.5,0.2-0.8,0.4
		c-0.3,0.2-0.7,0.4-1,0.5c-0.1,0.1-0.3,0.2-0.5,0.3h0c-0.3,0.2-0.6,0.3-0.9,0.4c-0.3,0.1-0.6,0.1-0.8,0.1c-0.6,0-1-0.2-1.3-0.5
		c-0.3-0.4-0.5-0.9-0.5-1.5c0-0.8,0.2-1.5,0.6-2.2c0.4-0.7,0.8-1.3,1.3-1.9c0.3-0.4,0.7-0.7,1.1-1c0.4-0.3,0.9-0.6,1.4-0.9
		c0.5-0.3,1-0.5,1.5-0.6c0.5-0.2,1-0.2,1.5-0.2c0.3,0,0.5,0,0.8,0c0.2,0,0.5,0.1,0.7,0.3v0C170.8,114.2,170.9,114.4,171,114.6z"/>
</g>
<path d="M86,96.9c0,0.3-0.1,0.5-0.2,0.8c-0.1,0.3-0.3,0.5-0.7,0.7c-0.8,0.5-1.8,0.9-2.8,1.3c-1,0.4-2.1,0.7-3.3,0.9
	c-1.1,0.2-2.3,0.4-3.5,0.5s-2.3,0.2-3.4,0.2c-0.8,0-1.6-0.1-2.1-0.3c-0.6-0.2-1.1-0.4-1.4-0.8c-0.6-0.6-0.9-1.4-0.9-2.4
	c0-0.9,0.2-2.1,0.6-3.5c1-3.3,1.7-6.3,2.1-8.9c0.4-2.7,0.8-5,1.1-6.9c0-0.5,0.2-0.9,0.6-1.1s0.7-0.4,1.1-0.4c0.4,0,0.8,0.1,1.1,0.4
	c0.3,0.2,0.5,0.6,0.5,1.1v0.2c-0.2,2.5-0.6,5.1-1.1,7.9c-0.5,2.8-1.2,5.7-2.1,8.7c-0.1,0.4-0.2,0.7-0.3,1c-0.1,0.3-0.1,0.5-0.1,0.8
	c0,0.3,0.1,0.5,0.2,0.7c0.2,0.2,0.6,0.3,1.4,0.3c1,0,2-0.1,3.1-0.2c1-0.1,2-0.3,3-0.5c0.9-0.2,1.8-0.5,2.6-0.8
	c0.8-0.3,1.5-0.6,2.1-0.9c0.2-0.1,0.3-0.2,0.5-0.2c0.2,0,0.3,0,0.5,0c0.5,0,1,0.2,1.3,0.7l0,0C85.9,96.3,86,96.6,86,96.9z"/>
<path d="M105.7,100.6c0,0.2,0,0.4-0.1,0.6c-0.1,0.2-0.2,0.3-0.3,0.5c-0.1,0.2-0.3,0.3-0.5,0.5c-0.2,0.1-0.4,0.2-0.7,0.2
	c-0.4,0-0.8-0.2-1.2-0.6c-0.3-0.4-1-0.8-1.9-1.3c-0.9-0.5-2-1-3.2-1.6c-1-0.5-2-1-3-1.5c-1-0.5-1.9-1-2.7-1.5c0,0.3,0,0.5,0,0.7
	c0,0.2,0,0.4,0,0.6c0,0.2,0,0.4,0,0.6c0,0.2,0,0.4,0,0.7c0.1,0.1,0.2,0.2,0.3,0.3c0.1,0.1,0.2,0.2,0.2,0.2h0c0,0.1,0.1,0.2,0.1,0.3
	c0,0,0,0.1,0,0.1c0,0.4-0.1,0.8-0.4,1.1c-0.1,0.2-0.3,0.3-0.5,0.4c-0.2,0.1-0.4,0.2-0.7,0.2c-0.3,0-0.6-0.1-0.8-0.2
	c-0.3-0.1-0.5-0.4-0.8-0.7c-0.3-0.3-0.5-0.8-0.5-1.4v-5.6c-0.3-0.6-0.5-1.3-0.5-2.1c0-0.7,0.2-1.4,0.7-2c0-0.5,0-1.1,0.1-1.6
	c0-0.6,0.1-1.1,0.1-1.7c0-1,0.1-1.9,0.1-2.8c0-0.9,0.1-1.7,0.1-2.4c0-0.6,0.2-1,0.6-1.3c0.4-0.2,0.8-0.4,1.2-0.4
	c0.5,0,0.9,0.1,1.1,0.4c0.3,0.3,0.4,0.7,0.5,1.1v0.2c0,0.4-0.1,0.8-0.2,1.2c0,0.4,0,0.8,0,1.3c0,0.5-0.1,1-0.1,1.5
	c0,0.4-0.1,0.8-0.1,1.2c0,0.4,0,0.8,0,1.2c0.5-0.2,1-0.5,1.6-0.7c0.6-0.2,1.2-0.5,1.8-0.7c0.6-0.2,1.2-0.5,1.8-0.7
	c0.6-0.2,1.1-0.5,1.5-0.7c0.5-0.2,0.8-0.4,1.1-0.6s0.4-0.3,0.5-0.4c0.2-0.3,0.4-0.6,0.7-0.7c0.3-0.1,0.7-0.2,1-0.2
	c0.5,0,0.9,0.2,1.1,0.5c0.2,0.3,0.3,0.6,0.3,1c0,0,0,0.1,0,0.2c0,0.1,0,0.1,0,0.2c-0.1,0.4-0.2,0.8-0.5,1.1
	c-0.3,0.3-0.5,0.5-0.7,0.7c0,0-0.1,0.1-0.2,0.1c-0.6,0.4-1.4,0.7-2.3,1.1c-0.9,0.4-1.9,0.8-2.9,1.2c-1,0.4-2,0.8-2.9,1.2
	c-0.9,0.4-1.5,0.7-2,1.1l-0.1,1.2c0.4,0.4,0.9,0.7,1.4,1.1c0.6,0.4,1.1,0.7,1.8,1.1c0.6,0.3,1.3,0.7,2,1c0.7,0.3,1.3,0.7,2,1
	c0.7,0.3,1.3,0.6,1.9,0.9c0.6,0.3,1.2,0.6,1.7,0.9c0.5,0.3,1,0.6,1.4,0.9s0.7,0.6,1,0.8v0C105.6,100,105.7,100.3,105.7,100.6z"/>
<path d="M125.1,99.9c0,0.1,0,0.2,0,0.3c0,0.4-0.1,0.7-0.3,1c-0.2,0.3-0.6,0.5-1,0.6c-1.4,0.4-2.8,0.6-4,0.8
	c-1.3,0.2-2.5,0.2-3.6,0.2c-1.5,0-2.7-0.1-3.8-0.3c-1.5-0.3-2.7-0.8-3.5-1.4s-1.4-1.4-1.8-2.3c-0.2-0.4-0.4-0.9-0.5-1.4
	c-0.1-0.5-0.1-1-0.1-1.5c0-0.9,0.1-1.9,0.4-2.8c0.2-1,0.6-1.9,0.9-2.8c0.5-1.2,1.2-2.4,2.1-3.7c0.9-1.2,1.8-2.4,2.9-3.5
	c1.1-1.1,2.2-2.1,3.3-3c1.2-0.9,2.3-1.6,3.3-2.2c0.4-0.3,0.9-0.4,1.3-0.4c0.4,0,0.7,0.1,0.9,0.4c0.3,0.3,0.5,0.7,0.5,1.2
	c0,0.5-0.1,0.9-0.4,1.4h0c-0.4,0.7-0.9,1-1.6,1c-0.1,0-0.2,0-0.2,0c-0.8,0.5-1.7,1.1-2.6,1.8c-0.9,0.7-1.8,1.5-2.6,2.4
	c-0.8,0.9-1.6,1.8-2.3,2.8c-0.7,1-1.2,2-1.6,3c-0.2,0.7-0.4,1.4-0.6,2.1c-0.2,0.7-0.3,1.4-0.3,2.1c0,0.6,0.1,1.2,0.2,1.6
	c0.2,0.5,0.5,0.9,1,1.2c0.4,0.3,1.1,0.6,2,0.7c0.5,0.1,1,0.2,1.5,0.2c0.5,0,1.1,0.1,1.6,0.1c0.9,0,1.9-0.1,3.1-0.2
	c1.1-0.2,2.4-0.4,3.8-0.8c0.1,0,0.2,0,0.2-0.1c0.1,0,0.2,0,0.4,0c0.7,0,1.2,0.4,1.4,1.2l0,0C125.1,99.7,125.1,99.8,125.1,99.9z"/>
<path d="M142.8,99.8c-0.7,0.4-1.4,0.7-2.3,1c-0.6,0.2-1.3,0.4-2.1,0.6c-0.8,0.2-1.6,0.4-2.5,0.6c-0.9,0.2-1.7,0.3-2.6,0.4
	c-0.9,0.1-1.7,0.2-2.4,0.2h-0.1c-0.6,0-1.2-0.1-1.7-0.4c-0.5-0.2-0.9-0.7-1.3-1.2v0c-0.3-0.5-0.5-1-0.7-1.7
	c-0.2-0.6-0.3-1.4-0.3-2.2c0-0.3,0-0.6,0.1-1c0.1-0.4,0.1-0.8,0.2-1.2c0.1-0.4,0.2-0.8,0.3-1.2c0.1-0.4,0.2-0.8,0.2-1.1
	c-0.1,0-0.3,0-0.5,0c-0.1,0-0.3,0-0.4,0c-0.2,0-0.3,0-0.4,0h-0.1c-0.5,0-1-0.1-1.2-0.4c-0.3-0.3-0.5-0.6-0.5-1
	c0-0.6,0.3-1.1,0.9-1.5h0c0.3-0.3,0.7-0.4,1.3-0.4c0.2,0,0.5,0.1,0.8,0.2c0.2,0,0.4,0,0.6-0.1c0.2,0,0.4-0.1,0.6-0.1
	c0.4-1,0.7-1.9,0.9-2.8c0.2-0.9,0.4-1.7,0.5-2.3c0-0.1,0-0.1,0-0.2c0-0.1,0-0.2,0-0.3v-0.2c-0.1,0-0.2,0.1-0.3,0.1
	c-0.1,0-0.1,0-0.2,0.1c-0.6,0.2-1.3,0.4-2,0.6l0,0c-0.2,0.1-0.4,0.1-0.6,0.1c-0.4,0-0.8-0.2-1.1-0.5c-0.3-0.3-0.4-0.7-0.4-1.1
	c0-0.3,0.1-0.6,0.3-0.9c0.2-0.3,0.5-0.5,0.9-0.7c1.1-0.4,2.3-0.8,3.5-1.1c1.2-0.3,2.4-0.5,3.6-0.6c1.2-0.2,2.3-0.3,3.5-0.3
	c1.1,0,2.2-0.1,3.2-0.1c0.4,0,0.9,0,1.3,0c0.4,0,0.8,0,1.2,0c0.5,0,0.9,0.2,1.2,0.5c0.3,0.3,0.4,0.7,0.4,1v0.2c0,0.4-0.2,0.7-0.4,1
	c-0.2,0.3-0.6,0.4-1.1,0.4h-0.2c-0.4,0-0.8,0-1.2,0c-0.4,0-0.8,0-1.2,0c-1.2,0-2.5,0-3.7,0.1c-1.2,0.1-2.4,0.2-3.5,0.4
	c0,0.1,0,0.2,0.1,0.3c0,0.1,0,0.2,0,0.3c0,0.1,0,0.1,0,0.2s0,0.2,0,0.2c0,0.7-0.2,1.6-0.4,2.4c-0.2,0.9-0.5,1.7-0.7,2.6
	c0.8-0.1,1.7-0.3,2.5-0.4c0.9-0.1,1.7-0.3,2.6-0.4c0.8-0.2,1.6-0.3,2.4-0.4c0.7-0.1,1.4-0.3,1.9-0.4l0,0c0.1,0,0.2-0.1,0.2-0.1
	c0,0,0.1,0,0.1,0c0.4,0,0.7,0.1,0.9,0.4c0.2,0.2,0.4,0.5,0.5,0.9c0,0,0,0.1,0,0.1c0,0.1,0,0.1,0,0.2c0,0.3-0.1,0.7-0.3,1
	c-0.2,0.3-0.5,0.5-1,0.7c-0.5,0.1-1.3,0.3-2.2,0.5c-0.9,0.2-1.9,0.4-2.9,0.5c-1,0.2-2.1,0.4-3.1,0.5c-1,0.2-1.9,0.3-2.7,0.4
	c-0.3,0.9-0.5,1.8-0.7,2.6c-0.2,0.9-0.3,1.7-0.3,2.5v0.2c0,0.3,0,0.6,0.1,0.9c0.1,0.3,0.2,0.5,0.3,0.6c0.2,0.2,0.4,0.3,0.8,0.3h0.2
	c1,0,2.3-0.2,3.7-0.4c1.4-0.2,2.8-0.6,4.1-1.1c0.6-0.2,1.1-0.4,1.5-0.6c0.4-0.2,0.8-0.6,1.1-0.9c0.4-0.4,0.8-0.6,1.2-0.6
	c0.5,0,0.8,0.1,1.1,0.4h0c0.4,0.3,0.6,0.7,0.6,1.3c0,0.2,0,0.4-0.1,0.5c0,0.2-0.1,0.4-0.3,0.5v0C144,99,143.5,99.5,142.8,99.8z"/>
<path d="M154,83.9c0,0.2-0.1,0.4-0.2,0.6c-0.1,0.2-0.2,0.3-0.4,0.4c-0.1,0-0.2,0.1-0.3,0.1c-0.1,0-0.2,0.1-0.3,0.1
	c-0.4,0-0.7-0.2-0.9-0.6c-0.2-0.4-0.4-0.9-0.6-1.5c-0.2-0.6-0.2-1.3-0.2-1.9c0-0.3,0-0.6,0.1-1c0-0.3,0.1-0.6,0.2-0.8
	c0.3-0.5,0.7-0.7,1.1-0.7c0.2,0,0.4,0,0.5,0.1c0.2,0.1,0.4,0.3,0.6,0.5c0.2,0.2,0.2,0.5,0.2,0.8c0,0.3,0,0.5-0.1,0.7
	c-0.1,0.2-0.2,0.3-0.3,0.4v0.2c0,0.3,0,0.7,0.1,1s0.2,0.7,0.3,0.9v0C153.9,83.4,154,83.6,154,83.9z"/>
<path d="M163.7,99.1c-0.2,0.3-0.6,0.5-1.1,0.6c-0.1,0-0.2,0-0.4,0c-0.1,0-0.2,0-0.3,0h-0.6c-0.2,0.3-0.5,0.5-0.9,0.5
	c-0.3,0-0.6-0.1-0.8-0.3c0,0-0.1,0-0.2,0c-0.1,0-0.2,0-0.3,0c-0.3,0.2-0.6,0.3-0.9,0.3h-0.2c-0.8-0.1-1.3-0.5-1.5-1.3l0,0
	c-0.1-0.2-0.1-0.4-0.1-0.7c0-0.3,0.1-0.6,0.2-0.8c0.2-0.2,0.4-0.4,0.8-0.5c0.2-0.1,0.4-0.2,0.7-0.2c0.3,0,0.5-0.1,0.8-0.1
	c0-0.7,0-1.6,0.1-2.5c0.1-0.9,0.1-1.9,0.2-2.8c0.1-0.9,0.2-1.8,0.2-2.7c0.1-0.8,0.2-1.5,0.2-2.1c-0.2,0.1-0.3,0.2-0.5,0.3
	c-0.2,0.1-0.4,0.2-0.6,0.2c0,0-0.1,0-0.1,0c0,0,0,0-0.1,0c-0.3,0-0.5-0.1-0.7-0.2c-0.2-0.2-0.4-0.3-0.5-0.5
	c-0.1-0.2-0.2-0.5-0.2-0.8c0-0.5,0.3-1,0.8-1.3h0c0.1-0.1,0.3-0.2,0.6-0.4c0.3-0.1,0.5-0.3,0.8-0.5c0.2-0.1,0.4-0.3,0.6-0.4
	c0.2-0.1,0.4-0.2,0.5-0.3c0.3-0.2,0.6-0.3,0.9-0.3c0.5,0,0.9,0.2,1.2,0.5c0.4,0.4,0.5,0.8,0.5,1.2v0.2c-0.1,0.8-0.2,1.7-0.3,2.8
	c-0.1,1.1-0.2,2.2-0.3,3.3c-0.1,1.1-0.2,2.2-0.3,3.3c-0.1,1.1-0.2,2-0.2,2.8c0.3,0,0.6,0,0.8,0.1c0.2,0.1,0.4,0.1,0.6,0.3h0
	c0.4,0.2,0.7,0.6,0.7,1.2C164.1,98.5,163.9,98.8,163.7,99.1z"/>
<path d="M183.9,85c0,0.5-0.2,1-0.6,1.5v0c-0.9,1.1-1.9,2.5-3,4.1c-1.1,1.6-2.1,3.2-3.1,4.9c-1,1.7-1.8,3.3-2.6,5
	c-0.8,1.6-1.3,3.1-1.7,4.3c0,0.2,0.1,0.3,0.1,0.4c0,0.1,0,0.3,0,0.4c0,0.4-0.1,0.7-0.2,1.1c-0.2,0.3-0.4,0.6-0.7,0.7
	c-0.3,0.2-0.6,0.2-0.9,0.2c-0.2,0-0.4,0-0.6-0.1c-0.3-0.1-0.6-0.3-0.9-0.7c-0.2-0.3-0.4-0.7-0.4-1.2c0-0.1,0-0.2,0-0.4
	c0-0.1,0-0.3,0.1-0.4c0.4-1.6,1-3.2,1.8-4.9c0.8-1.7,1.6-3.3,2.5-5c0.9-1.6,1.8-3.2,2.8-4.6c1-1.5,1.9-2.7,2.7-3.9l0,0
	c0-0.1,0.1-0.2,0.2-0.3h-0.9c-0.6,0-1.2,0-1.8-0.1c-0.6,0-1.1,0-1.8,0c-0.7,0-1.4,0-2.1,0.1c-0.8,0-1.6,0.1-2.6,0.2
	c-0.3,0.2-0.5,0.3-0.8,0.3c-0.2,0.1-0.5,0.1-0.8,0.1h-0.2c-0.4,0-0.8-0.1-1.2-0.4c-0.4-0.3-0.6-0.6-0.8-1c0-0.1-0.1-0.2-0.1-0.3
	c0-0.1,0-0.2,0-0.3c0-0.4,0.1-0.7,0.4-1c0.3-0.3,0.7-0.5,1.3-0.6c0.7-0.1,1.7-0.2,2.9-0.2c1.2,0,2.4-0.1,3.6-0.1c1.3,0,2.5,0,3.8,0
	c1.2,0,2.3,0.1,3.3,0.1c0.6,0,1,0.1,1.4,0.4c0.3,0.2,0.6,0.5,0.7,0.8C183.9,84.5,183.9,84.7,183.9,85z"/>
<g>
	<path class="st0" d="M46,106.9c-6.3-4.7-13.3-9.6-18.4-14.4c-0.9,7.8-1.6,16.3-3.2,23.2C31.5,112.6,39.2,108.9,46,106.9z"/>
	<linearGradient id="SVGID_8_" gradientUnits="userSpaceOnUse" x1="-11.35" y1="118.6801" x2="39.2996" y2="118.6801">
		<stop  offset="0.2848" style="stop-color:#838383"/>
		<stop  offset="1" style="stop-color:#C4C4C4"/>
	</linearGradient>
	<path class="st8" d="M14.3,118.7C14.3,118.7,14.3,118.7,14.3,118.7C14.2,118.7,14.2,118.7,14.3,118.7
		C14.2,118.7,14.2,118.7,14.3,118.7z"/>
	<linearGradient id="SVGID_9_" gradientUnits="userSpaceOnUse" x1="55.2815" y1="117.2762" x2="7.2077" y2="123.9007">
		<stop  offset="0" style="stop-color:#838383"/>
		<stop  offset="1" style="stop-color:#C4C4C4"/>
	</linearGradient>
	<path class="st9" d="M46,106.8c-6.8,2.1-14.5,5.7-21.7,8.8c-11.2,4.8-21,8.4-23.9,2.9c0.1,0.8,0.2,1.4,0.4,2.1
		c0,0.1,0.1,0.2,0.1,0.3c0.9,2.6,2.5,4.6,4.8,5.9c0.2,0.1,0.4,0.2,0.6,0.4c0.1,0,0.1,0.1,0.2,0.1c1.4,0.8,3,1.5,4.9,1.9
		c0.9,0.2,1.8,0.4,2.7,0.5c0,0,0,0,0,0c13.2,2.4,26.8,2.2,40-0.5c2.7-0.6,4.9-1.7,6.6-3.1C63.5,120.6,55.6,113.9,46,106.8z"/>
	
		<linearGradient id="SVGID_10_" gradientUnits="userSpaceOnUse" x1="562.6495" y1="-670.3269" x2="561.9534" y2="-643.3377" gradientTransform="matrix(-0.5 -0.866 0.866 -0.5 865.838 283.5007)">
		<stop  offset="0" style="stop-color:#FFFFFF;stop-opacity:0.5"/>
		<stop  offset="1" style="stop-color:#FFFFFF;stop-opacity:0"/>
	</linearGradient>
	<path class="st10" d="M24.3,115.9c-11.1,4.8-21,8.3-23.9,2.8c0,0,0,0,0,0c0,0.3,0.1,0.5,0.1,0.8c0,0.1,0.1,0.2,0.1,0.3
		c0,0.1,0,0.2,0.1,0.3c0,0.1,0.1,0.2,0.1,0.3c7.4,5.3,19.4,7.8,32.3,5.9c9.7-1.4,18.2-5,24.1-9.8c-2.8-3-6.8-6.2-11.2-9.4
		C39.2,109.2,31.5,112.8,24.3,115.9z"/>
	
		<linearGradient id="SVGID_11_" gradientUnits="userSpaceOnUse" x1="365.6895" y1="-373.3519" x2="317.5943" y2="-366.7244" gradientTransform="matrix(-0.5 -0.866 0.866 -0.5 538.1153 209.0866)">
		<stop  offset="0" style="stop-color:#838383"/>
		<stop  offset="1" style="stop-color:#C4C4C4"/>
	</linearGradient>
	<path class="st11" d="M27.5,92.4c5.2,4.8,12.2,9.7,18.4,14.4c9.8,7.3,17.7,14.1,14.4,19.4c0.6-0.5,1.2-1,1.7-1.5
		c0.1-0.1,0.1-0.1,0.2-0.2c1.8-2,2.7-4.5,2.7-7.1c0-0.2,0-0.5,0-0.7c0-0.1,0-0.1,0-0.2c0-1.6-0.2-3.4-0.8-5.2
		c-0.3-0.9-0.6-1.8-0.9-2.6c0,0,0,0,0,0C58.6,96,51.7,84.3,42.7,74.3c-1.9-2-3.9-3.4-6-4.2C30.7,70.3,28.9,80.5,27.5,92.4z"/>
	
		<linearGradient id="SVGID_12_" gradientUnits="userSpaceOnUse" x1="832.8641" y1="-156.3276" x2="832.1686" y2="-129.3601" gradientTransform="matrix(-0.5 0.866 -0.866 -0.5 350.8551 -682.9639)">
		<stop  offset="0" style="stop-color:#FFFFFF;stop-opacity:0.5"/>
		<stop  offset="1" style="stop-color:#FFFFFF;stop-opacity:0"/>
	</linearGradient>
	<path class="st12" d="M46.3,106.6c9.7,7.3,17.7,13.9,14.4,19.2c0,0-0.2,0.2-0.1,0.2c0.2-0.2,0.5-0.4,0.8-0.6c0.1,0,0.1-0.1,0.2-0.2
		c0.1-0.1,0.1-0.1,0.1-0.1c0.1-0.1,0.2-0.2,0.3-0.3c0.9-9.1-2.9-20.6-11-30.9c-6.1-7.7-13.4-13.2-20.5-16c-1.2,3.9-1.9,9-2.6,14.4
		C33,97.1,40,101.9,46.3,106.6z"/>
	
		<linearGradient id="SVGID_13_" gradientUnits="userSpaceOnUse" x1="635.8615" y1="140.6597" x2="587.7618" y2="147.2878" gradientTransform="matrix(-0.5 0.866 -0.866 -0.5 450.2731 -361.9405)">
		<stop  offset="0" style="stop-color:#838383"/>
		<stop  offset="1" style="stop-color:#C4C4C4"/>
	</linearGradient>
	<path class="st13" d="M24.3,115.6c1.6-6.9,2.3-15.4,3.2-23.2C29,80.3,30.8,70,37.1,70.2c-0.7-0.3-1.4-0.5-2.1-0.7
		c-0.1,0-0.2,0-0.3-0.1c-2.7-0.5-5.3-0.1-7.5,1.2c-0.2,0.1-0.4,0.2-0.6,0.3c-0.1,0-0.1,0.1-0.2,0.1c-1.4,0.8-2.8,1.9-4.1,3.3
		c-0.6,0.7-1.2,1.4-1.8,2.1c0,0,0,0,0,0C11.9,86.8,5.2,98.6,1,111.4c-1.3,4.2-0.5,7.8-0.6,7.3C3.5,123.9,13.3,120.3,24.3,115.6z"/>
	
		<linearGradient id="SVGID_14_" gradientUnits="userSpaceOnUse" x1="252.3107" y1="-179.6745" x2="251.6149" y2="-152.696" gradientTransform="matrix(1 0 0 1 -228.3056 246.61)">
		<stop  offset="0" style="stop-color:#FFFFFF;stop-opacity:0.5"/>
		<stop  offset="1" style="stop-color:#FFFFFF;stop-opacity:0"/>
	</linearGradient>
	<path class="st14" d="M27.3,92.3c1.4-12.1,3.2-22.3,9.5-22.1c0,0-0.4-0.2-0.7-0.3c-0.1,0-0.2-0.1-0.3-0.1c-0.1,0-0.2,0-0.2-0.1
		c-0.1,0-0.3-0.1-0.4-0.1c-8.3,3.7-16.4,12.8-21.3,25c-3.6,9.1-4.7,18.2-3.6,25.8c4-0.9,8.8-2.8,13.8-5
		C25.7,108.5,26.4,100,27.3,92.3z"/>
</g>
<g>
	<path class="st15" d="M95,186.4c-0.2,0.2-0.5,0.3-0.8,0.3h-1.3c0,0.3,0,0.7,0,1c0,0.3,0,0.7,0,1c0,0.4,0,0.8,0,1.2
		c0,0.4,0,0.7,0,1.1c-0.1,0.8-0.4,1.3-1,1.3c-0.2,0-0.5-0.1-0.7-0.3c-0.2-0.2-0.4-0.5-0.6-0.9c0-0.1-0.1-0.4-0.1-0.6
		c0-0.2,0-0.3,0-0.5c0-0.2,0.1-0.3,0.2-0.5c0-0.5,0-0.9,0-1.3c0-0.4,0-0.9,0.1-1.4c-0.5,0-1,0-1.5,0c-0.5,0-1,0-1.5,0
		c-0.4,0-0.8,0-1.2,0c-0.4,0-0.8,0-1.1,0h-0.7c0,0.2,0,0.4,0,0.6c0,0.2,0,0.3,0,0.5c0,0.3-0.1,0.6-0.1,0.8c0,0.3,0,0.6,0,0.9v0
		c0.1,0.1,0.1,0.3,0.2,0.4c0.1,0.1,0.1,0.3,0.1,0.5v0.2c0,0.3-0.1,0.5-0.2,0.7c-0.1,0.2-0.3,0.3-0.5,0.4c-0.2,0.1-0.4,0.1-0.6,0.1
		c-0.2,0-0.5-0.1-0.7-0.2c-0.2-0.2-0.4-0.4-0.5-0.7v0c-0.1-0.2-0.1-0.4-0.2-0.6c0-0.2,0-0.5,0-0.7c0-0.3,0-0.7,0-1
		c0-0.4,0.1-0.7,0.1-1.2c0-0.1,0-0.2,0-0.3s0-0.2,0-0.3h-0.6c-0.2,0-0.3,0-0.5,0c-0.1,0-0.2,0-0.3,0c-0.4,0-0.7-0.1-0.9-0.3
		c-0.2-0.2-0.3-0.4-0.3-0.7c0-0.2,0.1-0.5,0.3-0.7c0.2-0.2,0.4-0.4,0.8-0.5c0.1-0.1,0.3-0.1,0.5-0.1c0.2,0,0.4,0,0.5,0.1l0,0
		c0.2,0,0.5,0,0.7,0.1c0-0.5,0.1-1,0.2-1.6c0.1-0.6,0.1-1.2,0.2-1.9c0.1-0.6,0.1-1.3,0.1-1.9c0-0.6,0.1-1.2,0.1-1.7V177
		c0-0.4,0.1-0.7,0.3-0.9c0.2-0.2,0.5-0.3,0.8-0.3h0c0.2,0,0.4,0.1,0.7,0.3c0.2,0.2,0.4,0.4,0.5,0.7c0,0,0,0.1,0,0.1s0,0.1,0,0.4
		c0,0.1,0,0.2,0,0.3c0,0.1-0.1,0.2-0.2,0.3v0.2c0,0.5,0,1.2-0.1,2.1c-0.1,0.9-0.1,1.7-0.2,2.6c0,0.3-0.1,0.7-0.1,1
		c0,0.3-0.1,0.6-0.1,0.9c0.4,0,0.8,0,1.3,0c0.4,0,0.9,0,1.4,0c0.6,0,1.1,0,1.6,0c0.5,0,1.1,0,1.6,0c0-0.5,0-1.1,0.1-1.7
		c0-0.6,0.1-1.3,0.1-1.9c0-0.6,0-1.2,0-1.8c0-0.6,0-1.1,0-1.5c0-0.2,0-0.3,0-0.5c0-0.2,0-0.3,0-0.5c0,0,0-0.1,0-0.1s0,0,0-0.1
		c-0.1,0-0.1-0.1-0.1-0.3v0c0-0.1-0.1-0.2-0.1-0.4c0-0.1,0-0.3,0-0.4c0-0.1,0-0.2,0-0.2c0-0.1,0-0.2,0-0.2c0.1-0.3,0.2-0.5,0.5-0.6
		c0.2-0.2,0.5-0.2,0.8-0.2c0.4,0,0.7,0.2,0.9,0.5c0.1,0.2,0.2,0.5,0.3,0.7c0,0.3,0.1,0.5,0.1,0.8c0,0.1,0,0.3,0,0.5
		c0,0.2,0,0.4,0,0.6c0,0.5,0,1,0,1.6c0,0.6,0,1.2,0,1.8c0,0.6,0,1.3,0,1.9c0,0.6,0,1.2,0,1.6c0,0.1,0,0.2,0,0.3h1.3
		c0.4,0,0.6,0.1,0.8,0.3c0.2,0.2,0.3,0.5,0.3,0.7C95.3,186,95.2,186.2,95,186.4z"/>
	<path class="st15" d="M109.8,188.8c0,0.2,0,0.4-0.1,0.6c-0.1,0.2-0.2,0.3-0.4,0.4c-0.5,0.3-1.2,0.6-1.9,0.8
		c-0.7,0.2-1.3,0.4-1.9,0.5c-0.1,0-0.2,0-0.3,0c-0.1,0-0.2,0-0.3,0c-0.5,0-0.9-0.1-1.3-0.3c-0.3-0.2-0.6-0.4-0.9-0.8v0
		c-0.1-0.2-0.2-0.4-0.3-0.7c-0.1-0.3-0.1-0.6-0.1-0.8c0,0-0.1,0-0.1,0.1c-0.2,0.1-0.5,0.3-0.8,0.6c-0.3,0.3-0.6,0.6-1,0.9
		c-0.2,0.2-0.4,0.3-0.6,0.5c-0.2,0.2-0.4,0.3-0.6,0.5c-0.7,0.5-1.3,0.7-1.9,0.7c-0.5,0-0.9-0.2-1.3-0.5c-0.4-0.4-0.7-1-0.7-1.8
		c0-0.7,0.2-1.4,0.6-2c0.2-0.5,0.5-0.9,0.9-1.4c0.3-0.4,0.7-0.9,1.1-1.3s0.8-0.7,1.2-1.1c0.4-0.3,0.8-0.6,1.1-0.8
		c0.4-0.2,0.8-0.5,1.4-0.8c0.5-0.3,1.1-0.4,1.7-0.4c0.3,0,0.6,0.1,1,0.2s0.7,0.3,1,0.6c0.2,0.1,0.3,0.3,0.3,0.4
		c0.1,0.1,0.1,0.3,0.1,0.4c0,0.2,0,0.4-0.1,0.6c-0.1,0.2-0.3,0.3-0.4,0.4c-0.2,0.1-0.4,0.2-0.6,0.2c-0.2,0-0.5-0.1-0.7-0.2
		c-0.1-0.1-0.2-0.2-0.4-0.2c-0.1,0-0.3-0.1-0.4-0.1c-0.4,0-1,0.2-1.6,0.6c-0.3,0.2-0.6,0.4-0.9,0.7c-0.3,0.3-0.7,0.6-1,0.9
		c-0.3,0.3-0.6,0.7-0.9,1.1c-0.3,0.4-0.5,0.7-0.7,1.1c0,0.1-0.1,0.2-0.1,0.3c0,0.1,0,0.2,0,0.4s0,0.2,0,0.2c0,0,0,0,0,0
		c0.1,0,0.2-0.1,0.4-0.2l0.3-0.2c0.3-0.2,0.5-0.5,0.9-0.7c0.3-0.3,0.7-0.6,1-0.8c0.3-0.3,0.7-0.5,1-0.8c0.3-0.2,0.6-0.5,0.9-0.6v0
		c0.4-0.3,0.8-0.4,1.2-0.4c0.3,0,0.6,0.1,0.8,0.3c0.2,0.2,0.3,0.5,0.3,0.9v0.4c0,0.2,0,0.4,0,0.6c0,0.2,0,0.3,0.1,0.4
		c0.1,0.2,0.2,0.4,0.3,0.5c0.1,0.1,0.3,0.1,0.4,0.1h0.1c0.2,0,0.4-0.1,0.7-0.1c0.3-0.1,0.5-0.1,0.8-0.2c0.3-0.1,0.5-0.2,0.8-0.3
		c0.2-0.1,0.5-0.2,0.6-0.3c0.2-0.1,0.4-0.1,0.5-0.1c0.3,0,0.6,0.1,0.8,0.4v0C109.7,188.4,109.8,188.6,109.8,188.8z"/>
	<path class="st15" d="M130.4,189.5c-0.2,0.1-0.4,0.2-0.6,0.2c-0.1,0-0.2,0-0.2,0c0,0,0,0,0,0c0,0-0.1,0-0.2,0
		c-0.1,0-0.3,0.1-0.5,0.1c-0.2,0-0.4,0.1-0.6,0.1c-0.2,0-0.5,0.1-0.7,0.2c-0.2,0.1-0.5,0.1-0.7,0.2c-0.6,0.2-1.1,0.3-1.6,0.3
		c-0.4,0-0.8-0.1-1.2-0.2c-0.4-0.1-0.7-0.4-1-0.7c-0.4-0.4-0.7-0.9-0.9-1.5c-0.2-0.6-0.4-1.2-0.6-1.9c-0.1-0.2-0.2-0.4-0.3-0.4
		c-0.2,0-0.6,0.2-1.2,0.6c-0.1,0.1-0.3,0.2-0.5,0.4c-0.2,0.2-0.4,0.4-0.7,0.7c-0.3,0.3-0.5,0.5-0.8,0.8c-0.3,0.3-0.5,0.6-0.8,0.9
		c-0.1,0.2-0.3,0.3-0.5,0.4c-0.2,0.1-0.4,0.1-0.6,0.1c-0.2,0-0.4-0.1-0.6-0.2c-0.2-0.1-0.4-0.3-0.5-0.5c-0.1-0.2-0.2-0.5-0.3-0.8
		c-0.1-0.3-0.2-0.5-0.3-0.8h0c-0.1-0.2-0.2-0.4-0.2-0.6c-0.1-0.2-0.2-0.4-0.3-0.6v0c0-0.1-0.1-0.1-0.2-0.1c0,0-0.1,0-0.1,0
		c0,0,0,0-0.1,0c-0.2,0-0.4,0.2-0.7,0.5c-0.2,0.3-0.4,0.5-0.6,0.7c-0.2,0.2-0.5,0.5-0.7,0.8c-0.2,0.2-0.4,0.4-0.5,0.6
		c-0.3,0.3-0.6,0.7-0.8,1c-0.2,0.4-0.5,0.7-0.6,0.9c-0.1,0.2-0.3,0.4-0.5,0.5c-0.2,0.1-0.4,0.1-0.6,0.1c-0.1,0-0.2,0-0.3,0
		c-0.1,0-0.2,0-0.3-0.1h0c-0.5-0.2-0.7-0.6-0.7-1.2c0-0.4-0.1-0.9-0.1-1.4c0-0.5,0-1,0-1.5c0-0.7,0-1.3,0-1.9c0-0.6,0-1.1,0.1-1.4
		c0-0.4,0.2-0.6,0.4-0.8c0.2-0.2,0.5-0.3,0.8-0.3h0c0.3,0,0.5,0.1,0.7,0.3c0.2,0.2,0.3,0.4,0.3,0.8v0.1c0,0.4-0.1,0.9-0.1,1.4
		c0,0.5,0,1,0,1.5v0.5c0.1-0.1,0.1-0.2,0.2-0.2c0.1-0.1,0.1-0.1,0.2-0.2c0.2-0.2,0.3-0.4,0.5-0.6c0.2-0.2,0.3-0.4,0.5-0.6l0.3-0.4
		c0.3-0.4,0.6-0.7,1.1-1c0.4-0.3,0.9-0.5,1.3-0.6c0.1,0,0.1,0,0.2,0c0.1,0,0.1,0,0.2,0c0.3,0,0.7,0.1,1,0.3c0.3,0.2,0.6,0.5,0.8,1
		c0.1,0.2,0.2,0.5,0.3,0.7c0.1,0.2,0.2,0.5,0.3,0.7c0,0.2,0.1,0.3,0.1,0.4c0,0,0,0,0,0l0.1,0c0.1-0.1,0.3-0.3,0.5-0.5
		c0.2-0.2,0.4-0.4,0.6-0.6s0.4-0.4,0.6-0.5c0.2-0.2,0.3-0.3,0.5-0.4c1.1-0.9,2.1-1.4,2.9-1.4h0c0.9,0,1.6,0.6,1.9,1.9
		c0.1,0.6,0.3,1.1,0.5,1.7c0.2,0.6,0.4,1,0.7,1.3c0.2,0.2,0.4,0.3,0.6,0.3c0.2,0,0.4,0,0.6-0.1c0.3-0.1,0.6-0.2,0.9-0.3
		c0.3-0.1,0.6-0.2,0.9-0.3c0.3-0.1,0.6-0.2,0.9-0.2c0.3-0.1,0.5-0.1,0.7-0.1h0.1c0.2,0,0.4,0,0.6,0.1c0.2,0.1,0.3,0.1,0.4,0.3v0
		c0.2,0.2,0.3,0.4,0.3,0.7c0,0.2-0.1,0.4-0.2,0.6v0C130.7,189.3,130.6,189.4,130.4,189.5z"/>
	<path class="st15" d="M138.5,184.8c0,0.7-0.2,1.5-0.6,2.3v0c-0.2,0.4-0.4,0.8-0.7,1.3c-0.3,0.4-0.6,0.8-1,1.2
		c-0.5,0.6-1.1,1.1-1.8,1.6c-0.6,0.5-1.3,0.9-2,1.4h0c-0.2,0.1-0.4,0.2-0.6,0.2c-0.3,0-0.6-0.2-0.9-0.6c-0.1-0.2-0.1-0.3-0.1-0.5
		c0-0.4,0.2-0.7,0.5-0.9c0.7-0.5,1.4-0.9,1.9-1.3c0.6-0.4,1.1-0.9,1.5-1.4c0.3-0.3,0.5-0.6,0.8-1c0.2-0.4,0.4-0.7,0.5-1
		c0.2-0.4,0.3-0.6,0.3-0.8c0-0.1,0-0.2-0.1-0.3c-0.1-0.1-0.3-0.1-0.5-0.1c0,0-0.1,0-0.1,0c0,0-0.1,0-0.2,0c-0.4,0-0.8,0.1-1.4,0.3
		c-0.5,0.2-1.1,0.4-1.6,0.7c-0.3,0.2-0.5,0.3-0.7,0.5c-0.2,0.2-0.4,0.4-0.5,0.6c0,0.1-0.1,0.1-0.1,0.1c0,0,0,0.1,0,0.1l-0.1,0.2l0,0
		c0,0.1,0,0.2,0,0.2c0,0.1,0,0.1,0,0.2c0,0.1,0,0.2,0,0.3c0,0.1,0,0.2,0,0.3v0.2c0,0.4-0.1,0.6-0.3,0.8c-0.2,0.2-0.4,0.3-0.7,0.3
		c-0.2,0-0.4-0.1-0.7-0.2c-0.2-0.2-0.4-0.4-0.5-0.8c-0.1-0.3-0.1-0.7-0.2-1.2c0-0.5,0-0.9,0-1.5c0-0.7,0-1.5,0.1-2.4
		s0.1-1.6,0.2-2.4c0.1-0.8,0.2-1.5,0.3-2.2c0.1-0.7,0.2-1.3,0.3-1.8c0-0.3,0.1-0.5,0.1-0.7c0-0.2,0.2-0.4,0.3-0.6
		c0.2-0.4,0.5-0.5,1-0.5h0.1c0.3,0,0.5,0.1,0.7,0.2c0.2,0.2,0.3,0.4,0.3,0.6v0.1c0,0.1-0.1,0.3-0.1,0.4c-0.1,0.1-0.1,0.3-0.2,0.4
		c-0.1,0.1-0.1,0.2-0.1,0.2l0,0c-0.1,0.4-0.1,0.9-0.2,1.4c-0.1,0.5-0.2,1.1-0.2,1.7c-0.1,0.6-0.1,1.2-0.2,1.8
		c-0.1,0.6-0.1,1.3-0.2,1.9c0.1-0.1,0.3-0.2,0.5-0.3c0.2-0.1,0.3-0.2,0.5-0.3c0.4-0.2,1-0.5,1.6-0.7c0.6-0.2,1.2-0.4,1.8-0.4h0
		c0.1,0,0.2,0,0.4,0c0.1,0,0.3,0,0.4,0c0.5,0,0.9,0.1,1.2,0.2c0.3,0.1,0.6,0.3,0.8,0.6h0C138.3,183.7,138.5,184.2,138.5,184.8z"/>
	<path class="st15" d="M154.5,188.9c0,0.2,0,0.3-0.1,0.5c-0.1,0.2-0.2,0.3-0.4,0.4c-0.4,0.2-0.8,0.4-1.4,0.6
		c-0.5,0.2-1.1,0.3-1.7,0.4c-0.1,0-0.2,0-0.3,0c-0.1,0-0.2,0-0.3,0c-0.5,0-1-0.1-1.4-0.3c-0.5-0.2-0.8-0.5-1.1-0.9
		c-0.1-0.2-0.2-0.3-0.3-0.5c-0.1-0.2-0.1-0.4-0.2-0.6c-0.3,0.4-0.6,0.7-1,1.1c-0.4,0.3-0.7,0.6-1.1,0.8c-1,0.6-1.9,0.9-2.9,0.9
		c-0.3,0-0.6,0-0.9-0.1h0c-1-0.2-1.7-0.9-2-1.9c-0.1-0.3-0.2-0.6-0.2-0.9c0-0.3-0.1-0.7-0.1-1c0-0.7,0.1-1.4,0.2-2.1
		c0.1-0.7,0.3-1.2,0.4-1.6c0.1-0.3,0.3-0.5,0.5-0.6c0.2-0.1,0.5-0.2,0.7-0.2c0.3,0,0.5,0.1,0.7,0.3c0.2,0.2,0.3,0.4,0.3,0.7
		c0,0.1,0,0.1,0,0.2c0,0,0,0.1,0,0.2l0,0c-0.2,0.5-0.3,1-0.4,1.6c-0.1,0.6-0.1,1.1-0.1,1.6c0,0.4,0,0.8,0.1,1.1
		c0.1,0.3,0.3,0.5,0.6,0.6c0.1,0,0.3,0,0.4,0c0.2,0,0.4,0,0.7-0.1c0.2-0.1,0.5-0.2,0.8-0.4c0.9-0.6,1.7-1.3,2.2-2.1
		c0.6-0.8,1-1.5,1.2-2.2c0.1-0.2,0.3-0.4,0.4-0.5c0.2-0.1,0.4-0.1,0.6-0.1c0,0,0.1,0,0.1,0c0,0,0.1,0,0.2,0l0,0
		c0.2,0,0.4,0.2,0.6,0.3c0.2,0.2,0.3,0.4,0.3,0.6c0,0,0,0.1,0,0.1c0,0,0,0.1,0,0.2v0c-0.2,0.8-0.3,1.4-0.3,1.9c0,0.2,0,0.5,0,0.6
		c0,0.2,0.1,0.4,0.1,0.5v0c0.1,0.2,0.2,0.4,0.3,0.5c0.2,0.1,0.3,0.1,0.5,0.1c0,0,0.1,0,0.1,0c0,0,0.1,0,0.1,0c0.4,0,0.9-0.1,1.3-0.3
		c0.4-0.1,0.8-0.3,1.1-0.5c0.2-0.1,0.4-0.2,0.6-0.2c0.4,0,0.7,0.2,0.9,0.6C154.5,188.5,154.5,188.7,154.5,188.9z"/>
	<path class="st15" d="M161.4,186.2c-0.1,0-0.2,0-0.3,0c-0.1,0-0.2-0.1-0.3-0.1h0c-0.2-0.1-0.4-0.1-0.5-0.1c0,0-0.1,0-0.1,0
		c0,0-0.1,0-0.1,0c-0.2,0-0.5,0.1-0.8,0.2c-0.3,0.1-0.7,0.2-1,0.4c-0.3,0.2-0.7,0.3-1.1,0.5c-0.4,0.2-0.7,0.4-1,0.6
		c-0.5,0.3-0.8,0.6-1,0.9c-0.1,0.2-0.2,0.4-0.2,0.6c0,0.2-0.1,0.4-0.1,0.6v0c0,0.4-0.2,0.6-0.4,0.8c-0.2,0.2-0.4,0.3-0.7,0.3
		c-0.3,0-0.5-0.1-0.7-0.3c-0.2-0.2-0.3-0.5-0.3-0.8c0-0.2,0-0.3,0-0.5c0-0.2,0-0.4,0-0.6v-1.1c0-0.4,0-0.7,0-1c0-0.3,0-0.6,0.1-0.9
		c-0.1-0.1-0.2-0.2-0.2-0.4c0-0.1,0-0.2,0.1-0.3c0.1-0.2,0.3-0.5,0.4-0.8v0c0.1-0.2,0.2-0.4,0.4-0.5c0.2-0.1,0.3-0.1,0.5-0.1
		c0,0,0.1,0,0.2,0c0.1,0,0.2,0,0.3,0c0.2,0.1,0.3,0.2,0.5,0.3c0.1,0.2,0.2,0.3,0.2,0.6c0,0,0,0.1,0,0.1c0,0,0,0.1,0,0.1
		c0,0.2-0.1,0.4-0.1,0.7c0,0.3-0.1,0.6-0.1,0.8c0,0,0.1,0,0.1,0c0,0,0,0,0.1-0.1c0,0,0.1-0.1,0.1-0.1c0.3-0.2,0.7-0.5,1.2-0.7
		c0.4-0.2,0.9-0.4,1.4-0.6c0.5-0.2,0.9-0.3,1.4-0.5c0.5-0.1,0.9-0.2,1.2-0.2h0.1c0.3,0,0.6,0,0.9,0.1c0.3,0.1,0.4,0.2,0.6,0.3
		c0.3,0.2,0.4,0.5,0.4,0.8c0,0.3-0.1,0.5-0.2,0.7h0C162,186,161.8,186.2,161.4,186.2z"/>
	<path class="st15" d="M171,182.7c0.1,0.2,0.1,0.4,0.1,0.6c0,0.3-0.1,0.6-0.3,0.8c-0.2,0.2-0.5,0.3-0.7,0.3c-0.2,0-0.4-0.1-0.5-0.2
		h0c-0.1-0.1-0.3-0.1-0.5-0.1c-0.3,0-0.6,0.1-0.9,0.2c-0.3,0.1-0.7,0.3-1.1,0.5c-0.4,0.2-0.7,0.4-1.1,0.7c-0.4,0.3-0.7,0.5-1,0.8h0
		c-0.2,0.3-0.4,0.6-0.6,0.9c-0.2,0.3-0.3,0.6-0.3,0.8v0.1c0,0.1,0,0.1,0.1,0.1c0.1,0,0.2,0,0.4-0.1c0.2-0.1,0.5-0.3,0.7-0.4
		c0.3-0.2,0.5-0.3,0.8-0.5c0.3-0.1,0.5-0.3,0.8-0.4s0.5-0.2,0.8-0.3c0.1,0,0.2,0,0.3,0c0.1,0,0.2,0,0.3,0c0.3,0,0.5,0.1,0.7,0.2
		c0.2,0.1,0.4,0.3,0.5,0.6c0.1,0.1,0.1,0.3,0.2,0.6c0.1,0.3,0.1,0.6,0.2,1c0.1,0.4,0.1,0.8,0.1,1.2c0,0.4,0.1,0.9,0.1,1.3
		c0,0.4,0,0.9-0.1,1.3c0,0.4-0.1,0.9-0.2,1.2c-0.2,1-0.6,2-1.2,2.9c-0.6,0.9-1.4,1.7-2.4,2.3l0,0c-0.2,0.1-0.4,0.2-0.6,0.2
		c-0.2,0-0.4-0.1-0.6-0.2c-0.2-0.1-0.3-0.2-0.4-0.4c-0.1-0.1-0.1-0.2-0.2-0.3c0-0.1-0.1-0.2-0.1-0.3c0-0.4,0.2-0.7,0.6-0.9
		c0.8-0.5,1.4-1.1,1.8-1.7c0.4-0.6,0.7-1.3,0.8-2.1c0.1-0.4,0.1-0.7,0.2-1c0-0.3,0-0.6,0-0.9c0-0.4,0-0.7,0-1.1c0-0.4-0.1-0.7-0.1-1
		c0,0,0-0.1,0-0.1c0,0,0-0.1,0-0.1c0-0.1-0.1-0.2-0.1-0.2c0,0-0.1,0-0.2,0c-0.2,0.1-0.5,0.2-0.8,0.4c-0.3,0.2-0.7,0.4-1,0.5
		c-0.1,0.1-0.3,0.2-0.5,0.3h0c-0.3,0.2-0.6,0.3-0.9,0.4c-0.3,0.1-0.6,0.1-0.8,0.1c-0.6,0-1-0.2-1.3-0.5c-0.3-0.4-0.5-0.9-0.5-1.5
		c0-0.8,0.2-1.5,0.6-2.2c0.4-0.7,0.8-1.3,1.3-1.9c0.3-0.4,0.7-0.7,1.1-1c0.4-0.3,0.9-0.6,1.4-0.9c0.5-0.3,1-0.5,1.5-0.6
		c0.5-0.2,1-0.2,1.5-0.2c0.3,0,0.5,0,0.8,0c0.2,0,0.5,0.1,0.7,0.3v0C170.8,182.4,170.9,182.5,171,182.7z"/>
</g>
<path class="st15" d="M86,165.1c0,0.3-0.1,0.5-0.2,0.8c-0.1,0.3-0.3,0.5-0.7,0.7c-0.8,0.5-1.8,0.9-2.8,1.3c-1,0.4-2.1,0.7-3.3,0.9
	c-1.1,0.2-2.3,0.4-3.5,0.5s-2.3,0.2-3.4,0.2c-0.8,0-1.6-0.1-2.1-0.3c-0.6-0.2-1.1-0.4-1.4-0.8c-0.6-0.6-0.9-1.4-0.9-2.4
	c0-0.9,0.2-2.1,0.6-3.5c1-3.3,1.7-6.3,2.1-8.9c0.4-2.7,0.8-5,1.1-6.9c0-0.5,0.2-0.9,0.6-1.1c0.3-0.2,0.7-0.4,1.1-0.4
	c0.4,0,0.8,0.1,1.1,0.4c0.3,0.2,0.5,0.6,0.5,1.1v0.2c-0.2,2.5-0.6,5.1-1.1,7.9c-0.5,2.8-1.2,5.7-2.1,8.7c-0.1,0.4-0.2,0.7-0.3,1
	c-0.1,0.3-0.1,0.5-0.1,0.8c0,0.3,0.1,0.5,0.2,0.7c0.2,0.2,0.6,0.3,1.4,0.3c1,0,2-0.1,3.1-0.2c1-0.1,2-0.3,3-0.5
	c0.9-0.2,1.8-0.5,2.6-0.8c0.8-0.3,1.5-0.6,2.1-0.9c0.2-0.1,0.3-0.2,0.5-0.2c0.2,0,0.3,0,0.5,0c0.5,0,1,0.2,1.3,0.7l0,0
	C85.9,164.5,86,164.8,86,165.1z"/>
<path class="st15" d="M105.7,168.8c0,0.2,0,0.4-0.1,0.6c-0.1,0.2-0.2,0.3-0.3,0.5c-0.1,0.2-0.3,0.3-0.5,0.5
	c-0.2,0.1-0.4,0.2-0.7,0.2c-0.4,0-0.8-0.2-1.2-0.6c-0.3-0.4-1-0.8-1.9-1.3c-0.9-0.5-2-1-3.2-1.6c-1-0.5-2-1-3-1.5
	c-1-0.5-1.9-1-2.7-1.5c0,0.3,0,0.5,0,0.7c0,0.2,0,0.4,0,0.6c0,0.2,0,0.4,0,0.6c0,0.2,0,0.4,0,0.7c0.1,0.1,0.2,0.2,0.3,0.3
	c0.1,0.1,0.2,0.2,0.2,0.2h0c0,0.1,0.1,0.2,0.1,0.3c0,0,0,0.1,0,0.1c0,0.4-0.1,0.8-0.4,1.1c-0.1,0.2-0.3,0.3-0.5,0.4
	c-0.2,0.1-0.4,0.2-0.7,0.2c-0.3,0-0.6-0.1-0.8-0.2c-0.3-0.1-0.5-0.4-0.8-0.7c-0.3-0.3-0.5-0.8-0.5-1.4v-5.6
	c-0.3-0.6-0.5-1.3-0.5-2.1c0-0.7,0.2-1.4,0.7-2c0-0.5,0-1.1,0.1-1.6c0-0.6,0.1-1.1,0.1-1.7c0-1,0.1-1.9,0.1-2.8
	c0-0.9,0.1-1.7,0.1-2.4c0-0.6,0.2-1,0.6-1.3c0.4-0.2,0.8-0.4,1.2-0.4c0.5,0,0.9,0.1,1.1,0.4c0.3,0.3,0.4,0.7,0.5,1.1v0.2
	c0,0.4-0.1,0.8-0.2,1.2c0,0.4,0,0.8,0,1.3c0,0.5-0.1,1-0.1,1.5c0,0.4-0.1,0.8-0.1,1.2c0,0.4,0,0.8,0,1.2c0.5-0.2,1-0.5,1.6-0.7
	c0.6-0.2,1.2-0.5,1.8-0.7c0.6-0.2,1.2-0.5,1.8-0.7c0.6-0.2,1.1-0.5,1.5-0.7c0.5-0.2,0.8-0.4,1.1-0.6s0.4-0.3,0.5-0.4
	c0.2-0.3,0.4-0.6,0.7-0.7c0.3-0.1,0.7-0.2,1-0.2c0.5,0,0.9,0.2,1.1,0.5c0.2,0.3,0.3,0.6,0.3,1c0,0,0,0.1,0,0.2c0,0.1,0,0.1,0,0.2
	c-0.1,0.4-0.2,0.8-0.5,1.1c-0.3,0.3-0.5,0.5-0.7,0.7c0,0-0.1,0.1-0.2,0.1c-0.6,0.4-1.4,0.7-2.3,1.1c-0.9,0.4-1.9,0.8-2.9,1.2
	c-1,0.4-2,0.8-2.9,1.2c-0.9,0.4-1.5,0.7-2,1.1l-0.1,1.2c0.4,0.4,0.9,0.7,1.4,1.1c0.6,0.4,1.1,0.7,1.8,1.1c0.6,0.3,1.3,0.7,2,1
	c0.7,0.3,1.3,0.7,2,1c0.7,0.3,1.3,0.6,1.9,0.9c0.6,0.3,1.2,0.6,1.7,0.9c0.5,0.3,1,0.6,1.4,0.9s0.7,0.6,1,0.8v0
	C105.6,168.1,105.7,168.5,105.7,168.8z"/>
<path class="st15" d="M125.1,168c0,0.1,0,0.2,0,0.3c0,0.4-0.1,0.7-0.3,1c-0.2,0.3-0.6,0.5-1,0.6c-1.4,0.4-2.8,0.6-4,0.8
	c-1.3,0.2-2.5,0.2-3.6,0.2c-1.5,0-2.7-0.1-3.8-0.3c-1.5-0.3-2.7-0.8-3.5-1.4s-1.4-1.4-1.8-2.3c-0.2-0.4-0.4-0.9-0.5-1.4
	c-0.1-0.5-0.1-1-0.1-1.5c0-0.9,0.1-1.9,0.4-2.8c0.2-1,0.6-1.9,0.9-2.8c0.5-1.2,1.2-2.4,2.1-3.7c0.9-1.2,1.8-2.4,2.9-3.5
	c1.1-1.1,2.2-2.1,3.3-3c1.2-0.9,2.3-1.6,3.3-2.2c0.4-0.3,0.9-0.4,1.3-0.4c0.4,0,0.7,0.1,0.9,0.4c0.3,0.3,0.5,0.7,0.5,1.2
	c0,0.5-0.1,0.9-0.4,1.4h0c-0.4,0.7-0.9,1-1.6,1c-0.1,0-0.2,0-0.2,0c-0.8,0.5-1.7,1.1-2.6,1.8c-0.9,0.7-1.8,1.5-2.6,2.4
	c-0.8,0.9-1.6,1.8-2.3,2.8c-0.7,1-1.2,2-1.6,3c-0.2,0.7-0.4,1.4-0.6,2.1c-0.2,0.7-0.3,1.4-0.3,2.1c0,0.6,0.1,1.2,0.2,1.6
	c0.2,0.5,0.5,0.9,1,1.2c0.4,0.3,1.1,0.6,2,0.7c0.5,0.1,1,0.2,1.5,0.2c0.5,0,1.1,0.1,1.6,0.1c0.9,0,1.9-0.1,3.1-0.2
	c1.1-0.2,2.4-0.4,3.8-0.8c0.1,0,0.2,0,0.2-0.1c0.1,0,0.2,0,0.4,0c0.7,0,1.2,0.4,1.4,1.2l0,0C125.1,167.9,125.1,168,125.1,168z"/>
<path class="st15" d="M142.8,168c-0.7,0.4-1.4,0.7-2.3,1c-0.6,0.2-1.3,0.4-2.1,0.6c-0.8,0.2-1.6,0.4-2.5,0.6
	c-0.9,0.2-1.7,0.3-2.6,0.4c-0.9,0.1-1.7,0.2-2.4,0.2h-0.1c-0.6,0-1.2-0.1-1.7-0.4c-0.5-0.2-0.9-0.7-1.3-1.2v0
	c-0.3-0.5-0.5-1-0.7-1.7c-0.2-0.6-0.3-1.4-0.3-2.2c0-0.3,0-0.6,0.1-1c0.1-0.4,0.1-0.8,0.2-1.2c0.1-0.4,0.2-0.8,0.3-1.2
	c0.1-0.4,0.2-0.8,0.2-1.1c-0.1,0-0.3,0-0.5,0c-0.1,0-0.3,0-0.4,0c-0.2,0-0.3,0-0.4,0h-0.1c-0.5,0-1-0.1-1.2-0.4
	c-0.3-0.3-0.5-0.6-0.5-1c0-0.6,0.3-1.1,0.9-1.5h0c0.3-0.3,0.7-0.4,1.3-0.4c0.2,0,0.5,0.1,0.8,0.2c0.2,0,0.4,0,0.6-0.1
	c0.2,0,0.4-0.1,0.6-0.1c0.4-1,0.7-1.9,0.9-2.8c0.2-0.9,0.4-1.7,0.5-2.3c0-0.1,0-0.1,0-0.2c0-0.1,0-0.2,0-0.3v-0.2
	c-0.1,0-0.2,0.1-0.3,0.1s-0.1,0-0.2,0.1c-0.6,0.2-1.3,0.4-2,0.6l0,0c-0.2,0.1-0.4,0.1-0.6,0.1c-0.4,0-0.8-0.2-1.1-0.5
	c-0.3-0.3-0.4-0.7-0.4-1.1c0-0.3,0.1-0.6,0.3-0.9c0.2-0.3,0.5-0.5,0.9-0.7c1.1-0.4,2.3-0.8,3.5-1.1s2.4-0.5,3.6-0.6
	c1.2-0.2,2.3-0.3,3.5-0.3s2.2-0.1,3.2-0.1c0.4,0,0.9,0,1.3,0c0.4,0,0.8,0,1.2,0c0.5,0,0.9,0.2,1.2,0.5c0.3,0.3,0.4,0.7,0.4,1v0.2
	c0,0.4-0.2,0.7-0.4,1c-0.2,0.3-0.6,0.4-1.1,0.4h-0.2c-0.4,0-0.8,0-1.2,0c-0.4,0-0.8,0-1.2,0c-1.2,0-2.5,0-3.7,0.1
	c-1.2,0.1-2.4,0.2-3.5,0.4c0,0.1,0,0.2,0.1,0.3c0,0.1,0,0.2,0,0.3c0,0.1,0,0.1,0,0.2s0,0.2,0,0.2c0,0.7-0.2,1.6-0.4,2.4
	c-0.2,0.9-0.5,1.7-0.7,2.6c0.8-0.1,1.7-0.3,2.5-0.4c0.9-0.1,1.7-0.3,2.6-0.4c0.8-0.2,1.6-0.3,2.4-0.4c0.7-0.1,1.4-0.3,1.9-0.4l0,0
	c0.1,0,0.2-0.1,0.2-0.1c0,0,0.1,0,0.1,0c0.4,0,0.7,0.1,0.9,0.4c0.2,0.2,0.4,0.5,0.5,0.9c0,0,0,0.1,0,0.1c0,0.1,0,0.1,0,0.2
	c0,0.3-0.1,0.7-0.3,1c-0.2,0.3-0.5,0.5-1,0.7c-0.5,0.1-1.3,0.3-2.2,0.5c-0.9,0.2-1.9,0.4-2.9,0.5c-1,0.2-2.1,0.4-3.1,0.5
	c-1,0.2-1.9,0.3-2.7,0.4c-0.3,0.9-0.5,1.8-0.7,2.6c-0.2,0.9-0.3,1.7-0.3,2.5v0.2c0,0.3,0,0.6,0.1,0.9c0.1,0.3,0.2,0.5,0.3,0.6
	c0.2,0.2,0.4,0.3,0.8,0.3h0.2c1,0,2.3-0.2,3.7-0.4c1.4-0.2,2.8-0.6,4.1-1.1c0.6-0.2,1.1-0.4,1.5-0.6c0.4-0.2,0.8-0.6,1.1-0.9
	c0.4-0.4,0.8-0.6,1.2-0.6c0.5,0,0.8,0.1,1.1,0.4h0c0.4,0.3,0.6,0.7,0.6,1.3c0,0.2,0,0.4-0.1,0.5c0,0.2-0.1,0.4-0.3,0.5v0
	C144,167.1,143.5,167.6,142.8,168z"/>
<path class="st15" d="M154,152c0,0.2-0.1,0.4-0.2,0.6c-0.1,0.2-0.2,0.3-0.4,0.4c-0.1,0-0.2,0.1-0.3,0.1c-0.1,0-0.2,0.1-0.3,0.1
	c-0.4,0-0.7-0.2-0.9-0.6c-0.2-0.4-0.4-0.9-0.6-1.5c-0.2-0.6-0.2-1.3-0.2-1.9c0-0.3,0-0.6,0.1-1c0-0.3,0.1-0.6,0.2-0.8
	c0.3-0.5,0.7-0.7,1.1-0.7c0.2,0,0.4,0,0.5,0.1c0.2,0.1,0.4,0.3,0.6,0.5c0.2,0.2,0.2,0.5,0.2,0.8c0,0.3,0,0.5-0.1,0.7
	c-0.1,0.2-0.2,0.3-0.3,0.4v0.2c0,0.3,0,0.7,0.1,1s0.2,0.7,0.3,0.9v0C153.9,151.5,154,151.8,154,152z"/>
<path class="st15" d="M163.7,167.3c-0.2,0.3-0.6,0.5-1.1,0.6c-0.1,0-0.2,0-0.4,0c-0.1,0-0.2,0-0.3,0h-0.6c-0.2,0.3-0.5,0.5-0.9,0.5
	c-0.3,0-0.6-0.1-0.8-0.3c0,0-0.1,0-0.2,0c-0.1,0-0.2,0-0.3,0c-0.3,0.2-0.6,0.3-0.9,0.3h-0.2c-0.8-0.1-1.3-0.5-1.5-1.3l0,0
	c-0.1-0.2-0.1-0.4-0.1-0.7c0-0.3,0.1-0.6,0.2-0.8c0.2-0.2,0.4-0.4,0.8-0.5c0.2-0.1,0.4-0.2,0.7-0.2c0.3,0,0.5-0.1,0.8-0.1
	c0-0.7,0-1.6,0.1-2.5c0.1-0.9,0.1-1.9,0.2-2.8c0.1-0.9,0.2-1.8,0.2-2.7c0.1-0.8,0.2-1.5,0.2-2.1c-0.2,0.1-0.3,0.2-0.5,0.3
	c-0.2,0.1-0.4,0.2-0.6,0.2c0,0-0.1,0-0.1,0c0,0,0,0-0.1,0c-0.3,0-0.5-0.1-0.7-0.2c-0.2-0.2-0.4-0.3-0.5-0.5
	c-0.1-0.2-0.2-0.5-0.2-0.8c0-0.5,0.3-1,0.8-1.3h0c0.1-0.1,0.3-0.2,0.6-0.4c0.3-0.1,0.5-0.3,0.8-0.5c0.2-0.1,0.4-0.3,0.6-0.4
	c0.2-0.1,0.4-0.2,0.5-0.3c0.3-0.2,0.6-0.3,0.9-0.3c0.5,0,0.9,0.2,1.2,0.5c0.4,0.4,0.5,0.8,0.5,1.2v0.2c-0.1,0.8-0.2,1.7-0.3,2.8
	c-0.1,1.1-0.2,2.2-0.3,3.3c-0.1,1.1-0.2,2.2-0.3,3.3c-0.1,1.1-0.2,2-0.2,2.8c0.3,0,0.6,0,0.8,0.1c0.2,0.1,0.4,0.1,0.6,0.3h0
	c0.4,0.2,0.7,0.6,0.7,1.2C164.1,166.6,163.9,167,163.7,167.3z"/>
<path class="st15" d="M183.9,153.1c0,0.5-0.2,1-0.6,1.5v0c-0.9,1.1-1.9,2.5-3,4.1c-1.1,1.6-2.1,3.2-3.1,4.9c-1,1.7-1.8,3.3-2.6,5
	c-0.8,1.6-1.3,3.1-1.7,4.3c0,0.2,0.1,0.3,0.1,0.4c0,0.1,0,0.3,0,0.4c0,0.4-0.1,0.7-0.2,1.1c-0.2,0.3-0.4,0.6-0.7,0.7
	c-0.3,0.2-0.6,0.2-0.9,0.2c-0.2,0-0.4,0-0.6-0.1c-0.3-0.1-0.6-0.3-0.9-0.7c-0.2-0.3-0.4-0.7-0.4-1.2c0-0.1,0-0.2,0-0.4
	c0-0.1,0-0.3,0.1-0.4c0.4-1.6,1-3.2,1.8-4.9c0.8-1.7,1.6-3.3,2.5-5c0.9-1.6,1.8-3.2,2.8-4.6c1-1.5,1.9-2.7,2.7-3.9l0,0
	c0-0.1,0.1-0.2,0.2-0.3h-0.9c-0.6,0-1.2,0-1.8-0.1c-0.6,0-1.1,0-1.8,0c-0.7,0-1.4,0-2.1,0.1c-0.8,0-1.6,0.1-2.6,0.2
	c-0.3,0.2-0.5,0.3-0.8,0.3c-0.2,0.1-0.5,0.1-0.8,0.1h-0.2c-0.4,0-0.8-0.1-1.2-0.4c-0.4-0.3-0.6-0.6-0.8-1c0-0.1-0.1-0.2-0.1-0.3
	c0-0.1,0-0.2,0-0.3c0-0.4,0.1-0.7,0.4-1c0.3-0.3,0.7-0.5,1.3-0.6c0.7-0.1,1.7-0.2,2.9-0.2c1.2,0,2.4-0.1,3.6-0.1c1.3,0,2.5,0,3.8,0
	c1.2,0,2.3,0.1,3.3,0.1c0.6,0,1,0.1,1.4,0.4c0.3,0.2,0.6,0.5,0.7,0.8C183.9,152.6,183.9,152.9,183.9,153.1z"/>
<g>
	<path class="st0" d="M46,175.1c-6.3-4.7-13.3-9.6-18.4-14.4c-0.9,7.8-1.6,16.3-3.2,23.2C31.5,180.7,39.2,177.1,46,175.1z"/>
	<linearGradient id="SVGID_15_" gradientUnits="userSpaceOnUse" x1="-11.35" y1="186.8549" x2="39.2996" y2="186.8549">
		<stop  offset="0.2848" style="stop-color:#E85F2E"/>
		<stop  offset="1" style="stop-color:#FAC81E"/>
	</linearGradient>
	<path class="st16" d="M14.3,186.9C14.3,186.9,14.3,186.9,14.3,186.9C14.2,186.9,14.2,186.9,14.3,186.9
		C14.2,186.9,14.2,186.9,14.3,186.9z"/>
	<linearGradient id="SVGID_16_" gradientUnits="userSpaceOnUse" x1="55.2815" y1="185.451" x2="7.2077" y2="192.0755">
		<stop  offset="0" style="stop-color:#E85F2E"/>
		<stop  offset="1" style="stop-color:#FAC81E"/>
	</linearGradient>
	<path class="st17" d="M46,174.9c-6.8,2.1-14.5,5.7-21.7,8.8c-11.2,4.8-21,8.4-23.9,2.9c0.1,0.8,0.2,1.4,0.4,2.1
		c0,0.1,0.1,0.2,0.1,0.3c0.9,2.6,2.5,4.6,4.8,5.9c0.2,0.1,0.4,0.2,0.6,0.4c0.1,0,0.1,0.1,0.2,0.1c1.4,0.8,3,1.5,4.9,1.9
		c0.9,0.2,1.8,0.4,2.7,0.5c0,0,0,0,0,0c13.2,2.4,26.8,2.2,40-0.5c2.7-0.6,4.9-1.7,6.6-3.1C63.5,188.8,55.6,182.1,46,174.9z"/>
	
		<linearGradient id="SVGID_17_" gradientUnits="userSpaceOnUse" x1="503.6075" y1="-704.4158" x2="502.9114" y2="-677.4266" gradientTransform="matrix(-0.5 -0.866 0.866 -0.5 865.838 283.5007)">
		<stop  offset="0" style="stop-color:#FFFFFF;stop-opacity:0.5"/>
		<stop  offset="1" style="stop-color:#FFFFFF;stop-opacity:0"/>
	</linearGradient>
	<path class="st18" d="M24.3,184.1c-11.1,4.8-21,8.3-23.9,2.8c0,0,0,0,0,0c0,0.3,0.1,0.5,0.1,0.8c0,0.1,0.1,0.2,0.1,0.3
		c0,0.1,0,0.2,0.1,0.3c0,0.1,0.1,0.2,0.1,0.3c7.4,5.3,19.4,7.8,32.3,5.9c9.7-1.4,18.2-5,24.1-9.8c-2.8-3-6.8-6.2-11.2-9.4
		C39.2,177.4,31.5,181,24.3,184.1z"/>
	
		<linearGradient id="SVGID_18_" gradientUnits="userSpaceOnUse" x1="306.6476" y1="-407.4408" x2="258.5523" y2="-400.8133" gradientTransform="matrix(-0.5 -0.866 0.866 -0.5 538.1153 209.0866)">
		<stop  offset="0" style="stop-color:#E85F2E"/>
		<stop  offset="1" style="stop-color:#FAC81E"/>
	</linearGradient>
	<path class="st19" d="M27.5,160.6c5.2,4.8,12.2,9.7,18.4,14.4c9.8,7.3,17.7,14.1,14.4,19.4c0.6-0.5,1.2-1,1.7-1.5
		c0.1-0.1,0.1-0.1,0.2-0.2c1.8-2,2.7-4.5,2.7-7.1c0-0.2,0-0.5,0-0.7c0-0.1,0-0.1,0-0.2c0-1.6-0.2-3.4-0.8-5.2
		c-0.3-0.9-0.6-1.8-0.9-2.6c0,0,0,0,0,0c-4.5-12.7-11.5-24.3-20.5-34.4c-1.9-2-3.9-3.4-6-4.2C30.7,138.4,28.9,148.6,27.5,160.6z"/>
	
		<linearGradient id="SVGID_19_" gradientUnits="userSpaceOnUse" x1="891.9061" y1="-190.4165" x2="891.2106" y2="-163.449" gradientTransform="matrix(-0.5 0.866 -0.866 -0.5 350.8551 -682.9639)">
		<stop  offset="0" style="stop-color:#FFFFFF;stop-opacity:0.5"/>
		<stop  offset="1" style="stop-color:#FFFFFF;stop-opacity:0"/>
	</linearGradient>
	<path class="st20" d="M46.3,174.8C56,182,64,188.7,60.7,194c0,0-0.2,0.2-0.1,0.2c0.2-0.2,0.5-0.4,0.8-0.6c0.1,0,0.1-0.1,0.2-0.2
		c0.1-0.1,0.1-0.1,0.1-0.1c0.1-0.1,0.2-0.2,0.3-0.3c0.9-9.1-2.9-20.6-11-30.9c-6.1-7.7-13.4-13.2-20.5-16c-1.2,3.9-1.9,9-2.6,14.4
		C33,165.2,40,170.1,46.3,174.8z"/>
	
		<linearGradient id="SVGID_20_" gradientUnits="userSpaceOnUse" x1="694.9034" y1="106.5708" x2="646.8038" y2="113.1989" gradientTransform="matrix(-0.5 0.866 -0.866 -0.5 450.2731 -361.9405)">
		<stop  offset="0" style="stop-color:#E85F2E"/>
		<stop  offset="1" style="stop-color:#FAC81E"/>
	</linearGradient>
	<path class="st21" d="M24.3,183.7c1.6-6.9,2.3-15.4,3.2-23.2c1.4-12.1,3.3-22.4,9.5-22.2c-0.7-0.3-1.4-0.5-2.1-0.7
		c-0.1,0-0.2,0-0.3-0.1c-2.7-0.5-5.3-0.1-7.5,1.2c-0.2,0.1-0.4,0.2-0.6,0.3c-0.1,0-0.1,0.1-0.2,0.1c-1.4,0.8-2.8,1.9-4.1,3.3
		c-0.6,0.7-1.2,1.4-1.8,2.1c0,0,0,0,0,0C11.9,155,5.2,166.8,1,179.6c-1.3,4.2-0.5,7.8-0.6,7.3C3.5,192.1,13.3,188.5,24.3,183.7z"/>
	
		<linearGradient id="SVGID_21_" gradientUnits="userSpaceOnUse" x1="252.3107" y1="-111.4997" x2="251.6149" y2="-84.5212" gradientTransform="matrix(1 0 0 1 -228.3056 246.61)">
		<stop  offset="0" style="stop-color:#FFFFFF;stop-opacity:0.5"/>
		<stop  offset="1" style="stop-color:#FFFFFF;stop-opacity:0"/>
	</linearGradient>
	<path class="st22" d="M27.3,160.4c1.4-12.1,3.2-22.3,9.5-22.1c0,0-0.4-0.2-0.7-0.3c-0.1,0-0.2-0.1-0.3-0.1c-0.1,0-0.2,0-0.2-0.1
		c-0.1,0-0.3-0.1-0.4-0.1c-8.3,3.7-16.4,12.8-21.3,25c-3.6,9.1-4.7,18.2-3.6,25.8c4-0.9,8.8-2.8,13.8-5
		C25.7,176.7,26.4,168.2,27.3,160.4z"/>
</g>
</svg>
